<svg xmlns="http://www.w3.org/2000/svg" xmlns:xlink="http://www.w3.org/1999/xlink" xmlns:lucid="lucid" width="1466.64" height="542.91"><g transform="translate(2074 10.999999999999964)" lucid:page-tab-id="2K1yNXuAknJe"><path d="M-2069.33 0H64v1200h-2133.33z" fill="#fff"/><path d="M-1936.7 15c0-3.3 2.7-6 6-6h1297.34c3.3 0 6 2.7 6 6v104.67c0 3.3-2.7 6-6 6H-1930.7c-3.3 0-6-2.7-6-6z" stroke="#000" stroke-opacity="0" stroke-width="3" fill="#fff" fill-opacity="0"/><use xlink:href="#a" transform="matrix(1,0,0,1,-1936.6942717717832,9.000000000000036) translate(0 68.46180555555556)"/><use xlink:href="#b" transform="matrix(1,0,0,1,-1936.6942717717832,9.000000000000036) translate(204.5679012345679 68.46180555555556)"/><use xlink:href="#c" transform="matrix(1,0,0,1,-1936.6942717717832,9.000000000000036) translate(374.8148148148148 68.46180555555556)"/><use xlink:href="#d" transform="matrix(1,0,0,1,-1936.6942717717832,9.000000000000036) translate(564.6913580246913 68.46180555555556)"/><path d="M-2037.18 14.33h61.37c11.2 0 16.8 5.65 16.8 16.86v58.9c0 11.2-5.6 16.86-16.82 16.86h-61.37c-11.2 0-16.8-5.65-16.8-16.86V31.2c0-11.22 5.6-16.87 16.82-16.87z" stroke="#000" stroke-opacity="0" stroke-width=".64" fill="#000b1d"/><path d="M-1980.1 84h-11.3c-1.04 0-1.9-.57-2.37-1.5l-12.26-28.62c0-.18-.1-.37-.28-.37-.3-.08-.58 0-.68.3l-7.7 18.24v.18c0 .37.3.65.67.65h8.36c.47 0 .94.37 1.13.84l3.7 8.16c.28.83 0 1.66-.76 2.03-.2.1-.38.1-.67.1h-30.5c-.75 0-1.4-.66-1.4-1.4 0-.2.08-.37.18-.56l19.38-46.3c.37-1.03 1.32-1.58 2.46-1.58h11.2c1.14 0 2.1.55 2.47 1.57l19.58 46.3c.28.75 0 1.5-.77 1.86-.2.1-.28.1-.47.1z" stroke="#000" stroke-opacity="0" stroke-width=".64" fill="#fa0f00"/><path d="M-1685.67 194.24c0-3.3 2.7-6 6-6h308c3.32 0 6 2.7 6 6v288c0 3.32-2.68 6-6 6h-308c-3.3 0-6-2.68-6-6z" stroke="#7f0000" stroke-width="3" fill="#fff"/><path d="M-1645.67 392.9c0-3.3 2.7-6 6-6h228c3.32 0 6 2.7 6 6v48c0 3.32-2.68 6-6 6h-228c-3.3 0-6-2.68-6-6z" stroke="#000" stroke-opacity="0" fill="#7f0000"/><use xlink:href="#e" transform="matrix(1,0,0,1,-1640.6666666666665,391.91111111111064) translate(69.96913580246914 30.27777777777778)"/><use xlink:href="#f" transform="matrix(1,0,0,1,-1640.6666666666665,391.91111111111064) translate(119.35185185185185 30.27777777777778)"/><path d="M-1226.33 395.9c0-3.32 2.68-6 6-6h228c3.3 0 6 2.68 6 6v78c0 3.3-2.7 6-6 6h-228c-3.32 0-6-2.7-6-6z" stroke="#000" stroke-opacity="0" fill="#7f0000"/><use xlink:href="#g" transform="matrix(1,0,0,1,-1221.333333333333,394.8888888888891) translate(66.94444444444444 17.77777777777778)"/><use xlink:href="#h" transform="matrix(1,0,0,1,-1221.333333333333,394.8888888888891) translate(75.52469135802468 44.44444444444444)"/><use xlink:href="#i" transform="matrix(1,0,0,1,-1221.333333333333,394.8888888888891) translate(70.61728395061729 71.11111111111111)"/><path d="M-1695.05 153.9h38.76c7.1 0 10.63 3.67 10.63 10.93V203c0 7.25-3.54 10.9-10.62 10.9h-38.75c-7.08 0-10.62-3.65-10.62-10.9v-38.17c0-7.26 3.54-10.92 10.62-10.92z" stroke="#000" stroke-opacity="0" stroke-width=".64" fill="#000b1d"/><path d="M-1659 199.03h-7.13c-.66 0-1.2-.36-1.5-.96l-7.74-18.54c0-.12-.06-.24-.18-.24-.18-.07-.36 0-.42.17l-4.86 11.82v.1c0 .25.18.43.42.43h5.27c.3 0 .6.24.72.54l2.33 5.28c.18.54 0 1.08-.48 1.32-.12.06-.24.06-.42.06h-19.26c-.48 0-.9-.42-.9-.9 0-.12.06-.24.12-.36l12.23-30c.24-.66.84-1.02 1.56-1.02h7.07c.72 0 1.32.36 1.56 1.02l12.36 30c.17.48 0 .96-.5 1.2-.1.06-.17.06-.3.06z" stroke="#000" stroke-opacity="0" stroke-width=".64" fill="#fa0f00"/><path d="M-1918.67 374.9c15.02 0 27 4.84 27 10.52 0 5.7-11.98 10.52-27 10.52-15 0-27-4.83-27-10.52 0-5.68 12-10.5 27-10.5zm26.68 18c-3.28 6-13.17 8.44-26.67 8.44-13.5 0-23.1-2.45-26.67-8.43h-.33v11.4c0 4.52 12 9.64 27 9.64 15.02 0 27-5.4 27-9.94l-.32-11.1zm0 18c-3.55 6-13.17 8.44-26.67 8.44-13.5 0-23.38-2.45-26.67-8.43h-.33v26.44c0 4.46 12 9.57 27 9.57 15.02 0 27-5.4 27-9.92l-.32-26.07z" stroke="#000" stroke-opacity="0" stroke-width="3" fill-opacity=".6"/><path d="M-1891.5 410.9h122.66v.02l.02.02h106.77" stroke="#5e5e5e" fill="none"/><path d="M-1891.48 411.4h-.5v-.5l-.38.5h-2.63v-1h3.52z" fill="#5e5e5e"/><path d="M-1647.28 410.94l-14.27 4.63v-9.27z" stroke="#5e5e5e" fill="#5e5e5e"/><path d="M-1865.67 410.9c0-3.3 2.7-6 6-6h228c3.32 0 6 2.7 6 6v51.34c0 3.32-2.68 6-6 6h-228c-3.3 0-6-2.68-6-6z" stroke="#000" stroke-opacity="0" fill="#fff" fill-opacity="0"/><use xlink:href="#j" transform="matrix(1,0,0,1,-1860.6666666666665,409.9111111111107) translate(0 20.97222222222222)"/><use xlink:href="#k" transform="matrix(1,0,0,1,-1860.6666666666665,409.9111111111107) translate(15.308641975308639 20.97222222222222)"/><use xlink:href="#l" transform="matrix(1,0,0,1,-1860.6666666666665,409.9111111111107) translate(39.99999999999999 20.97222222222222)"/><use xlink:href="#m" transform="matrix(1,0,0,1,-1860.6666666666665,409.9111111111107) translate(0 42.30555555555556)"/><use xlink:href="#n" transform="matrix(1,0,0,1,-1860.6666666666665,409.9111111111107) translate(78.2716049382716 42.30555555555556)"/><use xlink:href="#o" transform="matrix(1,0,0,1,-1860.6666666666665,409.9111111111107) translate(108.83950617283949 42.30555555555556)"/><path d="M-1609.96 370.53l-.06-80.12" stroke="#5e5e5e" fill="none"/><path d="M-1609.95 385.3l-4.65-14.27h9.27z" stroke="#5e5e5e" fill="#5e5e5e"/><path d="M-1610.02 290.42v-.5" stroke="#5e5e5e" fill="none"/><path d="M-2040 454.58c0-3.32 2.7-6 6-6h228c3.3 0 6 2.68 6 6v51.33c0 3.32-2.7 6-6 6h-228c-3.3 0-6-2.68-6-6z" stroke="#000" stroke-opacity="0" fill="#fff" fill-opacity="0"/><use xlink:href="#p" transform="matrix(1,0,0,1,-2035,453.57777777777767) translate(92.28395061728395 20.97222222222222)"/><use xlink:href="#q" transform="matrix(1,0,0,1,-2035,453.57777777777767) translate(96.25925925925927 42.30555555555556)"/><path d="M-2040 275.9c0-3.3 2.7-6 6-6h228c3.3 0 6 2.7 6 6v62c0 3.32-2.7 6-6 6h-228c-3.3 0-6-2.68-6-6z" stroke="#000" stroke-opacity="0" fill="#fff" fill-opacity="0"/><use xlink:href="#r" transform="matrix(1,0,0,1,-2035,274.91111111111087) translate(74.58024691358025 14.222222222222221)"/><use xlink:href="#s" transform="matrix(1,0,0,1,-2035,274.91111111111087) translate(47.8888888888889 35.55555555555556)"/><use xlink:href="#t" transform="matrix(1,0,0,1,-2035,274.91111111111087) translate(90.30864197530866 35.55555555555556)"/><use xlink:href="#u" transform="matrix(1,0,0,1,-2035,274.91111111111087) translate(107.09876543209877 35.55555555555556)"/><use xlink:href="#v" transform="matrix(1,0,0,1,-2035,274.91111111111087) translate(71.61728395061729 56.888888888888886)"/><use xlink:href="#w" transform="matrix(1,0,0,1,-2035,274.91111111111087) translate(123.8641975308642 56.888888888888886)"/><path d="M-1889.47 251c3.58 1.64 5.9 5.44 5.9 9.78 0 5-3.1 9.25-7.37 10.35l-1.4.34h-50.75c-5.9 0-10.66-5.37-10.66-11.83s4.77-11.82 10.67-11.82c.5 0 .78 0 1.27.13 1.76-3.13 4.77-4.9 8.14-4.9.93 0 1.77.13 2.68.42v-.42c0-7.68 5.55-13.8 12.5-13.8 4.77 0 9.2 3.2 11.22 8.02 1.76-1.14 3.8-1.78 5.9-1.78 6.67 0 12.07 6 12.07 13.34.07.67 0 1.35-.14 2.15z" stroke="#000" stroke-opacity="0" fill="#707070"/><path d="M-1883.15 259.98h120.2c.02 0 .04-.02.04-.03 0-.02 0-.04.02-.04h104.33" stroke="#5e5e5e" fill="none"/><path d="M-1883.14 260.48h-.46l-.1-1h.56z" fill="#5e5e5e"/><path d="M-1643.78 259.9l-14.27 4.65v-9.27z" stroke="#5e5e5e" fill="#5e5e5e"/><path d="M-1637.67 146c0-3.3 2.7-6 6-6h288c3.32 0 6 2.7 6 6v49.2c0 3.32-2.68 6-6 6h-288c-3.3 0-6-2.68-6-6z" stroke="#000" stroke-opacity="0" stroke-width="3" fill="#fff" fill-opacity="0"/><use xlink:href="#x" transform="matrix(1,0,0,1,-1637.6666666666665,140) translate(0 40.262222222222206)"/><use xlink:href="#y" transform="matrix(1,0,0,1,-1637.6666666666665,140) translate(70.54666666666664 40.262222222222206)"/><use xlink:href="#z" transform="matrix(1,0,0,1,-1637.6666666666665,140) translate(185.2399999999999 40.262222222222206)"/><path d="M-1225.53 380.22h27.28c4.98 0 7.47 2.58 7.47 7.7v26.84c0 5.1-2.5 7.68-7.47 7.68h-27.28c-4.98 0-7.47-2.57-7.47-7.68V387.9c0-5.1 2.5-7.68 7.47-7.68z" stroke="#000" stroke-opacity="0" stroke-width=".64" fill="#e5e5e5"/><path d="M-1200.15 411.97h-5.03c-.46 0-.84-.25-1.05-.67l-5.45-13.05c0-.08-.04-.17-.12-.17-.13-.04-.26.04-.3.17l-3.42 8.28v.08c0 .18.13.3.3.3h3.7c.22.05.43.18.52.4l1.64 3.7c.13.38 0 .76-.33.93-.12.04-.16.04-.3.04h-13.54c-.34 0-.64-.3-.64-.63 0-.08.05-.17.1-.25l8.6-21.12c.17-.47.6-.72 1.1-.72h4.98c.5 0 .93.25 1.1.72l8.7 21.1c.12.34 0 .68-.3.85-.08.04-.17.04-.25.04z" stroke="#000" stroke-opacity="0" stroke-width=".64" fill="#fa0f00"/><path d="M-1641.67 234.24c0-3.3 2.7-6 6-6h228c3.32 0 6 2.7 6 6v51.34c0 3.3-2.68 6-6 6h-228c-3.3 0-6-2.7-6-6z" stroke="#5e5e5e" fill="#faf3f4"/><use xlink:href="#A" transform="matrix(1,0,0,1,-1636.6666666666665,233.2444444444442) translate(34.845679012345684 17.77777777777778)"/><use xlink:href="#B" transform="matrix(1,0,0,1,-1636.6666666666665,233.2444444444442) translate(92.87037037037038 17.77777777777778)"/><use xlink:href="#C" transform="matrix(1,0,0,1,-1636.6666666666665,233.2444444444442) translate(180.3395061728395 17.77777777777778)"/><use xlink:href="#D" transform="matrix(1,0,0,1,-1636.6666666666665,233.2444444444442) translate(75.58641975308642 44.44444444444444)"/><path d="M-1837.45 266.9c0-3.3 2.68-6 6-6h93.66c3.33 0 6 2.7 6 6v18.68c0 3.3-2.67 6-6 6h-93.65c-3.32 0-6-2.7-6-6z" stroke="#000" stroke-opacity="0" fill="#fff" fill-opacity="0"/><use xlink:href="#j" transform="matrix(1,0,0,1,-1832.4537472561929,265.91111111115) translate(0 15.534722222222221)"/><use xlink:href="#E" transform="matrix(1,0,0,1,-1832.4537472561929,265.91111111115) translate(15.308641975308639 15.534722222222221)"/><use xlink:href="#F" transform="matrix(1,0,0,1,-1832.4537472561929,265.91111111115) translate(49.87654320987653 15.534722222222221)"/><path d="M-1405.17 416.9h156.04" stroke="#5e5e5e" fill="none"/><path d="M-1405.15 417.4h-.52v-1h.52z" fill="#5e5e5e"/><path d="M-1234.36 416.9l-14.27 4.65v-9.27z" stroke="#5e5e5e" fill="#5e5e5e"/><path d="M-1362 381.28c0-3.3 2.7-6 6-6h137.33c3.32 0 6 2.7 6 6v49.2c0 3.33-2.68 6-6 6H-1356c-3.3 0-6-2.67-6-6z" stroke="#000" stroke-opacity="0" fill="#fff" fill-opacity="0"/><g><use xlink:href="#j" transform="matrix(1,0,0,1,-1357,380.28444444444466) translate(0 30.47222222222222)"/><use xlink:href="#G" transform="matrix(1,0,0,1,-1357,380.28444444444466) translate(15.308641975308639 30.47222222222222)"/><use xlink:href="#H" transform="matrix(1,0,0,1,-1357,380.28444444444466) translate(39.99999999999999 30.47222222222222)"/></g><path d="M-1606 311.9c0-3.3 2.7-6 6-6h114c3.3 0 6 2.7 6 6v40.68c0 3.3-2.7 6-6 6h-114c-3.3 0-6-2.7-6-6z" stroke="#000" stroke-opacity="0" fill="#fff" fill-opacity="0"/><g><use xlink:href="#j" transform="matrix(1,0,0,1,-1601,310.91111111111076) translate(0 24.97222222222222)"/><use xlink:href="#I" transform="matrix(1,0,0,1,-1601,310.91111111111076) translate(15.308641975308639 24.97222222222222)"/><use xlink:href="#H" transform="matrix(1,0,0,1,-1601,310.91111111111076) translate(39.99999999999999 24.97222222222222)"/></g><path d="M-1245 262.24c0-3.3 2.7-6 6-6h228c3.3 0 6 2.7 6 6v44.67c0 3.32-2.7 6-6 6h-228c-3.3 0-6-2.68-6-6z" stroke="#000" stroke-opacity="0" fill="#999"/><g><use xlink:href="#J" transform="matrix(1,0,0,1,-1240,261.2444444444442) translate(35.4320987654321 26.59027777777778)"/><use xlink:href="#K" transform="matrix(1,0,0,1,-1240,261.2444444444442) translate(105.80246913580247 26.59027777777778)"/></g><path d="M-1400.67 271.97h127.22" stroke="#333" fill="none"/><path d="M-1400.65 272.47h-.52v-1h.52z" fill="#333"/><path d="M-1258.7 271.97l-14.25 4.63v-9.27z" stroke="#333" fill="#333"/><path d="M-1362 250.58c0-3.32 2.7-6 6-6h93.67c3.3 0 6 2.68 6 6v18.66c0 3.32-2.7 6-6 6H-1356c-3.3 0-6-2.68-6-6z" stroke="#000" stroke-opacity="0" fill="#fff" fill-opacity="0"/><g><use xlink:href="#j" transform="matrix(1,0,0,1,-1357,249.57777777779705) translate(0 15.534722222222221)"/><use xlink:href="#E" transform="matrix(1,0,0,1,-1357,249.57777777779705) translate(15.308641975308639 15.534722222222221)"/><use xlink:href="#F" transform="matrix(1,0,0,1,-1357,249.57777777779705) translate(49.87654320987653 15.534722222222221)"/></g><path d="M-1245.5 298.75h-179.94c-3.32 0-6 2.7-6 6v65.78" stroke="#707070" fill="none"/><path d="M-1245 299.25h-.5v-1h.5z" fill="#707070"/><path d="M-1431.44 385.3l-4.64-14.27h9.27z" stroke="#707070" fill="#707070"/><path d="M-1363.67 288.7c0-3.3 2.7-6 6-6h137.34c3.3 0 6 2.7 6 6v49.2c0 3.32-2.7 6-6 6h-137.34c-3.3 0-6-2.68-6-6z" stroke="#000" stroke-opacity="0" fill="#fff" fill-opacity="0"/><g><use xlink:href="#j" transform="matrix(1,0,0,1,-1358.666666666666,287.702222222222) translate(0 30.47222222222222)"/><use xlink:href="#L" transform="matrix(1,0,0,1,-1358.666666666666,287.702222222222) translate(15.308641975308639 30.47222222222222)"/><use xlink:href="#H" transform="matrix(1,0,0,1,-1358.666666666666,287.702222222222) translate(39.99999999999999 30.47222222222222)"/></g><path d="M-1247.42 244.58h27.28c4.98 0 7.47 2.57 7.47 7.68v26.86c0 5.1-2.5 7.68-7.47 7.68h-27.28c-4.98 0-7.47-2.58-7.47-7.68v-26.86c0-5.1 2.5-7.68 7.48-7.68z" stroke="#000" stroke-opacity="0" stroke-width=".64" fill="#e5e5e5"/><path d="M-1222.04 276.33h-5.02c-.47 0-.85-.25-1.06-.68l-5.45-13.04c0-.08-.04-.16-.12-.16-.12-.04-.25.04-.3.17l-3.4 8.28v.1c0 .16.12.28.3.28h3.7c.2.04.42.17.5.38l1.66 3.72c.12.38 0 .76-.34.93-.13.03-.17.03-.3.03h-13.55c-.34 0-.63-.3-.63-.63 0-.1.04-.17.08-.26l8.6-21.1c.18-.47.6-.73 1.1-.73h5c.5 0 .92.27 1.1.73l8.7 21.1c.12.35 0 .7-.3.86-.1.03-.18.03-.26.03z" stroke="#000" stroke-opacity="0" stroke-width=".64" fill="#fa0f00"/><defs><path fill="#333" d="M212-179c-10-28-35-45-73-45-59 0-87 40-87 99 0 60 29 101 89 101 43 0 62-24 78-52l27 14C228-24 195 4 139 4 59 4 22-46 18-125c-6-104 99-153 187-111 19 9 31 26 39 46" id="M"/><path fill="#333" d="M84 4C-5 8 30-112 23-190h32v120c0 31 7 50 39 49 72-2 45-101 50-169h31l1 190h-30c-1-10 1-25-2-33-11 22-28 36-60 37" id="N"/><path fill="#333" d="M135-143c-3-34-86-38-87 0 15 53 115 12 119 90S17 21 10-45l28-5c4 36 97 45 98 0-10-56-113-15-118-90-4-57 82-63 122-42 12 7 21 19 24 35" id="O"/><path fill="#333" d="M59-47c-2 24 18 29 38 22v24C64 9 27 4 27-40v-127H5v-23h24l9-43h21v43h35v23H59v120" id="P"/><path fill="#333" d="M100-194c62-1 85 37 85 99 1 63-27 99-86 99S16-35 15-95c0-66 28-99 85-99zM99-20c44 1 53-31 53-75 0-43-8-75-51-75s-53 32-53 75 10 74 51 75" id="Q"/><path fill="#333" d="M210-169c-67 3-38 105-44 169h-31v-121c0-29-5-50-35-48C34-165 62-65 56 0H25l-1-190h30c1 10-1 24 2 32 10-44 99-50 107 0 11-21 27-35 58-36 85-2 47 119 55 194h-31v-121c0-29-5-49-35-48" id="R"/><path fill="#333" d="M100-194c63 0 86 42 84 106H49c0 40 14 67 53 68 26 1 43-12 49-29l28 8c-11 28-37 45-77 45C44 4 14-33 15-96c1-61 26-98 85-98zm52 81c6-60-76-77-97-28-3 7-6 17-6 28h103" id="S"/><path fill="#333" d="M114-163C36-179 61-72 57 0H25l-1-190h30c1 12-1 29 2 39 6-27 23-49 58-41v29" id="T"/><g id="a"><use transform="matrix(0.12345679012345678,0,0,0.12345679012345678,0,0)" xlink:href="#M"/><use transform="matrix(0.12345679012345678,0,0,0.12345679012345678,31.975308641975307,0)" xlink:href="#N"/><use transform="matrix(0.12345679012345678,0,0,0.12345679012345678,56.666666666666664,0)" xlink:href="#O"/><use transform="matrix(0.12345679012345678,0,0,0.12345679012345678,78.88888888888889,0)" xlink:href="#P"/><use transform="matrix(0.12345679012345678,0,0,0.12345679012345678,91.23456790123457,0)" xlink:href="#Q"/><use transform="matrix(0.12345679012345678,0,0,0.12345679012345678,115.92592592592592,0)" xlink:href="#R"/><use transform="matrix(0.12345679012345678,0,0,0.12345679012345678,152.8395061728395,0)" xlink:href="#S"/><use transform="matrix(0.12345679012345678,0,0,0.12345679012345678,177.53086419753086,0)" xlink:href="#T"/></g><path fill="#333" d="M153-248C145-148 188 4 80 4 36 3 13-21 6-62l32-5c4 25 16 42 43 43 27 0 39-20 39-49v-147H72v-28h81" id="U"/><path fill="#333" d="M117-194c89-4 53 116 60 194h-32v-121c0-31-8-49-39-48C34-167 62-67 57 0H25l-1-190h30c1 10-1 24 2 32 11-22 29-35 61-36" id="V"/><path fill="#333" d="M179-190L93 31C79 59 56 82 12 73V49c39 6 53-20 64-50L1-190h34L92-34l54-156h33" id="W"/><g id="b"><use transform="matrix(0.12345679012345678,0,0,0.12345679012345678,0,0)" xlink:href="#U"/><use transform="matrix(0.12345679012345678,0,0,0.12345679012345678,22.22222222222222,0)" xlink:href="#Q"/><use transform="matrix(0.12345679012345678,0,0,0.12345679012345678,46.91358024691358,0)" xlink:href="#N"/><use transform="matrix(0.12345679012345678,0,0,0.12345679012345678,71.60493827160494,0)" xlink:href="#T"/><use transform="matrix(0.12345679012345678,0,0,0.12345679012345678,86.29629629629629,0)" xlink:href="#V"/><use transform="matrix(0.12345679012345678,0,0,0.12345679012345678,110.98765432098764,0)" xlink:href="#S"/><use transform="matrix(0.12345679012345678,0,0,0.12345679012345678,135.679012345679,0)" xlink:href="#W"/></g><path fill="#333" d="M205 0l-28-72H64L36 0H1l101-248h38L239 0h-34zm-38-99l-47-123c-12 45-31 82-46 123h93" id="X"/><path fill="#333" d="M141-36C126-15 110 5 73 4 37 3 15-17 15-53c-1-64 63-63 125-63 3-35-9-54-41-54-24 1-41 7-42 31l-33-3c5-37 33-52 76-52 45 0 72 20 72 64v82c-1 20 7 32 28 27v20c-31 9-61-2-59-35zM48-53c0 20 12 33 32 33 41-3 63-29 60-74-43 2-92-5-92 41" id="Y"/><path fill="#333" d="M24 0v-261h32V0H24" id="Z"/><path fill="#333" d="M24-231v-30h32v30H24zM24 0v-190h32V0H24" id="aa"/><path fill="#333" d="M96-169c-40 0-48 33-48 73s9 75 48 75c24 0 41-14 43-38l32 2c-6 37-31 61-74 61-59 0-76-41-82-99-10-93 101-131 147-64 4 7 5 14 7 22l-32 3c-4-21-16-35-41-35" id="ab"/><g id="c"><use transform="matrix(0.12345679012345678,0,0,0.12345679012345678,0,0)" xlink:href="#X"/><use transform="matrix(0.12345679012345678,0,0,0.12345679012345678,29.629629629629626,0)" xlink:href="#V"/><use transform="matrix(0.12345679012345678,0,0,0.12345679012345678,54.32098765432099,0)" xlink:href="#Y"/><use transform="matrix(0.12345679012345678,0,0,0.12345679012345678,79.01234567901234,0)" xlink:href="#Z"/><use transform="matrix(0.12345679012345678,0,0,0.12345679012345678,88.76543209876543,0)" xlink:href="#W"/><use transform="matrix(0.12345679012345678,0,0,0.12345679012345678,110.98765432098764,0)" xlink:href="#P"/><use transform="matrix(0.12345679012345678,0,0,0.12345679012345678,123.33333333333333,0)" xlink:href="#aa"/><use transform="matrix(0.12345679012345678,0,0,0.12345679012345678,133.0864197530864,0)" xlink:href="#ab"/><use transform="matrix(0.12345679012345678,0,0,0.12345679012345678,155.30864197530863,0)" xlink:href="#O"/></g><path fill="#333" d="M143 4C61 4 22-44 18-125c-5-107 100-154 193-111 17 8 29 25 37 43l-32 9c-13-25-37-40-76-40-61 0-88 39-88 99 0 61 29 100 91 101 35 0 62-11 79-27v-45h-74v-28h105v86C228-13 192 4 143 4" id="ac"/><path fill="#333" d="M85-194c31 0 48 13 60 33l-1-100h32l1 261h-30c-2-10 0-23-3-31C134-8 116 4 85 4 32 4 16-35 15-94c0-66 23-100 70-100zm9 24c-40 0-46 34-46 75 0 40 6 74 45 74 42 0 51-32 51-76 0-42-9-74-50-73" id="ad"/><g id="d"><use transform="matrix(0.12345679012345678,0,0,0.12345679012345678,0,0)" xlink:href="#ac"/><use transform="matrix(0.12345679012345678,0,0,0.12345679012345678,34.5679012345679,0)" xlink:href="#N"/><use transform="matrix(0.12345679012345678,0,0,0.12345679012345678,59.25925925925925,0)" xlink:href="#Y"/><use transform="matrix(0.12345679012345678,0,0,0.12345679012345678,83.9506172839506,0)" xlink:href="#T"/><use transform="matrix(0.12345679012345678,0,0,0.12345679012345678,98.64197530864196,0)" xlink:href="#ad"/><use transform="matrix(0.12345679012345678,0,0,0.12345679012345678,123.33333333333331,0)" xlink:href="#T"/><use transform="matrix(0.12345679012345678,0,0,0.12345679012345678,138.02469135802468,0)" xlink:href="#Y"/><use transform="matrix(0.12345679012345678,0,0,0.12345679012345678,162.71604938271605,0)" xlink:href="#aa"/><use transform="matrix(0.12345679012345678,0,0,0.12345679012345678,172.46913580246914,0)" xlink:href="#Z"/><use transform="matrix(0.12345679012345678,0,0,0.12345679012345678,182.22222222222223,0)" xlink:href="#O"/></g><path fill="#fff" d="M85-194c31 0 48 13 60 33l-1-100h32l1 261h-30c-2-10 0-23-3-31C134-8 116 4 85 4 32 4 16-35 15-94c0-66 23-100 70-100zm9 24c-40 0-46 34-46 75 0 40 6 74 45 74 42 0 51-32 51-76 0-42-9-74-50-73" id="ae"/><path fill="#fff" d="M141-36C126-15 110 5 73 4 37 3 15-17 15-53c-1-64 63-63 125-63 3-35-9-54-41-54-24 1-41 7-42 31l-33-3c5-37 33-52 76-52 45 0 72 20 72 64v82c-1 20 7 32 28 27v20c-31 9-61-2-59-35zM48-53c0 20 12 33 32 33 41-3 63-29 60-74-43 2-92-5-92 41" id="af"/><path fill="#fff" d="M59-47c-2 24 18 29 38 22v24C64 9 27 4 27-40v-127H5v-23h24l9-43h21v43h35v23H59v120" id="ag"/><g id="e"><use transform="matrix(0.06172839506172839,0,0,0.06172839506172839,0,0)" xlink:href="#ae"/><use transform="matrix(0.06172839506172839,0,0,0.06172839506172839,12.345679012345679,0)" xlink:href="#af"/><use transform="matrix(0.06172839506172839,0,0,0.06172839506172839,24.691358024691358,0)" xlink:href="#ag"/><use transform="matrix(0.06172839506172839,0,0,0.06172839506172839,30.864197530864196,0)" xlink:href="#af"/></g><path fill="#fff" d="M24 0v-261h32V0H24" id="ah"/><path fill="#fff" d="M143 0L79-87 56-68V0H24v-261h32v163l83-92h37l-77 82L181 0h-38" id="ai"/><path fill="#fff" d="M100-194c63 0 86 42 84 106H49c0 40 14 67 53 68 26 1 43-12 49-29l28 8c-11 28-37 45-77 45C44 4 14-33 15-96c1-61 26-98 85-98zm52 81c6-60-76-77-97-28-3 7-6 17-6 28h103" id="aj"/><g id="f"><use transform="matrix(0.06172839506172839,0,0,0.06172839506172839,0,0)" xlink:href="#ah"/><use transform="matrix(0.06172839506172839,0,0,0.06172839506172839,4.876543209876543,0)" xlink:href="#af"/><use transform="matrix(0.06172839506172839,0,0,0.06172839506172839,17.22222222222222,0)" xlink:href="#ai"/><use transform="matrix(0.06172839506172839,0,0,0.06172839506172839,28.333333333333332,0)" xlink:href="#aj"/></g><path fill="#fff" d="M212-179c-10-28-35-45-73-45-59 0-87 40-87 99 0 60 29 101 89 101 43 0 62-24 78-52l27 14C228-24 195 4 139 4 59 4 22-46 18-125c-6-104 99-153 187-111 19 9 31 26 39 46" id="ak"/><path fill="#fff" d="M84 4C-5 8 30-112 23-190h32v120c0 31 7 50 39 49 72-2 45-101 50-169h31l1 190h-30c-1-10 1-25-2-33-11 22-28 36-60 37" id="al"/><path fill="#fff" d="M135-143c-3-34-86-38-87 0 15 53 115 12 119 90S17 21 10-45l28-5c4 36 97 45 98 0-10-56-113-15-118-90-4-57 82-63 122-42 12 7 21 19 24 35" id="am"/><path fill="#fff" d="M100-194c62-1 85 37 85 99 1 63-27 99-86 99S16-35 15-95c0-66 28-99 85-99zM99-20c44 1 53-31 53-75 0-43-8-75-51-75s-53 32-53 75 10 74 51 75" id="an"/><path fill="#fff" d="M210-169c-67 3-38 105-44 169h-31v-121c0-29-5-50-35-48C34-165 62-65 56 0H25l-1-190h30c1 10-1 24 2 32 10-44 99-50 107 0 11-21 27-35 58-36 85-2 47 119 55 194h-31v-121c0-29-5-49-35-48" id="ao"/><path fill="#fff" d="M114-163C36-179 61-72 57 0H25l-1-190h30c1 12-1 29 2 39 6-27 23-49 58-41v29" id="ap"/><g id="g"><use transform="matrix(0.06172839506172839,0,0,0.06172839506172839,0,0)" xlink:href="#ak"/><use transform="matrix(0.06172839506172839,0,0,0.06172839506172839,15.987654320987653,0)" xlink:href="#al"/><use transform="matrix(0.06172839506172839,0,0,0.06172839506172839,28.333333333333332,0)" xlink:href="#am"/><use transform="matrix(0.06172839506172839,0,0,0.06172839506172839,39.44444444444444,0)" xlink:href="#ag"/><use transform="matrix(0.06172839506172839,0,0,0.06172839506172839,45.617283950617285,0)" xlink:href="#an"/><use transform="matrix(0.06172839506172839,0,0,0.06172839506172839,57.96296296296296,0)" xlink:href="#ao"/><use transform="matrix(0.06172839506172839,0,0,0.06172839506172839,76.41975308641975,0)" xlink:href="#aj"/><use transform="matrix(0.06172839506172839,0,0,0.06172839506172839,88.76543209876543,0)" xlink:href="#ap"/></g><path fill="#fff" d="M153-248C145-148 188 4 80 4 36 3 13-21 6-62l32-5c4 25 16 42 43 43 27 0 39-20 39-49v-147H72v-28h81" id="aq"/><path fill="#fff" d="M117-194c89-4 53 116 60 194h-32v-121c0-31-8-49-39-48C34-167 62-67 57 0H25l-1-190h30c1 10-1 24 2 32 11-22 29-35 61-36" id="ar"/><path fill="#fff" d="M179-190L93 31C79 59 56 82 12 73V49c39 6 53-20 64-50L1-190h34L92-34l54-156h33" id="as"/><g id="h"><use transform="matrix(0.06172839506172839,0,0,0.06172839506172839,0,0)" xlink:href="#aq"/><use transform="matrix(0.06172839506172839,0,0,0.06172839506172839,11.11111111111111,0)" xlink:href="#an"/><use transform="matrix(0.06172839506172839,0,0,0.06172839506172839,23.45679012345679,0)" xlink:href="#al"/><use transform="matrix(0.06172839506172839,0,0,0.06172839506172839,35.80246913580247,0)" xlink:href="#ap"/><use transform="matrix(0.06172839506172839,0,0,0.06172839506172839,43.148148148148145,0)" xlink:href="#ar"/><use transform="matrix(0.06172839506172839,0,0,0.06172839506172839,55.49382716049382,0)" xlink:href="#aj"/><use transform="matrix(0.06172839506172839,0,0,0.06172839506172839,67.8395061728395,0)" xlink:href="#as"/></g><path fill="#fff" d="M205 0l-28-72H64L36 0H1l101-248h38L239 0h-34zm-38-99l-47-123c-12 45-31 82-46 123h93" id="at"/><path fill="#fff" d="M24-231v-30h32v30H24zM24 0v-190h32V0H24" id="au"/><path fill="#fff" d="M96-169c-40 0-48 33-48 73s9 75 48 75c24 0 41-14 43-38l32 2c-6 37-31 61-74 61-59 0-76-41-82-99-10-93 101-131 147-64 4 7 5 14 7 22l-32 3c-4-21-16-35-41-35" id="av"/><g id="i"><use transform="matrix(0.06172839506172839,0,0,0.06172839506172839,0,0)" xlink:href="#at"/><use transform="matrix(0.06172839506172839,0,0,0.06172839506172839,14.814814814814813,0)" xlink:href="#ar"/><use transform="matrix(0.06172839506172839,0,0,0.06172839506172839,27.160493827160494,0)" xlink:href="#af"/><use transform="matrix(0.06172839506172839,0,0,0.06172839506172839,39.50617283950617,0)" xlink:href="#ah"/><use transform="matrix(0.06172839506172839,0,0,0.06172839506172839,44.382716049382715,0)" xlink:href="#as"/><use transform="matrix(0.06172839506172839,0,0,0.06172839506172839,55.49382716049382,0)" xlink:href="#ag"/><use transform="matrix(0.06172839506172839,0,0,0.06172839506172839,61.666666666666664,0)" xlink:href="#au"/><use transform="matrix(0.06172839506172839,0,0,0.06172839506172839,66.5432098765432,0)" xlink:href="#av"/><use transform="matrix(0.06172839506172839,0,0,0.06172839506172839,77.65432098765432,0)" xlink:href="#am"/></g><path fill="#0c7cba" d="M16-127c37-31 93-2 135 6 18-1 32-8 43-16v26c-50 42-130-35-178 9v-25" id="aw"/><use transform="matrix(0.049382716049382706,0,0,0.049382716049382706,0,0)" xlink:href="#aw" id="j"/><path fill="#0c7cba" d="M110-160c48 1 74 30 74 79 0 53-28 85-80 85-65 0-83-55-86-122-5-90 50-162 133-122 14 7 22 21 27 39l-31 6c-5-40-67-38-82-6-9 19-15 44-15 74 11-20 30-34 60-33zm-7 138c34 0 49-23 49-58s-16-56-50-56c-29 0-50 16-49 49 1 36 15 65 50 65" id="ax"/><path fill="#0c7cba" d="M101-251c68 0 85 55 85 127S166 4 100 4C33 4 14-52 14-124c0-73 17-127 87-127zm-1 229c47 0 54-49 54-102s-4-102-53-102c-51 0-55 48-55 102 0 53 5 102 54 102" id="ay"/><g id="k"><use transform="matrix(0.049382716049382706,0,0,0.049382716049382706,0,0)" xlink:href="#ax"/><use transform="matrix(0.049382716049382706,0,0,0.049382716049382706,9.87654320987654,0)" xlink:href="#ay"/></g><path fill="#0c7cba" d="M210-169c-67 3-38 105-44 169h-31v-121c0-29-5-50-35-48C34-165 62-65 56 0H25l-1-190h30c1 10-1 24 2 32 10-44 99-50 107 0 11-21 27-35 58-36 85-2 47 119 55 194h-31v-121c0-29-5-49-35-48" id="az"/><path fill="#0c7cba" d="M24-231v-30h32v30H24zM24 0v-190h32V0H24" id="aA"/><path fill="#0c7cba" d="M117-194c89-4 53 116 60 194h-32v-121c0-31-8-49-39-48C34-167 62-67 57 0H25l-1-190h30c1 10-1 24 2 32 11-22 29-35 61-36" id="aB"/><path fill="#0c7cba" d="M84 4C-5 8 30-112 23-190h32v120c0 31 7 50 39 49 72-2 45-101 50-169h31l1 190h-30c-1-10 1-25-2-33-11 22-28 36-60 37" id="aC"/><path fill="#0c7cba" d="M59-47c-2 24 18 29 38 22v24C64 9 27 4 27-40v-127H5v-23h24l9-43h21v43h35v23H59v120" id="aD"/><path fill="#0c7cba" d="M100-194c63 0 86 42 84 106H49c0 40 14 67 53 68 26 1 43-12 49-29l28 8c-11 28-37 45-77 45C44 4 14-33 15-96c1-61 26-98 85-98zm52 81c6-60-76-77-97-28-3 7-6 17-6 28h103" id="aE"/><path fill="#0c7cba" d="M135-143c-3-34-86-38-87 0 15 53 115 12 119 90S17 21 10-45l28-5c4 36 97 45 98 0-10-56-113-15-118-90-4-57 82-63 122-42 12 7 21 19 24 35" id="aF"/><g id="l"><use transform="matrix(0.049382716049382706,0,0,0.049382716049382706,0,0)" xlink:href="#az"/><use transform="matrix(0.049382716049382706,0,0,0.049382716049382706,14.765432098765428,0)" xlink:href="#aA"/><use transform="matrix(0.049382716049382706,0,0,0.049382716049382706,18.66666666666666,0)" xlink:href="#aB"/><use transform="matrix(0.049382716049382706,0,0,0.049382716049382706,28.543209876543205,0)" xlink:href="#aC"/><use transform="matrix(0.049382716049382706,0,0,0.049382716049382706,38.419753086419746,0)" xlink:href="#aD"/><use transform="matrix(0.049382716049382706,0,0,0.049382716049382706,43.35802469135802,0)" xlink:href="#aE"/><use transform="matrix(0.049382716049382706,0,0,0.049382716049382706,53.234567901234556,0)" xlink:href="#aF"/></g><path fill="#0c7cba" d="M198-261c85 0 136 45 136 128 0 61-22 111-78 115-29 2-39-18-37-44-12 23-32 44-66 44-41 0-58-28-58-68 0-60 30-105 88-108 29-1 43 15 54 32l7-28h28c-9 45-23 84-27 134-1 11 6 17 14 16 39-4 51-48 51-92 0-69-42-107-112-107-93 0-145 59-145 153C53-15 94 26 168 27c43 0 78-13 106-28l9 19c-30 18-67 32-115 32C79 50 28-1 28-86c0-107 62-175 170-175zM158-41c46 0 70-43 70-90 0-26-17-40-43-40-44 0-59 41-61 85-1 26 9 45 34 45" id="aG"/><path fill="#0c7cba" d="M101-251c82-7 93 87 43 132L82-64C71-53 59-42 53-27h129V0H18c2-99 128-94 128-182 0-28-16-43-45-43s-46 15-49 41l-32-3c6-41 34-60 81-64" id="aH"/><path fill="#0c7cba" d="M143 4C61 4 22-44 18-125c-5-107 100-154 193-111 17 8 29 25 37 43l-32 9c-13-25-37-40-76-40-61 0-88 39-88 99 0 61 29 100 91 101 35 0 62-11 79-27v-45h-74v-28h105v86C228-13 192 4 143 4" id="aI"/><path fill="#0c7cba" d="M160-131c35 5 61 23 61 61C221 17 115-2 30 0v-248c76 3 177-17 177 60 0 33-19 50-47 57zm-97-11c50-1 110 9 110-42 0-47-63-36-110-37v79zm0 115c55-2 124 14 124-45 0-56-70-42-124-44v89" id="aJ"/><g id="m"><use transform="matrix(0.049382716049382706,0,0,0.049382716049382706,0,0)" xlink:href="#aG"/><use transform="matrix(0.049382716049382706,0,0,0.049382716049382706,18.024691358024686,0)" xlink:href="#aH"/><use transform="matrix(0.049382716049382706,0,0,0.049382716049382706,27.90123456790123,0)" xlink:href="#ay"/><use transform="matrix(0.049382716049382706,0,0,0.049382716049382706,37.77777777777777,0)" xlink:href="#ay"/><use transform="matrix(0.049382716049382706,0,0,0.049382716049382706,47.654320987654316,0)" xlink:href="#aI"/><use transform="matrix(0.049382716049382706,0,0,0.049382716049382706,61.48148148148147,0)" xlink:href="#aJ"/></g><path fill="#0c7cba" d="M115-194c55 1 70 41 70 98S169 2 115 4C84 4 66-9 55-30l1 105H24l-1-265h31l2 30c10-21 28-34 59-34zm-8 174c40 0 45-34 45-75s-6-73-45-74c-42 0-51 32-51 76 0 43 10 73 51 73" id="aK"/><path fill="#0c7cba" d="M114-163C36-179 61-72 57 0H25l-1-190h30c1 12-1 29 2 39 6-27 23-49 58-41v29" id="aL"/><g id="n"><use transform="matrix(0.049382716049382706,0,0,0.049382716049382706,0,0)" xlink:href="#aK"/><use transform="matrix(0.049382716049382706,0,0,0.049382716049382706,9.87654320987654,0)" xlink:href="#aE"/><use transform="matrix(0.049382716049382706,0,0,0.049382716049382706,19.75308641975308,0)" xlink:href="#aL"/></g><path fill="#0c7cba" d="M106-169C34-169 62-67 57 0H25v-261h32l-1 103c12-21 28-36 61-36 89 0 53 116 60 194h-32v-121c2-32-8-49-39-48" id="aM"/><path fill="#0c7cba" d="M100-194c62-1 85 37 85 99 1 63-27 99-86 99S16-35 15-95c0-66 28-99 85-99zM99-20c44 1 53-31 53-75 0-43-8-75-51-75s-53 32-53 75 10 74 51 75" id="aN"/><g id="o"><use transform="matrix(0.049382716049382706,0,0,0.049382716049382706,0,0)" xlink:href="#aM"/><use transform="matrix(0.049382716049382706,0,0,0.049382716049382706,9.87654320987654,0)" xlink:href="#aN"/><use transform="matrix(0.049382716049382706,0,0,0.049382716049382706,19.75308641975308,0)" xlink:href="#aC"/><use transform="matrix(0.049382716049382706,0,0,0.049382716049382706,29.629629629629623,0)" xlink:href="#aL"/></g><path fill="#333" d="M160-131c35 5 61 23 61 61C221 17 115-2 30 0v-248c76 3 177-17 177 60 0 33-19 50-47 57zm-97-11c50-1 110 9 110-42 0-47-63-36-110-37v79zm0 115c55-2 124 14 124-45 0-56-70-42-124-44v89" id="aO"/><path fill="#333" d="M106-169C34-169 62-67 57 0H25v-261h32l-1 103c12-21 28-36 61-36 89 0 53 116 60 194h-32v-121c2-32-8-49-39-48" id="aP"/><g id="p"><use transform="matrix(0.049382716049382706,0,0,0.049382716049382706,0,0)" xlink:href="#aO"/><use transform="matrix(0.049382716049382706,0,0,0.049382716049382706,11.85185185185185,0)" xlink:href="#Y"/><use transform="matrix(0.049382716049382706,0,0,0.049382716049382706,21.728395061728392,0)" xlink:href="#P"/><use transform="matrix(0.049382716049382706,0,0,0.049382716049382706,26.666666666666668,0)" xlink:href="#ab"/><use transform="matrix(0.049382716049382706,0,0,0.049382716049382706,35.55555555555555,0)" xlink:href="#aP"/></g><path fill="#333" d="M30-248c118-7 216 8 213 122C240-48 200 0 122 0H30v-248zM63-27c89 8 146-16 146-99s-60-101-146-95v194" id="aQ"/><g id="q"><use transform="matrix(0.049382716049382706,0,0,0.049382716049382706,0,0)" xlink:href="#aQ"/><use transform="matrix(0.049382716049382706,0,0,0.049382716049382706,12.790123456790122,0)" xlink:href="#Y"/><use transform="matrix(0.049382716049382706,0,0,0.049382716049382706,22.666666666666664,0)" xlink:href="#P"/><use transform="matrix(0.049382716049382706,0,0,0.049382716049382706,27.60493827160494,0)" xlink:href="#Y"/></g><path fill="#333" d="M185-189c-5-48-123-54-124 2 14 75 158 14 163 119 3 78-121 87-175 55-17-10-28-26-33-46l33-7c5 56 141 63 141-1 0-78-155-14-162-118-5-82 145-84 179-34 5 7 8 16 11 25" id="aR"/><path fill="#333" d="M177-190C167-65 218 103 67 71c-23-6-38-20-44-43l32-5c15 47 100 32 89-28v-30C133-14 115 1 83 1 29 1 15-40 15-95c0-56 16-97 71-98 29-1 48 16 59 35 1-10 0-23 2-32h30zM94-22c36 0 50-32 50-73 0-42-14-75-50-75-39 0-46 34-46 75s6 73 46 73" id="aS"/><g id="r"><use transform="matrix(0.049382716049382706,0,0,0.049382716049382706,0,0)" xlink:href="#aR"/><use transform="matrix(0.049382716049382706,0,0,0.049382716049382706,11.85185185185185,0)" xlink:href="#P"/><use transform="matrix(0.049382716049382706,0,0,0.049382716049382706,16.79012345679012,0)" xlink:href="#T"/><use transform="matrix(0.049382716049382706,0,0,0.049382716049382706,22.66666666666666,0)" xlink:href="#S"/><use transform="matrix(0.049382716049382706,0,0,0.049382716049382706,32.5432098765432,0)" xlink:href="#Y"/><use transform="matrix(0.049382716049382706,0,0,0.049382716049382706,42.419753086419746,0)" xlink:href="#R"/><use transform="matrix(0.049382716049382706,0,0,0.049382716049382706,57.185185185185176,0)" xlink:href="#aa"/><use transform="matrix(0.049382716049382706,0,0,0.049382716049382706,61.08641975308641,0)" xlink:href="#V"/><use transform="matrix(0.049382716049382706,0,0,0.049382716049382706,70.96296296296295,0)" xlink:href="#aS"/></g><g id="s"><use transform="matrix(0.049382716049382706,0,0,0.049382716049382706,0,0)" xlink:href="#aQ"/><use transform="matrix(0.049382716049382706,0,0,0.049382716049382706,12.790123456790122,0)" xlink:href="#Y"/><use transform="matrix(0.049382716049382706,0,0,0.049382716049382706,22.666666666666664,0)" xlink:href="#P"/><use transform="matrix(0.049382716049382706,0,0,0.049382716049382706,27.60493827160494,0)" xlink:href="#Y"/></g><path fill="#333" d="M234-2c-28 10-62 0-77-18C117 19 8 12 13-65c3-43 29-61 60-76-25-40-17-114 47-108 35 3 59 15 59 50 0 44-40 53-71 69 14 26 32 50 51 72 14-21 24-43 30-72l26 8c-9 33-21 57-38 82 13 13 33 22 57 15v23zM97-151c25-10 52-18 56-48-1-18-13-29-33-29-42 0-39 50-23 77zM42-66c-3 51 71 58 98 28-20-24-41-51-56-80-23 10-40 24-42 52" id="aT"/><use transform="matrix(0.049382716049382706,0,0,0.049382716049382706,0,0)" xlink:href="#aT" id="t"/><path fill="#333" d="M233-177c-1 41-23 64-60 70L243 0h-38l-65-103H63V0H30v-248c88 3 205-21 203 71zM63-129c60-2 137 13 137-47 0-61-80-42-137-45v92" id="aU"/><path fill="#333" d="M145-31C134-9 116 4 85 4 32 4 16-35 15-94c0-59 17-99 70-100 32-1 48 14 60 33 0-11-1-24 2-32h30l-1 268h-32zM93-21c41 0 51-33 51-76s-8-73-50-73c-40 0-46 35-46 75s5 74 45 74" id="aV"/><g id="u"><use transform="matrix(0.049382716049382706,0,0,0.049382716049382706,0,0)" xlink:href="#aU"/><use transform="matrix(0.049382716049382706,0,0,0.049382716049382706,12.790123456790122,0)" xlink:href="#S"/><use transform="matrix(0.049382716049382706,0,0,0.049382716049382706,22.666666666666664,0)" xlink:href="#aV"/><use transform="matrix(0.049382716049382706,0,0,0.049382716049382706,32.5432098765432,0)" xlink:href="#N"/><use transform="matrix(0.049382716049382706,0,0,0.049382716049382706,42.419753086419746,0)" xlink:href="#S"/><use transform="matrix(0.049382716049382706,0,0,0.049382716049382706,52.29629629629628,0)" xlink:href="#O"/><use transform="matrix(0.049382716049382706,0,0,0.049382716049382706,61.185185185185176,0)" xlink:href="#P"/><use transform="matrix(0.049382716049382706,0,0,0.049382716049382706,66.12345679012344,0)" xlink:href="#O"/></g><path fill="#333" d="M87 75C49 33 22-17 22-94c0-76 28-126 65-167h31c-38 41-64 92-64 168S80 34 118 75H87" id="aW"/><path fill="#333" d="M194 0L95-120 63-95V0H30v-248h33v124l119-124h40L117-140 236 0h-42" id="aX"/><path fill="#333" d="M68-38c1 34 0 65-14 84H32c9-13 17-26 17-46H33v-38h35" id="aY"/><g id="v"><use transform="matrix(0.049382716049382706,0,0,0.049382716049382706,0,0)" xlink:href="#aW"/><use transform="matrix(0.049382716049382706,0,0,0.049382716049382706,5.876543209876542,0)" xlink:href="#aR"/><use transform="matrix(0.049382716049382706,0,0,0.049382716049382706,17.728395061728392,0)" xlink:href="#aQ"/><use transform="matrix(0.049382716049382706,0,0,0.049382716049382706,30.518518518518512,0)" xlink:href="#aX"/><use transform="matrix(0.049382716049382706,0,0,0.049382716049382706,42.37037037037036,0)" xlink:href="#aY"/></g><path fill="#333" d="M30-248c87 1 191-15 191 75 0 78-77 80-158 76V0H30v-248zm33 125c57 0 124 11 124-50 0-59-68-47-124-48v98" id="aZ"/><path fill="#333" d="M33 0v-248h34V0H33" id="ba"/><path fill="#333" d="M33-261c38 41 65 92 65 168S71 34 33 75H2C39 34 66-17 66-93S39-220 2-261h31" id="bb"/><g id="w"><use transform="matrix(0.049382716049382706,0,0,0.049382716049382706,0,0)" xlink:href="#X"/><use transform="matrix(0.049382716049382706,0,0,0.049382716049382706,11.85185185185185,0)" xlink:href="#aZ"/><use transform="matrix(0.049382716049382706,0,0,0.049382716049382706,23.7037037037037,0)" xlink:href="#ba"/><use transform="matrix(0.049382716049382706,0,0,0.049382716049382706,28.64197530864197,0)" xlink:href="#bb"/></g><path fill="#333" d="M416-208H162L90-6c-1 4-3 6-8 6H14C9 0 7-3 8-8l218-607c3-8 6-15 7-41 0-3 2-5 5-5h98c4 0 5 1 6 5L577-7c2 4 1 7-4 7h-76c-4 0-6-2-8-5zm-231-77h208c-23-65-84-242-105-308-17 64-65 198-103 308" id="bc"/><path fill="#333" d="M451-27C262 61 35-3 35-239c0-166 143-285 335-251v-221c0-5 2-6 6-6h72c5 0 6 2 6 5 1 225-3 456 2 678 0 4-1 5-5 7zm-81-49v-338c-134-40-254 46-250 171C125-80 243-39 370-76" id="bd"/><path fill="#333" d="M265-496c141 0 228 108 228 252 0 152-94 254-228 254C104 10 35-120 35-243c0-141 90-253 230-253zm-4 72c-84 0-142 72-142 179 0 102 53 183 148 183 71 0 141-56 141-180 0-93-43-182-147-182" id="be"/><path fill="#333" d="M77-717h70c5 0 7 0 7 6v235c170-67 342 39 336 214C482-30 279 53 76-10c-4-1-6-5-6-9v-692c0-5 2-6 7-6zm328 462c0-102-60-168-156-168-43 0-70 7-95 17v336c132 31 251-31 251-185" id="bf"/><path fill="#333" d="M440-237c-86 8-224 2-321 4-1 95 54 170 167 170 44 0 86-8 125-27 3-2 5 0 5 4-2 21 5 54-5 67-34 17-78 29-141 29C97 10 35-117 35-239c0-140 82-257 221-257 163 0 209 131 191 253 0 3-3 6-7 6zm-134-58c58-5 64 10 65-13 0-36-24-119-118-119-83 0-124 65-133 132h186" id="bg"/><g id="x"><use transform="matrix(0.024444444444444432,0,0,0.024444444444444432,0,0)" xlink:href="#bc"/><use transform="matrix(0.024444444444444432,0,0,0.024444444444444432,14.39777777777777,0)" xlink:href="#bd"/><use transform="matrix(0.024444444444444432,0,0,0.024444444444444432,27.206666666666653,0)" xlink:href="#be"/><use transform="matrix(0.024444444444444432,0,0,0.024444444444444432,40.08888888888887,0)" xlink:href="#bf"/><use transform="matrix(0.024444444444444432,0,0,0.024444444444444432,53.117777777777754,0)" xlink:href="#bg"/></g><path fill="#333" d="M486-70L475-6c-1 5-3 6-7 6H88c-7 0-8-2-8-8v-646c0-5 2-7 7-7h365c5 0 6 1 7 6l8 63c1 4 0 7-5 7H163v209h270c4 0 6 2 6 6v64c0 5-3 6-6 6H163v224h318c5 0 6 2 5 6" id="bh"/><path fill="#333" d="M158-243L3-478c-3-4-1-8 3-8h82c6 0 8 2 10 6 40 62 77 127 118 188l122-189c2-4 4-5 8-5h74c4 0 6 3 3 7-39 58-115 172-159 232C304-187 395-55 430-7c3 3 1 7-4 7h-84c-5 0-8-2-10-6-42-64-81-129-124-192L84-5c-2 4-3 5-8 5H2c-5 0-7-3-4-7 46-66 114-171 160-236" id="bi"/><path fill="#333" d="M256-496c148 0 234 102 234 236C490-61 327 28 153 6v200c0 4 0 6-5 7-23 2-69 7-73 8-4 0-5-1-5-6v-671c35-13 101-40 186-40zm-10 73c-35 0-65 6-93 16v339c131 25 252-33 252-187 0-102-58-168-159-168" id="bj"/><path fill="#333" d="M70-486h64c6 0 7 2 9 7 4 12 7 47 8 69 35-48 97-86 161-86 5 0 7 1 7 7v72c0 5-1 6-7 6-69-1-132 33-157 73L154-6c0 5-2 6-6 6H77c-5 0-7-2-7-7-2-155 5-327-5-473 0-4 1-6 5-6" id="bk"/><path fill="#333" d="M70-8v-471c0-5 2-7 7-7h71c4 0 6 1 6 6V-7c0 5-1 7-7 7H78c-5 0-8-2-8-8zm42-574c-31 0-50-21-50-51s21-51 51-51c32 0 50 22 50 51 0 30-20 51-51 51" id="bl"/><path fill="#333" d="M134-486c18 5 10 28 15 56 44-44 95-66 153-66 71 0 163 35 163 193V-7c0 5-2 7-7 7h-70c-5 0-7-2-7-8v-287c0-76-33-127-103-127-51 0-93 23-125 61V-7c0 5-1 7-6 7H76c-4 0-6-2-6-7-2-155 4-326-4-473 0-4 1-6 6-6h62" id="bm"/><path fill="#333" d="M395-75v62c0 4 0 6-4 7-33 13-72 16-109 16C119 10 35-106 35-241c0-178 167-297 356-242 9 17 2 49 4 72 0 5-3 5-7 4-129-48-272 19-268 163C124-87 258-37 389-79c5-1 6 1 6 4" id="bn"/><g id="y"><use transform="matrix(0.024444444444444432,0,0,0.024444444444444432,0,0)" xlink:href="#bh"/><use transform="matrix(0.024444444444444432,0,0,0.024444444444444432,13.297777777777767,0)" xlink:href="#bi"/><use transform="matrix(0.024444444444444432,0,0,0.024444444444444432,23.882222222222207,0)" xlink:href="#bj"/><use transform="matrix(0.024444444444444432,0,0,0.024444444444444432,36.91111111111109,0)" xlink:href="#bg"/><use transform="matrix(0.024444444444444432,0,0,0.024444444444444432,48.69333333333331,0)" xlink:href="#bk"/><use transform="matrix(0.024444444444444432,0,0,0.024444444444444432,56.637777777777735,0)" xlink:href="#bl"/><use transform="matrix(0.024444444444444432,0,0,0.024444444444444432,62.13777777777774,0)" xlink:href="#bg"/><use transform="matrix(0.024444444444444432,0,0,0.024444444444444432,73.91999999999996,0)" xlink:href="#bm"/><use transform="matrix(0.024444444444444432,0,0,0.024444444444444432,86.99777777777773,0)" xlink:href="#bn"/><use transform="matrix(0.024444444444444432,0,0,0.024444444444444432,97.2644444444444,0)" xlink:href="#bg"/></g><path fill="#333" d="M80-6v-647c0-4 1-7 5-7 32-1 98-3 165-3 177 0 255 100 255 212-1 179-157 238-342 222V-7c0 5-1 7-6 7H86c-4 0-6-2-6-6zm83-581v283c129 9 259-8 259-145 0-91-70-140-171-140-41 0-72 1-88 2" id="bo"/><path fill="#333" d="M217-5c-5 16-25 15-51 15-49 0-96-17-96-111v-610c0-5 2-6 7-6h70c5 0 6 2 6 6v603c0 48 26 52 60 45 3 0 4 2 4 6v52" id="bp"/><path fill="#333" d="M323-75v-157c-14-2-36-4-66-4-97 0-144 33-144 89 0 45 31 89 119 89 32 0 62-5 91-17zm81-233c0 91 1 191 0 275C258 41 36 32 31-147c-4-128 147-165 292-151 2-57-3-124-113-124-48 0-92 11-127 30-3 1-7 0-7-5 3-22-6-55 5-69 39-19 89-30 142-30 128 0 181 84 181 188" id="bq"/><path fill="#333" d="M279-65c-3 20 7 50-6 61C177 29 81 9 81-121v-293H13c-6-1-7-3-7-8v-57c0-5 2-7 7-7h68c1-37 5-106 9-128 1-4 3-6 7-7l68-11c4-1 6 0 6 4-3 35-6 93-6 142h106c4 0 6 2 6 7v59c0 4-2 6-6 6H165v281c-7 67 51 85 108 64 3-1 6-1 6 4" id="br"/><path fill="#333" d="M79-486c-13-159 53-266 200-234 5 1 5 4 5 8v59c0 4-2 6-6 5-74-15-114 3-116 117v45h96c4 0 6 2 6 5v60c0 5-2 6-6 7h-96V-7c0 4-1 7-6 7H85c-4 0-6-2-6-7v-407H14c-4 0-6-2-6-7v-59c0-4 2-6 6-6h65" id="bs"/><path fill="#333" d="M135-486c16 4 10 33 14 53 78-81 227-91 283 10 42-41 94-73 167-73 74 0 162 39 162 191V-6c0 4-2 6-7 6h-69c-5 0-7-2-7-7v-292c0-68-31-123-102-123-50 0-91 22-123 58 11 108 2 241 5 357 0 5-2 7-7 7h-70c-5 0-7-2-7-7v-295c0-76-35-120-100-120-47 0-83 18-121 56V-6c0 4-1 6-6 6H76c-5 0-6-2-6-7-2-154 4-327-4-473 0-4 1-6 6-6h63" id="bt"/><g id="z"><use transform="matrix(0.024444444444444432,0,0,0.024444444444444432,0,0)" xlink:href="#bo"/><use transform="matrix(0.024444444444444432,0,0,0.024444444444444432,13.151111111111101,0)" xlink:href="#bp"/><use transform="matrix(0.024444444444444432,0,0,0.024444444444444432,19.139999999999986,0)" xlink:href="#bq"/><use transform="matrix(0.024444444444444432,0,0,0.024444444444444432,30.726666666666645,0)" xlink:href="#br"/><use transform="matrix(0.024444444444444432,0,0,0.024444444444444432,37.962222222222195,0)" xlink:href="#bs"/><use transform="matrix(0.024444444444444432,0,0,0.024444444444444432,44.48888888888886,0)" xlink:href="#be"/><use transform="matrix(0.024444444444444432,0,0,0.024444444444444432,57.371111111111084,0)" xlink:href="#bk"/><use transform="matrix(0.024444444444444432,0,0,0.024444444444444432,65.31555555555552,0)" xlink:href="#bt"/></g><path fill="#7f0000" d="M30 0v-248h187v28H63v79h144v27H63v87h162V0H30" id="bu"/><path fill="#7f0000" d="M85-194c31 0 48 13 60 33l-1-100h32l1 261h-30c-2-10 0-23-3-31C134-8 116 4 85 4 32 4 16-35 15-94c0-66 23-100 70-100zm9 24c-40 0-46 34-46 75 0 40 6 74 45 74 42 0 51-32 51-76 0-42-9-74-50-73" id="bv"/><path fill="#7f0000" d="M177-190C167-65 218 103 67 71c-23-6-38-20-44-43l32-5c15 47 100 32 89-28v-30C133-14 115 1 83 1 29 1 15-40 15-95c0-56 16-97 71-98 29-1 48 16 59 35 1-10 0-23 2-32h30zM94-22c36 0 50-32 50-73 0-42-14-75-50-75-39 0-46 34-46 75s6 73 46 73" id="bw"/><path fill="#7f0000" d="M100-194c63 0 86 42 84 106H49c0 40 14 67 53 68 26 1 43-12 49-29l28 8c-11 28-37 45-77 45C44 4 14-33 15-96c1-61 26-98 85-98zm52 81c6-60-76-77-97-28-3 7-6 17-6 28h103" id="bx"/><g id="A"><use transform="matrix(0.06172839506172839,0,0,0.06172839506172839,0,0)" xlink:href="#bu"/><use transform="matrix(0.06172839506172839,0,0,0.06172839506172839,14.814814814814813,0)" xlink:href="#bv"/><use transform="matrix(0.06172839506172839,0,0,0.06172839506172839,27.160493827160494,0)" xlink:href="#bw"/><use transform="matrix(0.06172839506172839,0,0,0.06172839506172839,39.50617283950617,0)" xlink:href="#bx"/></g><path fill="#7f0000" d="M190 0L58-211 59 0H30v-248h39L202-35l-2-213h31V0h-41" id="by"/><path fill="#7f0000" d="M59-47c-2 24 18 29 38 22v24C64 9 27 4 27-40v-127H5v-23h24l9-43h21v43h35v23H59v120" id="bz"/><path fill="#7f0000" d="M206 0h-36l-40-164L89 0H53L-1-190h32L70-26l43-164h34l41 164 42-164h31" id="bA"/><path fill="#7f0000" d="M100-194c62-1 85 37 85 99 1 63-27 99-86 99S16-35 15-95c0-66 28-99 85-99zM99-20c44 1 53-31 53-75 0-43-8-75-51-75s-53 32-53 75 10 74 51 75" id="bB"/><path fill="#7f0000" d="M114-163C36-179 61-72 57 0H25l-1-190h30c1 12-1 29 2 39 6-27 23-49 58-41v29" id="bC"/><path fill="#7f0000" d="M143 0L79-87 56-68V0H24v-261h32v163l83-92h37l-77 82L181 0h-38" id="bD"/><g id="B"><use transform="matrix(0.06172839506172839,0,0,0.06172839506172839,0,0)" xlink:href="#by"/><use transform="matrix(0.06172839506172839,0,0,0.06172839506172839,15.987654320987653,0)" xlink:href="#bx"/><use transform="matrix(0.06172839506172839,0,0,0.06172839506172839,28.333333333333332,0)" xlink:href="#bz"/><use transform="matrix(0.06172839506172839,0,0,0.06172839506172839,34.50617283950617,0)" xlink:href="#bA"/><use transform="matrix(0.06172839506172839,0,0,0.06172839506172839,50.49382716049382,0)" xlink:href="#bB"/><use transform="matrix(0.06172839506172839,0,0,0.06172839506172839,62.8395061728395,0)" xlink:href="#bC"/><use transform="matrix(0.06172839506172839,0,0,0.06172839506172839,70.18518518518518,0)" xlink:href="#bD"/></g><path fill="#7f0000" d="M234-2c-28 10-62 0-77-18C117 19 8 12 13-65c3-43 29-61 60-76-25-40-17-114 47-108 35 3 59 15 59 50 0 44-40 53-71 69 14 26 32 50 51 72 14-21 24-43 30-72l26 8c-9 33-21 57-38 82 13 13 33 22 57 15v23zM97-151c25-10 52-18 56-48-1-18-13-29-33-29-42 0-39 50-23 77zM42-66c-3 51 71 58 98 28-20-24-41-51-56-80-23 10-40 24-42 52" id="bE"/><use transform="matrix(0.06172839506172839,0,0,0.06172839506172839,0,0)" xlink:href="#bE" id="C"/><path fill="#7f0000" d="M30-248c87 1 191-15 191 75 0 78-77 80-158 76V0H30v-248zm33 125c57 0 124 11 124-50 0-59-68-47-124-48v98" id="bF"/><path fill="#7f0000" d="M24-231v-30h32v30H24zM24 0v-190h32V0H24" id="bG"/><path fill="#7f0000" d="M115-194c55 1 70 41 70 98S169 2 115 4C84 4 66-9 55-30l1 105H24l-1-265h31l2 30c10-21 28-34 59-34zm-8 174c40 0 45-34 45-75s-6-73-45-74c-42 0-51 32-51 76 0 43 10 73 51 73" id="bH"/><path fill="#7f0000" d="M24 0v-261h32V0H24" id="bI"/><path fill="#7f0000" d="M117-194c89-4 53 116 60 194h-32v-121c0-31-8-49-39-48C34-167 62-67 57 0H25l-1-190h30c1 10-1 24 2 32 11-22 29-35 61-36" id="bJ"/><g id="D"><use transform="matrix(0.06172839506172839,0,0,0.06172839506172839,0,0)" xlink:href="#bF"/><use transform="matrix(0.06172839506172839,0,0,0.06172839506172839,14.814814814814813,0)" xlink:href="#bG"/><use transform="matrix(0.06172839506172839,0,0,0.06172839506172839,19.691358024691354,0)" xlink:href="#bH"/><use transform="matrix(0.06172839506172839,0,0,0.06172839506172839,32.03703703703703,0)" xlink:href="#bx"/><use transform="matrix(0.06172839506172839,0,0,0.06172839506172839,44.38271604938271,0)" xlink:href="#bI"/><use transform="matrix(0.06172839506172839,0,0,0.06172839506172839,49.25925925925925,0)" xlink:href="#bG"/><use transform="matrix(0.06172839506172839,0,0,0.06172839506172839,54.1358024691358,0)" xlink:href="#bJ"/><use transform="matrix(0.06172839506172839,0,0,0.06172839506172839,66.48148148148148,0)" xlink:href="#bx"/></g><path fill="#0c7cba" d="M27 0v-27h64v-190l-56 39v-29l58-41h29v221h61V0H27" id="bK"/><g id="E"><use transform="matrix(0.049382716049382706,0,0,0.049382716049382706,0,0)" xlink:href="#bK"/><use transform="matrix(0.049382716049382706,0,0,0.049382716049382706,9.87654320987654,0)" xlink:href="#ay"/><use transform="matrix(0.049382716049382706,0,0,0.049382716049382706,19.75308641975308,0)" xlink:href="#ay"/></g><g id="F"><use transform="matrix(0.049382716049382706,0,0,0.049382716049382706,0,0)" xlink:href="#az"/><use transform="matrix(0.049382716049382706,0,0,0.049382716049382706,14.765432098765428,0)" xlink:href="#aF"/></g><path fill="#0c7cba" d="M99-251c64 0 84 50 84 122C183-37 130 33 47-8c-14-7-20-23-25-40l30-5c6 39 69 39 84 7 9-19 16-44 16-74-10 22-31 35-62 35-49 0-73-33-73-83 0-54 28-83 82-83zm-1 141c31-1 51-18 51-49 0-36-14-67-51-67-34 0-49 23-49 58 0 34 15 58 49 58" id="bL"/><g id="G"><use transform="matrix(0.049382716049382706,0,0,0.049382716049382706,0,0)" xlink:href="#bL"/><use transform="matrix(0.049382716049382706,0,0,0.049382716049382706,9.87654320987654,0)" xlink:href="#ay"/></g><g id="H"><use transform="matrix(0.049382716049382706,0,0,0.049382716049382706,0,0)" xlink:href="#az"/><use transform="matrix(0.049382716049382706,0,0,0.049382716049382706,14.765432098765428,0)" xlink:href="#aA"/><use transform="matrix(0.049382716049382706,0,0,0.049382716049382706,18.66666666666666,0)" xlink:href="#aB"/><use transform="matrix(0.049382716049382706,0,0,0.049382716049382706,28.543209876543205,0)" xlink:href="#aC"/><use transform="matrix(0.049382716049382706,0,0,0.049382716049382706,38.419753086419746,0)" xlink:href="#aD"/><use transform="matrix(0.049382716049382706,0,0,0.049382716049382706,43.35802469135802,0)" xlink:href="#aE"/><use transform="matrix(0.049382716049382706,0,0,0.049382716049382706,53.234567901234556,0)" xlink:href="#aF"/></g><path fill="#0c7cba" d="M54-142c48-35 137-8 131 61C196 18 31 33 14-55l32-4c7 23 22 37 52 37 35-1 51-22 54-58 4-55-73-65-99-34H22l8-134h141v27H59" id="bM"/><g id="I"><use transform="matrix(0.049382716049382706,0,0,0.049382716049382706,0,0)" xlink:href="#bK"/><use transform="matrix(0.049382716049382706,0,0,0.049382716049382706,9.87654320987654,0)" xlink:href="#bM"/></g><path fill="#fff" d="M115-194c53 0 69 39 70 98 0 66-23 100-70 100C84 3 66-7 56-30L54 0H23l1-261h32v101c10-23 28-34 59-34zm-8 174c40 0 45-34 45-75 0-40-5-75-45-74-42 0-51 32-51 76 0 43 10 73 51 73" id="bN"/><g id="J"><use transform="matrix(0.06172839506172839,0,0,0.06172839506172839,0,0)" xlink:href="#at"/><use transform="matrix(0.06172839506172839,0,0,0.06172839506172839,14.814814814814813,0)" xlink:href="#ae"/><use transform="matrix(0.06172839506172839,0,0,0.06172839506172839,27.160493827160494,0)" xlink:href="#an"/><use transform="matrix(0.06172839506172839,0,0,0.06172839506172839,39.50617283950617,0)" xlink:href="#bN"/><use transform="matrix(0.06172839506172839,0,0,0.06172839506172839,51.85185185185185,0)" xlink:href="#aj"/></g><g id="K"><use transform="matrix(0.06172839506172839,0,0,0.06172839506172839,0,0)" xlink:href="#at"/><use transform="matrix(0.06172839506172839,0,0,0.06172839506172839,14.814814814814813,0)" xlink:href="#ar"/><use transform="matrix(0.06172839506172839,0,0,0.06172839506172839,27.160493827160494,0)" xlink:href="#af"/><use transform="matrix(0.06172839506172839,0,0,0.06172839506172839,39.50617283950617,0)" xlink:href="#ah"/><use transform="matrix(0.06172839506172839,0,0,0.06172839506172839,44.382716049382715,0)" xlink:href="#as"/><use transform="matrix(0.06172839506172839,0,0,0.06172839506172839,55.49382716049382,0)" xlink:href="#ag"/><use transform="matrix(0.06172839506172839,0,0,0.06172839506172839,61.666666666666664,0)" xlink:href="#au"/><use transform="matrix(0.06172839506172839,0,0,0.06172839506172839,66.5432098765432,0)" xlink:href="#av"/><use transform="matrix(0.06172839506172839,0,0,0.06172839506172839,77.65432098765432,0)" xlink:href="#am"/></g><path fill="#0c7cba" d="M155-56V0h-30v-56H8v-25l114-167h33v167h35v25h-35zm-30-156c-27 46-58 90-88 131h88v-131" id="bO"/><g id="L"><use transform="matrix(0.049382716049382706,0,0,0.049382716049382706,0,0)" xlink:href="#bO"/><use transform="matrix(0.049382716049382706,0,0,0.049382716049382706,9.87654320987654,0)" xlink:href="#bM"/></g></defs></g></svg>