<svg xmlns="http://www.w3.org/2000/svg" xmlns:xlink="http://www.w3.org/1999/xlink" xmlns:lucid="lucid" width="1554" height="828"><g transform="translate(2074 10.999999999999964)" lucid:page-tab-id="aM0yMzi0~MKf"><path d="M-2068.8 0H64v1200h-2132.8z" fill="#fff"/><path d="M-1936.7 15c0-3.3 2.7-6 6-6H-546c3.3 0 6 2.7 6 6v104.67c0 3.3-2.7 6-6 6h-1384.7c-3.3 0-6-2.7-6-6z" stroke="#000" stroke-opacity="0" stroke-width="3" fill="#fff" fill-opacity="0"/><use xlink:href="#a" transform="matrix(1,0,0,1,-1936.6942717717832,9.000000000000036) translate(0 68.46180555555556)"/><use xlink:href="#b" transform="matrix(1,0,0,1,-1936.6942717717832,9.000000000000036) translate(140.74074074074073 68.46180555555556)"/><use xlink:href="#c" transform="matrix(1,0,0,1,-1936.6942717717832,9.000000000000036) translate(375.0617283950617 68.46180555555556)"/><use xlink:href="#d" transform="matrix(1,0,0,1,-1936.6942717717832,9.000000000000036) translate(552.469135802469 68.46180555555556)"/><use xlink:href="#e" transform="matrix(1,0,0,1,-1936.6942717717832,9.000000000000036) translate(579.5061728395061 68.46180555555556)"/><use xlink:href="#f" transform="matrix(1,0,0,1,-1936.6942717717832,9.000000000000036) translate(825.0617283950617 68.46180555555556)"/><use xlink:href="#g" transform="matrix(1,0,0,1,-1936.6942717717832,9.000000000000036) translate(1140.617283950617 68.46180555555556)"/><path d="M-2037.18 14.33h61.37c11.2 0 16.8 5.65 16.8 16.86v58.9c0 11.2-5.6 16.86-16.82 16.86h-61.37c-11.2 0-16.8-5.65-16.8-16.86V31.2c0-11.22 5.6-16.87 16.82-16.87z" stroke="#000" stroke-opacity="0" stroke-width=".64" fill="#000b1d"/><path d="M-1980.1 84h-11.3c-1.04 0-1.9-.57-2.37-1.5l-12.26-28.62c0-.18-.1-.37-.28-.37-.3-.08-.58 0-.68.3l-7.7 18.24v.18c0 .37.3.65.67.65h8.36c.47 0 .94.37 1.13.84l3.7 8.16c.28.83 0 1.66-.76 2.03-.2.1-.38.1-.67.1h-30.5c-.75 0-1.4-.66-1.4-1.4 0-.2.08-.37.18-.56l19.38-46.3c.37-1.03 1.32-1.58 2.46-1.58h11.2c1.14 0 2.1.55 2.47 1.57l19.58 46.3c.28.75 0 1.5-.77 1.86-.2.1-.28.1-.47.1z" stroke="#000" stroke-opacity="0" stroke-width=".64" fill="#fa0f00"/><path d="M-1645.67 217.9c0-3.3 2.7-6 6-6h308c3.32 0 6 2.7 6 6V754c0 3.3-2.68 6-6 6h-308c-3.3 0-6-2.7-6-6z" stroke="#7f0000" stroke-width="3" fill="#fff"/><path d="M-1605.67 664.67c0-3.32 2.7-6 6-6h228c3.32 0 6 2.68 6 6v48c0 3.3-2.68 6-6 6h-228c-3.3 0-6-2.7-6-6z" stroke="#000" stroke-opacity="0" fill="#7f0000"/><use xlink:href="#h" transform="matrix(1,0,0,1,-1600.6666666666665,663.6666666666664) translate(69.96913580246914 30.27777777777778)"/><use xlink:href="#i" transform="matrix(1,0,0,1,-1600.6666666666665,663.6666666666664) translate(119.35185185185185 30.27777777777778)"/><path d="M-1605.67 504.33c0-3.3 2.7-6 6-6h228c3.32 0 6 2.7 6 6v51.34c0 3.3-2.68 6-6 6h-228c-3.3 0-6-2.7-6-6z" stroke="#000" stroke-opacity="0" fill="#7f0000"/><use xlink:href="#j" transform="matrix(1,0,0,1,-1600.6666666666665,503.3333333333332) translate(16.48148148148148 17.77777777777778)"/><use xlink:href="#k" transform="matrix(1,0,0,1,-1600.6666666666665,503.3333333333332) translate(117.4074074074074 17.77777777777778)"/><use xlink:href="#l" transform="matrix(1,0,0,1,-1600.6666666666665,503.3333333333332) translate(83.61111111111111 44.44444444444444)"/><path d="M-1605.67 344c0-3.3 2.7-6 6-6h228c3.32 0 6 2.7 6 6v51.33c0 3.32-2.68 6-6 6h-228c-3.3 0-6-2.68-6-6z" stroke="#5e5e5e" fill="#faf3f4"/><use xlink:href="#m" transform="matrix(1,0,0,1,-1600.6666666666665,342.99999999999994) translate(46.5432098765432 31.27777777777778)"/><path d="M-1205.67 247.9c0-3.32 2.7-6 6-6h228c3.32 0 6 2.68 6 6v51.32c0 3.32-2.68 6-6 6h-228c-3.3 0-6-2.68-6-6z" stroke="#000" stroke-opacity="0" fill="#7f0000"/><use xlink:href="#n" transform="matrix(1,0,0,1,-1200.6666666666665,246.88888888888934) translate(87.87037037037037 31.27777777777778)"/><path d="M-1659.05 173.9h38.76c7.1 0 10.63 3.67 10.63 10.93V223c0 7.25-3.54 10.9-10.62 10.9h-38.75c-7.08 0-10.62-3.65-10.62-10.9v-38.17c0-7.26 3.54-10.92 10.62-10.92z" stroke="#000" stroke-opacity="0" stroke-width=".64" fill="#000b1d"/><path d="M-1623 219.03h-7.13c-.66 0-1.2-.36-1.5-.96l-7.74-18.54c0-.12-.06-.24-.18-.24-.18-.07-.36 0-.42.17l-4.86 11.82v.1c0 .25.18.43.42.43h5.27c.3 0 .6.24.72.54l2.33 5.28c.18.54 0 1.08-.48 1.32-.12.06-.24.06-.42.06h-19.26c-.48 0-.9-.42-.9-.9 0-.12.06-.24.12-.36l12.23-30c.24-.66.84-1.02 1.56-1.02h7.07c.72 0 1.32.36 1.56 1.02l12.36 30c.17.48 0 .96-.5 1.2-.1.06-.17.06-.3.06z" stroke="#000" stroke-opacity="0" stroke-width=".64" fill="#fa0f00"/><path d="M-1921.67 660c15.02 0 27 4.82 27 10.5 0 5.7-11.98 10.52-27 10.52-15 0-27-4.82-27-10.5 0-5.7 12-10.52 27-10.52zm26.68 18c-3.28 5.98-13.17 8.42-26.67 8.42-13.5 0-23.1-2.44-26.67-8.42h-.33v11.38c0 4.53 12 9.64 27 9.64 15.02 0 27-5.4 27-9.93l-.32-11.1zm0 18c-3.55 5.98-13.17 8.42-26.67 8.42-13.5 0-23.38-2.44-26.67-8.42h-.33v26.42c0 4.47 12 9.58 27 9.58 15.02 0 27-5.4 27-9.94L-1895 696z" stroke="#000" stroke-opacity="0" stroke-width="3" fill-opacity=".6"/><path d="M-1894.5 696h272.45" stroke="#5e5e5e" fill="none"/><path d="M-1894.48 696.5h-.5v-.5l-.38.5h-2.63v-1h3.52z" fill="#5e5e5e"/><path d="M-1607.28 696l-14.27 4.64v-9.28z" stroke="#5e5e5e" fill="#5e5e5e"/><path d="M-1569.95 658.17l-.06-80.12" stroke="#5e5e5e" fill="none"/><path d="M-1569.45 658.67h-1v-.52h1z" fill="#5e5e5e"/><path d="M-1570.02 563.28l4.64 14.27h-9.27z" stroke="#5e5e5e" fill="#5e5e5e"/><path d="M-1563.67 589.33c0-3.3 2.7-6 6-6h128c3.32 0 6 2.7 6 6v51.34c0 3.3-2.68 6-6 6h-128c-3.3 0-6-2.7-6-6z" stroke="#000" stroke-opacity="0" fill="#fff" fill-opacity="0"/><use xlink:href="#o" transform="matrix(1,0,0,1,-1558.6666666666665,588.3333333333334) translate(0 20.97222222222222)"/><use xlink:href="#p" transform="matrix(1,0,0,1,-1558.6666666666665,588.3333333333334) translate(40.14814814814814 20.97222222222222)"/><use xlink:href="#q" transform="matrix(1,0,0,1,-1558.6666666666665,588.3333333333334) translate(55.45679012345678 20.97222222222222)"/><use xlink:href="#r" transform="matrix(1,0,0,1,-1558.6666666666665,588.3333333333334) translate(0 42.30555555555556)"/><use xlink:href="#s" transform="matrix(1,0,0,1,-1558.6666666666665,588.3333333333334) translate(67.0617283950617 42.30555555555556)"/><use xlink:href="#t" transform="matrix(1,0,0,1,-1558.6666666666665,588.3333333333334) translate(97.62962962962959 42.30555555555556)"/><path d="M-1580.17 497.83v-79.6" stroke="#5e5e5e" fill="none"/><path d="M-1579.67 498.33h-1v-.5h1z" fill="#5e5e5e"/><path d="M-1580.17 403.45l4.63 14.27h-9.27z" stroke="#5e5e5e" fill="#5e5e5e"/><path d="M-1565.67 403.33c0-3.3 2.7-6 6-6h228c3.32 0 6 2.7 6 6v83.34c0 3.3-2.68 6-6 6h-228c-3.3 0-6-2.7-6-6z" stroke="#000" stroke-opacity="0" fill="#fff" fill-opacity="0"/><use xlink:href="#u" transform="matrix(1,0,0,1,-1560.6666666666665,402.3333333333333) translate(0 14.222222222222221)"/><use xlink:href="#v" transform="matrix(1,0,0,1,-1560.6666666666665,402.3333333333333) translate(90.71604938271602 14.222222222222221)"/><use xlink:href="#w" transform="matrix(1,0,0,1,-1560.6666666666665,402.3333333333333) translate(130.86419753086415 14.222222222222221)"/><use xlink:href="#x" transform="matrix(1,0,0,1,-1560.6666666666665,402.3333333333333) translate(145.67901234567896 14.222222222222221)"/><use xlink:href="#y" transform="matrix(1,0,0,1,-1560.6666666666665,402.3333333333333) translate(36.01 35.55555555555556)"/><use xlink:href="#z" transform="matrix(1,0,0,1,-1560.6666666666665,402.3333333333333) translate(89.24456790123456 35.55555555555556)"/><use xlink:href="#A" transform="matrix(1,0,0,1,-1560.6666666666665,402.3333333333333) translate(130.5285185185185 35.55555555555556)"/><use xlink:href="#B" transform="matrix(1,0,0,1,-1560.6666666666665,402.3333333333333) translate(145.3433333333333 35.55555555555556)"/><use xlink:href="#C" transform="matrix(1,0,0,1,-1560.6666666666665,402.3333333333333) translate(0 56.888888888888886)"/><use xlink:href="#D" transform="matrix(1,0,0,1,-1560.6666666666665,402.3333333333333) translate(102.56790123456787 56.888888888888886)"/><use xlink:href="#s" transform="matrix(1,0,0,1,-1560.6666666666665,402.3333333333333) translate(149.97530864197526 56.888888888888886)"/><use xlink:href="#E" transform="matrix(1,0,0,1,-1560.6666666666665,402.3333333333333) translate(180.54320987654316 56.888888888888886)"/><use xlink:href="#F" transform="matrix(1,0,0,1,-1560.6666666666665,402.3333333333333) translate(0 78.22222222222223)"/><use xlink:href="#G" transform="matrix(1,0,0,1,-1560.6666666666665,402.3333333333333) translate(44.29629629629629 78.22222222222223)"/><use xlink:href="#D" transform="matrix(1,0,0,1,-1560.6666666666665,402.3333333333333) translate(99.60493827160492 78.22222222222223)"/><use xlink:href="#s" transform="matrix(1,0,0,1,-1560.6666666666665,402.3333333333333) translate(147.01234567901233 78.22222222222223)"/><use xlink:href="#H" transform="matrix(1,0,0,1,-1560.6666666666665,402.3333333333333) translate(177.58024691358023 78.22222222222223)"/><path d="M-2043 739.67c0-3.32 2.7-6 6-6h228c3.3 0 6 2.68 6 6V791c0 3.3-2.7 6-6 6h-228c-3.3 0-6-2.7-6-6z" stroke="#000" stroke-opacity="0" fill="#fff" fill-opacity="0"/><use xlink:href="#I" transform="matrix(1,0,0,1,-2038,738.6666666667057) translate(92.28395061728395 20.97222222222222)"/><use xlink:href="#J" transform="matrix(1,0,0,1,-2038,738.6666666667057) translate(96.25925925925927 42.30555555555556)"/><path d="M-2043 544c0-3.3 2.7-6 6-6h228c3.3 0 6 2.7 6 6v51.33c0 3.32-2.7 6-6 6h-228c-3.3 0-6-2.68-6-6z" stroke="#000" stroke-opacity="0" fill="#fff" fill-opacity="0"/><use xlink:href="#K" transform="matrix(1,0,0,1,-2038,543) translate(74.58024691358025 20.97222222222222)"/><use xlink:href="#L" transform="matrix(1,0,0,1,-2038,543) translate(47.8888888888889 42.30555555555556)"/><use xlink:href="#M" transform="matrix(1,0,0,1,-2038,543) translate(90.30864197530866 42.30555555555556)"/><use xlink:href="#N" transform="matrix(1,0,0,1,-2038,543) translate(107.09876543209877 42.30555555555556)"/><path d="M-1892.47 522.74c3.58 1.65 5.9 5.45 5.9 9.8 0 4.98-3.1 9.25-7.37 10.34l-1.4.34h-50.75c-5.9 0-10.66-5.36-10.66-11.82s4.77-11.82 10.67-11.82c.5 0 .78 0 1.27.12 1.76-3.12 4.77-4.9 8.14-4.9.93 0 1.77.13 2.68.43v-.42c0-7.68 5.55-13.8 12.5-13.8 4.77 0 9.2 3.2 11.22 8.02 1.76-1.14 3.8-1.77 5.9-1.77 6.67 0 12.07 6 12.07 13.34.07.67 0 1.34-.14 2.14z" stroke="#000" stroke-opacity="0" fill="#707070"/><path d="M-1886.15 531.74h264.1" stroke="#5e5e5e" fill="none"/><path d="M-1886.14 532.24h-.46l-.1-1h.56z" fill="#5e5e5e"/><path d="M-1607.28 531.73l-14.27 4.63v-9.27z" stroke="#5e5e5e" fill="#5e5e5e"/><path d="M-1364.67 375.6h73.25c3.32 0 6-2.7 6-6v-71.8c0-3.3 2.7-6 6-6h57.37" stroke="#5e5e5e" fill="none"/><path d="M-1364.65 376.1h-.52v-1h.52z" fill="#5e5e5e"/><path d="M-1207.28 291.8l-14.27 4.64v-9.27z" stroke="#5e5e5e" fill="#5e5e5e"/><path d="M-1321 366c0-3.3 2.7-6 6-6h228c3.3 0 6 2.7 6 6v51.33c0 3.32-2.7 6-6 6h-228c-3.3 0-6-2.68-6-6z" stroke="#000" stroke-opacity="0" fill="#fff" fill-opacity="0"/><use xlink:href="#o" transform="matrix(1,0,0,1,-1316,365.00000000000006) translate(0 31.09722222222222)"/><use xlink:href="#O" transform="matrix(1,0,0,1,-1316,365.00000000000006) translate(40.14814814814814 31.09722222222222)"/><use xlink:href="#P" transform="matrix(1,0,0,1,-1316,365.00000000000006) translate(65.33333333333331 31.09722222222222)"/><path d="M-1601.67 166c0-3.3 2.7-6 6-6h288c3.32 0 6 2.7 6 6v49.2c0 3.32-2.68 6-6 6h-288c-3.3 0-6-2.68-6-6z" stroke="#000" stroke-opacity="0" stroke-width="3" fill="#fff" fill-opacity="0"/><use xlink:href="#Q" transform="matrix(1,0,0,1,-1601.6666666666665,160) translate(0 40.262222222222206)"/><use xlink:href="#R" transform="matrix(1,0,0,1,-1601.6666666666665,160) translate(70.54666666666664 40.262222222222206)"/><use xlink:href="#S" transform="matrix(1,0,0,1,-1601.6666666666665,160) translate(185.2399999999999 40.262222222222206)"/><path d="M-1204.86 230.9h27.28c4.98 0 7.47 2.56 7.47 7.67v26.86c0 5.1-2.5 7.68-7.48 7.68h-27.28c-4.98 0-7.47-2.56-7.47-7.67v-26.86c0-5.1 2.5-7.68 7.47-7.68z" stroke="#000" stroke-opacity="0" stroke-width=".64" fill="#e5e5e5"/><path d="M-1179.48 262.64h-5.03c-.47 0-.85-.25-1.06-.68l-5.45-13.04c0-.1-.05-.17-.14-.17-.12-.04-.25.04-.3.17l-3.4 8.27v.08c0 .17.1.3.28.3h3.72c.2.04.42.16.5.37l1.65 3.72c.14.38 0 .76-.33.93-.12.04-.17.04-.3.04h-13.55c-.33 0-.63-.3-.63-.63 0-.08.03-.16.08-.25l8.6-21.1c.18-.47.6-.73 1.1-.73h5c.5 0 .92.26 1.1.72l8.68 21.1c.13.35 0 .7-.3.86-.08.04-.16.04-.24.04z" stroke="#000" stroke-opacity="0" stroke-width=".64" fill="#fa0f00"/><path d="M-1605.67 246.9c0-3.3 2.7-6 6-6h228c3.32 0 6 2.7 6 6v51.34c0 3.32-2.68 6-6 6h-228c-3.3 0-6-2.68-6-6z" stroke="#5e5e5e" fill="#faf3f4"/><use xlink:href="#T" transform="matrix(1,0,0,1,-1600.6666666666665,245.91111111111107) translate(34.845679012345684 17.77777777777778)"/><use xlink:href="#U" transform="matrix(1,0,0,1,-1600.6666666666665,245.91111111111107) translate(92.87037037037038 17.77777777777778)"/><use xlink:href="#V" transform="matrix(1,0,0,1,-1600.6666666666665,245.91111111111107) translate(180.3395061728395 17.77777777777778)"/><use xlink:href="#T" transform="matrix(1,0,0,1,-1600.6666666666665,245.91111111111107) translate(54.598765432098766 44.44444444444444)"/><use xlink:href="#W" transform="matrix(1,0,0,1,-1600.6666666666665,245.91111111111107) translate(112.62345679012346 44.44444444444444)"/><path d="M-1896.64 510.06h139c3.3 0 6-2.7 6-6V278.58c0-3.32 2.67-6 6-6h123.1" stroke="#5e5e5e" fill="none"/><path d="M-1896.63 510.45l-1.16-.9h1.17z" fill="#5e5e5e"/><path d="M-1607.78 272.58l-14.27 4.63v-9.26z" stroke="#5e5e5e" fill="#5e5e5e"/><path d="M-1580.58 337v-15.87" stroke="#5e5e5e" fill="none"/><path d="M-1580.08 337.5h-1v-.5h1z" fill="#5e5e5e"/><path d="M-1580.58 306.36l4.63 14.27h-9.27z" stroke="#5e5e5e" fill="#5e5e5e"/><path d="M-1571.67 297.94c0-3.32 2.7-6 6-6h228c3.32 0 6 2.68 6 6v51.33c0 3.3-2.68 6-6 6h-228c-3.3 0-6-2.7-6-6z" stroke="#000" stroke-opacity="0" fill="#fff" fill-opacity="0"/><g><use xlink:href="#o" transform="matrix(1,0,0,1,-1566.6666666666665,296.9377777777778) translate(0 31.09722222222222)"/><use xlink:href="#O" transform="matrix(1,0,0,1,-1566.6666666666665,296.9377777777778) translate(40.14814814814814 31.09722222222222)"/><use xlink:href="#P" transform="matrix(1,0,0,1,-1566.6666666666665,296.9377777777778) translate(65.33333333333331 31.09722222222222)"/></g><path d="M-1364.67 257.82h135.95" stroke="#5e5e5e" fill="none"/><path d="M-1364.65 258.32h-.52v-1h.52z" fill="#5e5e5e"/><path d="M-1213.95 257.82l-14.27 4.64v-9.27z" stroke="#5e5e5e" fill="#5e5e5e"/><path d="M-968 263.9c0-3.3 2.7-6 6-6h228c3.3 0 6 2.7 6 6v51.34c0 3.32-2.7 6-6 6h-228c-3.3 0-6-2.68-6-6z" stroke="#000" stroke-opacity="0" fill="#fff" fill-opacity="0"/><g><use xlink:href="#X" transform="matrix(1,0,0,1,-963,262.9111111111111) translate(0 31.09722222222222)"/><use xlink:href="#Y" transform="matrix(1,0,0,1,-963,262.9111111111111) translate(15.308641975308639 31.09722222222222)"/><use xlink:href="#Z" transform="matrix(1,0,0,1,-963,262.9111111111111) translate(49.87654320987653 31.09722222222222)"/></g><path d="M-965.17 273.56h68.3" stroke="#5e5e5e" fill="none"/><path d="M-965.15 274.06h-.52v-1h.52z" fill="#5e5e5e"/><path d="M-882.12 273.56l-14.26 4.63v-9.28z" stroke="#5e5e5e" fill="#5e5e5e"/><path d="M-1321 217.9c0-3.3 2.7-6 6-6h228c3.3 0 6 2.7 6 6v51.34c0 3.32-2.7 6-6 6h-228c-3.3 0-6-2.68-6-6z" stroke="#000" stroke-opacity="0" fill="#fff" fill-opacity="0"/><g><use xlink:href="#aa" transform="matrix(1,0,0,1,-1316,216.9111111111111) translate(0 31.09722222222222)"/><use xlink:href="#Z" transform="matrix(1,0,0,1,-1316,216.9111111111111) translate(44.938271604938265 31.09722222222222)"/></g><path d="M-880 242.06c0-3.3 2.7-6 6-6h148.15c3.3 0 6 2.7 6 6v62c0 3.32-2.7 6-6 6H-874c-3.3 0-6-2.68-6-6z" stroke="#5e5e5e" fill-opacity="0"/><path d="M-880 211.9h160.15v25.32H-880z" fill="none"/><g><use xlink:href="#ab" transform="matrix(1,0,0,1,-880,211.9111111111111) translate(3.7022222222222467 19.019999999999996)"/><use xlink:href="#ac" transform="matrix(1,0,0,1,-880,211.9111111111111) translate(87.90444444444444 19.019999999999996)"/></g><path d="M-855.24 242.8h41.55v41.56h-41.54z" fill="#ff13dc" fill-opacity="0"/><path d="M-814.72 276.75l-4.16-9.7v-17.32c0-.48-.17-.9-.5-1.23-.34-.34-.76-.5-1.23-.5h-27.72c-.47 0-.88.16-1.22.5-.34.34-.5.75-.5 1.23v17.3l-4.17 9.72c-.16.36-.2.73-.1 1.12.1.38.3.7.62.93.32.24.67.36 1.06.36h36.3c.4 0 .76-.12 1.07-.36.3-.24.5-.55.6-.93.1-.4.08-.76-.07-1.12zm-14.8-1.05h-9.9c-.17 0-.34-.05-.5-.15-.14-.1-.24-.24-.3-.4-.07-.18-.08-.35-.04-.53l.44-1.73c.05-.2.15-.36.3-.48.16-.12.34-.2.54-.2h9.03c.2 0 .38.08.53.2.16.12.26.28.3.47l.45 1.72c.04.18.03.35-.03.52-.07.17-.17.3-.32.4-.15.1-.32.16-.5.16zm7.18-10.4h-24.25v-13.84h24.26z" fill="#707070"/><path d="M-794.95 286c0-3.33 2.68-6 6-6h51.5c3.3 0 6 2.67 6 6v5.18c0 3.32-2.7 6-6 6h-51.5c-3.32 0-6-2.68-6-6z" stroke="#000" stroke-opacity="0" stroke-width="3" fill="#fff" fill-opacity="0"/><g><use xlink:href="#ad" transform="matrix(1,0,0,1,-793.953865498647,280.9882347296994) translate(12.193333333333342 13.50666666666666)"/></g><path d="M-752.76 243.9h-18.9s-1.57 0-1.57 1.6v34.6c0 1.6 1.57 1.6 1.57 1.6h18.9s1.57 0 1.57-1.6v-34.6c0-1.6-1.56-1.6-1.56-1.6zm-10.24 3.15h1.58c.47 0 .77.34.77.8 0 .48-.3.78-.77.78H-763c-.47 0-.78-.3-.78-.8 0-.44.3-.78.78-.78zm.8 31.96c-1.1 0-2.06-.94-2.06-2.03 0-1.1.95-2.04 2.05-2.04 1.1 0 2.04.94 2.04 2.04s-.95 2.04-2.05 2.04zm7.55-5.17h-14.97c-.3 0-.46-.2-.46-.34v-22.83c0-.3.16-.45.46-.45h14.97c.15 0 .3.15.3.45v22.82c0 .14-.15.33-.3.33z" stroke="#000" stroke-opacity="0" stroke-width="3.23" fill-opacity=".6"/><path d="M-867.13 285c0-3.33 2.7-6 6-6h51.5c3.3 0 6 2.67 6 6v5.18c0 3.32-2.7 6-6 6h-51.5c-3.3 0-6-2.68-6-6z" stroke="#000" stroke-opacity="0" stroke-width="3" fill="#fff" fill-opacity="0"/><g><use xlink:href="#ae" transform="matrix(1,0,0,1,-866.1281145360433,279.9882347296994) translate(8.566666666666674 13.50666666666666)"/></g><path d="M-1853 697.67c0-3.32 2.7-6 6-6h228c3.3 0 6 2.68 6 6V749c0 3.3-2.7 6-6 6h-228c-3.3 0-6-2.7-6-6z" stroke="#000" stroke-opacity="0" fill="#fff" fill-opacity="0"/><g><use xlink:href="#o" transform="matrix(1,0,0,1,-1848,696.6666666666666) translate(0 20.97222222222222)"/><use xlink:href="#af" transform="matrix(1,0,0,1,-1848,696.6666666666666) translate(40.14814814814814 20.97222222222222)"/><use xlink:href="#B" transform="matrix(1,0,0,1,-1848,696.6666666666666) translate(75.20987654320986 20.97222222222222)"/><use xlink:href="#ag" transform="matrix(1,0,0,1,-1848,696.6666666666666) translate(0 42.30555555555556)"/><use xlink:href="#s" transform="matrix(1,0,0,1,-1848,696.6666666666666) translate(78.2716049382716 42.30555555555556)"/><use xlink:href="#ah" transform="matrix(1,0,0,1,-1848,696.6666666666666) translate(108.83950617283949 42.30555555555556)"/></g><path d="M-1846.6 543.82c0-3.32 2.7-6 6-6h228c3.32 0 6 2.68 6 6v62c0 3.3-2.68 6-6 6h-228c-3.3 0-6-2.7-6-6z" stroke="#000" stroke-opacity="0" fill="#fff" fill-opacity="0"/><g><use xlink:href="#o" transform="matrix(1,0,0,1,-1841.5980950261821,542.8179644817446) translate(0 14.222222222222221)"/><use xlink:href="#ai" transform="matrix(1,0,0,1,-1841.5980950261821,542.8179644817446) translate(40.14814814814814 14.222222222222221)"/><use xlink:href="#aj" transform="matrix(1,0,0,1,-1841.5980950261821,542.8179644817446) translate(65.33333333333331 14.222222222222221)"/><use xlink:href="#ak" transform="matrix(1,0,0,1,-1841.5980950261821,542.8179644817446) translate(0 35.55555555555556)"/><use xlink:href="#z" transform="matrix(1,0,0,1,-1841.5980950261821,542.8179644817446) translate(53.23456790123456 35.55555555555556)"/><use xlink:href="#O" transform="matrix(1,0,0,1,-1841.5980950261821,542.8179644817446) translate(94.5185185185185 35.55555555555556)"/><use xlink:href="#x" transform="matrix(1,0,0,1,-1841.5980950261821,542.8179644817446) translate(119.7037037037037 35.55555555555556)"/><use xlink:href="#al" transform="matrix(1,0,0,1,-1841.5980950261821,542.8179644817446) translate(0 56.888888888888886)"/><use xlink:href="#s" transform="matrix(1,0,0,1,-1841.5980950261821,542.8179644817446) translate(49.82716049382716 56.888888888888886)"/><use xlink:href="#am" transform="matrix(1,0,0,1,-1841.5980950261821,542.8179644817446) translate(80.39506172839505 56.888888888888886)"/></g><path d="M-1902.95 449.62c0-3.32 2.7-6 6-6h149.42c3.32 0 6 2.68 6 6v62c0 3.3-2.68 6-6 6h-149.42c-3.3 0-6-2.7-6-6z" stroke="#000" stroke-opacity="0" fill="#fff" fill-opacity="0"/><g><use xlink:href="#o" transform="matrix(1,0,0,1,-1897.9456018606984,448.6170309619109) translate(0 26.22222222222222)"/><use xlink:href="#an" transform="matrix(1,0,0,1,-1897.9456018606984,448.6170309619109) translate(40.14814814814814 26.22222222222222)"/><use xlink:href="#ao" transform="matrix(1,0,0,1,-1897.9456018606984,448.6170309619109) translate(85.0864197530864 26.22222222222222)"/><use xlink:href="#al" transform="matrix(1,0,0,1,-1897.9456018606984,448.6170309619109) translate(0 47.55555555555555)"/><use xlink:href="#s" transform="matrix(1,0,0,1,-1897.9456018606984,448.6170309619109) translate(49.82716049382716 47.55555555555555)"/><use xlink:href="#am" transform="matrix(1,0,0,1,-1897.9456018606984,448.6170309619109) translate(80.39506172839505 47.55555555555555)"/></g><path d="M-1923 601.83V624c0 3.3 2.7 6 6 6h318.2c3.3 0 6 2.7 6 6v6.28" stroke="#5e5e5e" fill="none"/><path d="M-1922.5 601.85h-1v-.52h1z" fill="#5e5e5e"/><path d="M-1592.8 657.05l-4.64-14.27h9.28z" stroke="#5e5e5e" fill="#5e5e5e"/><path d="M-1846.6 616.02c0-3.3 2.7-6 6-6h228c3.32 0 6 2.7 6 6v62c0 3.3-2.68 6-6 6h-228c-3.3 0-6-2.7-6-6z" stroke="#000" stroke-opacity="0" fill="#fff" fill-opacity="0"/><g><use xlink:href="#o" transform="matrix(1,0,0,1,-1841.5980950261821,615.0188980015783) translate(0 34.22222222222222)"/><use xlink:href="#ap" transform="matrix(1,0,0,1,-1841.5980950261821,615.0188980015783) translate(40.14814814814814 34.22222222222222)"/><use xlink:href="#aq" transform="matrix(1,0,0,1,-1841.5980950261821,615.0188980015783) translate(75.20987654320986 34.22222222222222)"/></g><defs><path fill="#333" d="M205 0l-28-72H64L36 0H1l101-248h38L239 0h-34zm-38-99l-47-123c-12 45-31 82-46 123h93" id="ar"/><path fill="#333" d="M85-194c31 0 48 13 60 33l-1-100h32l1 261h-30c-2-10 0-23-3-31C134-8 116 4 85 4 32 4 16-35 15-94c0-66 23-100 70-100zm9 24c-40 0-46 34-46 75 0 40 6 74 45 74 42 0 51-32 51-76 0-42-9-74-50-73" id="as"/><path fill="#333" d="M100-194c62-1 85 37 85 99 1 63-27 99-86 99S16-35 15-95c0-66 28-99 85-99zM99-20c44 1 53-31 53-75 0-43-8-75-51-75s-53 32-53 75 10 74 51 75" id="at"/><path fill="#333" d="M115-194c53 0 69 39 70 98 0 66-23 100-70 100C84 3 66-7 56-30L54 0H23l1-261h32v101c10-23 28-34 59-34zm-8 174c40 0 45-34 45-75 0-40-5-75-45-74-42 0-51 32-51 76 0 43 10 73 51 73" id="au"/><path fill="#333" d="M100-194c63 0 86 42 84 106H49c0 40 14 67 53 68 26 1 43-12 49-29l28 8c-11 28-37 45-77 45C44 4 14-33 15-96c1-61 26-98 85-98zm52 81c6-60-76-77-97-28-3 7-6 17-6 28h103" id="av"/><g id="a"><use transform="matrix(0.12345679012345678,0,0,0.12345679012345678,0,0)" xlink:href="#ar"/><use transform="matrix(0.12345679012345678,0,0,0.12345679012345678,29.629629629629626,0)" xlink:href="#as"/><use transform="matrix(0.12345679012345678,0,0,0.12345679012345678,54.32098765432099,0)" xlink:href="#at"/><use transform="matrix(0.12345679012345678,0,0,0.12345679012345678,79.01234567901234,0)" xlink:href="#au"/><use transform="matrix(0.12345679012345678,0,0,0.12345679012345678,103.7037037037037,0)" xlink:href="#av"/></g><path fill="#333" d="M30 0v-248h187v28H63v79h144v27H63v87h162V0H30" id="aw"/><path fill="#333" d="M141 0L90-78 38 0H4l68-98-65-92h35l48 74 47-74h35l-64 92 68 98h-35" id="ax"/><path fill="#333" d="M115-194c55 1 70 41 70 98S169 2 115 4C84 4 66-9 55-30l1 105H24l-1-265h31l2 30c10-21 28-34 59-34zm-8 174c40 0 45-34 45-75s-6-73-45-74c-42 0-51 32-51 76 0 43 10 73 51 73" id="ay"/><path fill="#333" d="M114-163C36-179 61-72 57 0H25l-1-190h30c1 12-1 29 2 39 6-27 23-49 58-41v29" id="az"/><path fill="#333" d="M24-231v-30h32v30H24zM24 0v-190h32V0H24" id="aA"/><path fill="#333" d="M117-194c89-4 53 116 60 194h-32v-121c0-31-8-49-39-48C34-167 62-67 57 0H25l-1-190h30c1 10-1 24 2 32 11-22 29-35 61-36" id="aB"/><path fill="#333" d="M96-169c-40 0-48 33-48 73s9 75 48 75c24 0 41-14 43-38l32 2c-6 37-31 61-74 61-59 0-76-41-82-99-10-93 101-131 147-64 4 7 5 14 7 22l-32 3c-4-21-16-35-41-35" id="aC"/><g id="b"><use transform="matrix(0.12345679012345678,0,0,0.12345679012345678,0,0)" xlink:href="#aw"/><use transform="matrix(0.12345679012345678,0,0,0.12345679012345678,29.629629629629626,0)" xlink:href="#ax"/><use transform="matrix(0.12345679012345678,0,0,0.12345679012345678,51.85185185185185,0)" xlink:href="#ay"/><use transform="matrix(0.12345679012345678,0,0,0.12345679012345678,76.5432098765432,0)" xlink:href="#av"/><use transform="matrix(0.12345679012345678,0,0,0.12345679012345678,101.23456790123456,0)" xlink:href="#az"/><use transform="matrix(0.12345679012345678,0,0,0.12345679012345678,115.92592592592591,0)" xlink:href="#aA"/><use transform="matrix(0.12345679012345678,0,0,0.12345679012345678,125.679012345679,0)" xlink:href="#av"/><use transform="matrix(0.12345679012345678,0,0,0.12345679012345678,150.37037037037035,0)" xlink:href="#aB"/><use transform="matrix(0.12345679012345678,0,0,0.12345679012345678,175.06172839506172,0)" xlink:href="#aC"/><use transform="matrix(0.12345679012345678,0,0,0.12345679012345678,197.28395061728395,0)" xlink:href="#av"/></g><path fill="#333" d="M30-248c87 1 191-15 191 75 0 78-77 80-158 76V0H30v-248zm33 125c57 0 124 11 124-50 0-59-68-47-124-48v98" id="aD"/><path fill="#333" d="M24 0v-261h32V0H24" id="aE"/><path fill="#333" d="M141-36C126-15 110 5 73 4 37 3 15-17 15-53c-1-64 63-63 125-63 3-35-9-54-41-54-24 1-41 7-42 31l-33-3c5-37 33-52 76-52 45 0 72 20 72 64v82c-1 20 7 32 28 27v20c-31 9-61-2-59-35zM48-53c0 20 12 33 32 33 41-3 63-29 60-74-43 2-92-5-92 41" id="aF"/><path fill="#333" d="M59-47c-2 24 18 29 38 22v24C64 9 27 4 27-40v-127H5v-23h24l9-43h21v43h35v23H59v120" id="aG"/><path fill="#333" d="M101-234c-31-9-42 10-38 44h38v23H63V0H32v-167H5v-23h27c-7-52 17-82 69-68v24" id="aH"/><path fill="#333" d="M210-169c-67 3-38 105-44 169h-31v-121c0-29-5-50-35-48C34-165 62-65 56 0H25l-1-190h30c1 10-1 24 2 32 10-44 99-50 107 0 11-21 27-35 58-36 85-2 47 119 55 194h-31v-121c0-29-5-49-35-48" id="aI"/><g id="c"><use transform="matrix(0.12345679012345678,0,0,0.12345679012345678,0,0)" xlink:href="#aD"/><use transform="matrix(0.12345679012345678,0,0,0.12345679012345678,29.629629629629626,0)" xlink:href="#aE"/><use transform="matrix(0.12345679012345678,0,0,0.12345679012345678,39.38271604938271,0)" xlink:href="#aF"/><use transform="matrix(0.12345679012345678,0,0,0.12345679012345678,64.07407407407406,0)" xlink:href="#aG"/><use transform="matrix(0.12345679012345678,0,0,0.12345679012345678,76.41975308641975,0)" xlink:href="#aH"/><use transform="matrix(0.12345679012345678,0,0,0.12345679012345678,88.76543209876543,0)" xlink:href="#at"/><use transform="matrix(0.12345679012345678,0,0,0.12345679012345678,113.45679012345678,0)" xlink:href="#az"/><use transform="matrix(0.12345679012345678,0,0,0.12345679012345678,128.14814814814815,0)" xlink:href="#aI"/></g><path fill="#333" d="M16-82v-28h88v28H16" id="aJ"/><use transform="matrix(0.12345679012345678,0,0,0.12345679012345678,0,0)" xlink:href="#aJ" id="d"/><path fill="#333" d="M266 0h-40l-56-210L115 0H75L2-248h35L96-30l15-64 43-154h32l59 218 59-218h35" id="aK"/><path fill="#333" d="M0 4l72-265h28L28 4H0" id="aL"/><path fill="#333" d="M240 0l2-218c-23 76-54 145-80 218h-23L58-218 59 0H30v-248h44l77 211c21-75 51-140 76-211h43V0h-30" id="aM"/><g id="e"><use transform="matrix(0.12345679012345678,0,0,0.12345679012345678,0,0)" xlink:href="#aK"/><use transform="matrix(0.12345679012345678,0,0,0.12345679012345678,40.98765432098765,0)" xlink:href="#av"/><use transform="matrix(0.12345679012345678,0,0,0.12345679012345678,65.67901234567901,0)" xlink:href="#au"/><use transform="matrix(0.12345679012345678,0,0,0.12345679012345678,90.37037037037037,0)" xlink:href="#aL"/><use transform="matrix(0.12345679012345678,0,0,0.12345679012345678,102.71604938271605,0)" xlink:href="#aM"/><use transform="matrix(0.12345679012345678,0,0,0.12345679012345678,139.62962962962962,0)" xlink:href="#at"/><use transform="matrix(0.12345679012345678,0,0,0.12345679012345678,164.320987654321,0)" xlink:href="#au"/><use transform="matrix(0.12345679012345678,0,0,0.12345679012345678,189.01234567901236,0)" xlink:href="#aA"/><use transform="matrix(0.12345679012345678,0,0,0.12345679012345678,198.76543209876544,0)" xlink:href="#aE"/><use transform="matrix(0.12345679012345678,0,0,0.12345679012345678,208.51851851851853,0)" xlink:href="#av"/></g><path fill="#333" d="M135-143c-3-34-86-38-87 0 15 53 115 12 119 90S17 21 10-45l28-5c4 36 97 45 98 0-10-56-113-15-118-90-4-57 82-63 122-42 12 7 21 19 24 35" id="aN"/><path fill="#333" d="M9 0v-24l116-142H16v-24h144v24L44-24h123V0H9" id="aO"/><g id="f"><use transform="matrix(0.12345679012345678,0,0,0.12345679012345678,0,0)" xlink:href="#aD"/><use transform="matrix(0.12345679012345678,0,0,0.12345679012345678,29.629629629629626,0)" xlink:href="#av"/><use transform="matrix(0.12345679012345678,0,0,0.12345679012345678,54.32098765432099,0)" xlink:href="#az"/><use transform="matrix(0.12345679012345678,0,0,0.12345679012345678,69.01234567901234,0)" xlink:href="#aN"/><use transform="matrix(0.12345679012345678,0,0,0.12345679012345678,91.23456790123456,0)" xlink:href="#at"/><use transform="matrix(0.12345679012345678,0,0,0.12345679012345678,115.92592592592591,0)" xlink:href="#aB"/><use transform="matrix(0.12345679012345678,0,0,0.12345679012345678,140.61728395061726,0)" xlink:href="#aF"/><use transform="matrix(0.12345679012345678,0,0,0.12345679012345678,165.30864197530863,0)" xlink:href="#aE"/><use transform="matrix(0.12345679012345678,0,0,0.12345679012345678,175.06172839506172,0)" xlink:href="#aA"/><use transform="matrix(0.12345679012345678,0,0,0.12345679012345678,184.8148148148148,0)" xlink:href="#aO"/><use transform="matrix(0.12345679012345678,0,0,0.12345679012345678,207.03703703703704,0)" xlink:href="#aF"/><use transform="matrix(0.12345679012345678,0,0,0.12345679012345678,231.7283950617284,0)" xlink:href="#aG"/><use transform="matrix(0.12345679012345678,0,0,0.12345679012345678,244.07407407407408,0)" xlink:href="#aA"/><use transform="matrix(0.12345679012345678,0,0,0.12345679012345678,253.82716049382714,0)" xlink:href="#at"/><use transform="matrix(0.12345679012345678,0,0,0.12345679012345678,278.51851851851853,0)" xlink:href="#aB"/></g><path fill="#333" d="M143 4C61 4 22-44 18-125c-5-107 100-154 193-111 17 8 29 25 37 43l-32 9c-13-25-37-40-76-40-61 0-88 39-88 99 0 61 29 100 91 101 35 0 62-11 79-27v-45h-74v-28h105v86C228-13 192 4 143 4" id="aP"/><path fill="#333" d="M84 4C-5 8 30-112 23-190h32v120c0 31 7 50 39 49 72-2 45-101 50-169h31l1 190h-30c-1-10 1-25-2-33-11 22-28 36-60 37" id="aQ"/><g id="g"><use transform="matrix(0.12345679012345678,0,0,0.12345679012345678,0,0)" xlink:href="#aP"/><use transform="matrix(0.12345679012345678,0,0,0.12345679012345678,34.5679012345679,0)" xlink:href="#aQ"/><use transform="matrix(0.12345679012345678,0,0,0.12345679012345678,59.25925925925925,0)" xlink:href="#aF"/><use transform="matrix(0.12345679012345678,0,0,0.12345679012345678,83.9506172839506,0)" xlink:href="#az"/><use transform="matrix(0.12345679012345678,0,0,0.12345679012345678,98.64197530864196,0)" xlink:href="#as"/><use transform="matrix(0.12345679012345678,0,0,0.12345679012345678,123.33333333333331,0)" xlink:href="#az"/><use transform="matrix(0.12345679012345678,0,0,0.12345679012345678,138.02469135802468,0)" xlink:href="#aF"/><use transform="matrix(0.12345679012345678,0,0,0.12345679012345678,162.71604938271605,0)" xlink:href="#aA"/><use transform="matrix(0.12345679012345678,0,0,0.12345679012345678,172.46913580246914,0)" xlink:href="#aE"/><use transform="matrix(0.12345679012345678,0,0,0.12345679012345678,182.22222222222223,0)" xlink:href="#aN"/></g><path fill="#fff" d="M85-194c31 0 48 13 60 33l-1-100h32l1 261h-30c-2-10 0-23-3-31C134-8 116 4 85 4 32 4 16-35 15-94c0-66 23-100 70-100zm9 24c-40 0-46 34-46 75 0 40 6 74 45 74 42 0 51-32 51-76 0-42-9-74-50-73" id="aR"/><path fill="#fff" d="M141-36C126-15 110 5 73 4 37 3 15-17 15-53c-1-64 63-63 125-63 3-35-9-54-41-54-24 1-41 7-42 31l-33-3c5-37 33-52 76-52 45 0 72 20 72 64v82c-1 20 7 32 28 27v20c-31 9-61-2-59-35zM48-53c0 20 12 33 32 33 41-3 63-29 60-74-43 2-92-5-92 41" id="aS"/><path fill="#fff" d="M59-47c-2 24 18 29 38 22v24C64 9 27 4 27-40v-127H5v-23h24l9-43h21v43h35v23H59v120" id="aT"/><g id="h"><use transform="matrix(0.06172839506172839,0,0,0.06172839506172839,0,0)" xlink:href="#aR"/><use transform="matrix(0.06172839506172839,0,0,0.06172839506172839,12.345679012345679,0)" xlink:href="#aS"/><use transform="matrix(0.06172839506172839,0,0,0.06172839506172839,24.691358024691358,0)" xlink:href="#aT"/><use transform="matrix(0.06172839506172839,0,0,0.06172839506172839,30.864197530864196,0)" xlink:href="#aS"/></g><path fill="#fff" d="M24 0v-261h32V0H24" id="aU"/><path fill="#fff" d="M143 0L79-87 56-68V0H24v-261h32v163l83-92h37l-77 82L181 0h-38" id="aV"/><path fill="#fff" d="M100-194c63 0 86 42 84 106H49c0 40 14 67 53 68 26 1 43-12 49-29l28 8c-11 28-37 45-77 45C44 4 14-33 15-96c1-61 26-98 85-98zm52 81c6-60-76-77-97-28-3 7-6 17-6 28h103" id="aW"/><g id="i"><use transform="matrix(0.06172839506172839,0,0,0.06172839506172839,0,0)" xlink:href="#aU"/><use transform="matrix(0.06172839506172839,0,0,0.06172839506172839,4.876543209876543,0)" xlink:href="#aS"/><use transform="matrix(0.06172839506172839,0,0,0.06172839506172839,17.22222222222222,0)" xlink:href="#aV"/><use transform="matrix(0.06172839506172839,0,0,0.06172839506172839,28.333333333333332,0)" xlink:href="#aW"/></g><path fill="#fff" d="M233-177c-1 41-23 64-60 70L243 0h-38l-65-103H63V0H30v-248c88 3 205-21 203 71zM63-129c60-2 137 13 137-47 0-61-80-42-137-45v92" id="aX"/><path fill="#fff" d="M16-82v-28h88v28H16" id="aY"/><path fill="#fff" d="M24-231v-30h32v30H24zM24 0v-190h32V0H24" id="aZ"/><path fill="#fff" d="M210-169c-67 3-38 105-44 169h-31v-121c0-29-5-50-35-48C34-165 62-65 56 0H25l-1-190h30c1 10-1 24 2 32 10-44 99-50 107 0 11-21 27-35 58-36 85-2 47 119 55 194h-31v-121c0-29-5-49-35-48" id="ba"/><g id="j"><use transform="matrix(0.06172839506172839,0,0,0.06172839506172839,0,0)" xlink:href="#aX"/><use transform="matrix(0.06172839506172839,0,0,0.06172839506172839,15.987654320987653,0)" xlink:href="#aW"/><use transform="matrix(0.06172839506172839,0,0,0.06172839506172839,28.333333333333332,0)" xlink:href="#aS"/><use transform="matrix(0.06172839506172839,0,0,0.06172839506172839,40.67901234567901,0)" xlink:href="#aU"/><use transform="matrix(0.06172839506172839,0,0,0.06172839506172839,45.55555555555556,0)" xlink:href="#aY"/><use transform="matrix(0.06172839506172839,0,0,0.06172839506172839,52.901234567901234,0)" xlink:href="#aT"/><use transform="matrix(0.06172839506172839,0,0,0.06172839506172839,59.074074074074076,0)" xlink:href="#aZ"/><use transform="matrix(0.06172839506172839,0,0,0.06172839506172839,63.95061728395061,0)" xlink:href="#ba"/><use transform="matrix(0.06172839506172839,0,0,0.06172839506172839,82.4074074074074,0)" xlink:href="#aW"/></g><path fill="#fff" d="M212-179c-10-28-35-45-73-45-59 0-87 40-87 99 0 60 29 101 89 101 43 0 62-24 78-52l27 14C228-24 195 4 139 4 59 4 22-46 18-125c-6-104 99-153 187-111 19 9 31 26 39 46" id="bb"/><path fill="#fff" d="M84 4C-5 8 30-112 23-190h32v120c0 31 7 50 39 49 72-2 45-101 50-169h31l1 190h-30c-1-10 1-25-2-33-11 22-28 36-60 37" id="bc"/><path fill="#fff" d="M135-143c-3-34-86-38-87 0 15 53 115 12 119 90S17 21 10-45l28-5c4 36 97 45 98 0-10-56-113-15-118-90-4-57 82-63 122-42 12 7 21 19 24 35" id="bd"/><path fill="#fff" d="M100-194c62-1 85 37 85 99 1 63-27 99-86 99S16-35 15-95c0-66 28-99 85-99zM99-20c44 1 53-31 53-75 0-43-8-75-51-75s-53 32-53 75 10 74 51 75" id="be"/><path fill="#fff" d="M114-163C36-179 61-72 57 0H25l-1-190h30c1 12-1 29 2 39 6-27 23-49 58-41v29" id="bf"/><g id="k"><use transform="matrix(0.06172839506172839,0,0,0.06172839506172839,0,0)" xlink:href="#bb"/><use transform="matrix(0.06172839506172839,0,0,0.06172839506172839,15.987654320987653,0)" xlink:href="#bc"/><use transform="matrix(0.06172839506172839,0,0,0.06172839506172839,28.333333333333332,0)" xlink:href="#bd"/><use transform="matrix(0.06172839506172839,0,0,0.06172839506172839,39.44444444444444,0)" xlink:href="#aT"/><use transform="matrix(0.06172839506172839,0,0,0.06172839506172839,45.617283950617285,0)" xlink:href="#be"/><use transform="matrix(0.06172839506172839,0,0,0.06172839506172839,57.96296296296296,0)" xlink:href="#ba"/><use transform="matrix(0.06172839506172839,0,0,0.06172839506172839,76.41975308641975,0)" xlink:href="#aW"/><use transform="matrix(0.06172839506172839,0,0,0.06172839506172839,88.76543209876543,0)" xlink:href="#bf"/></g><path fill="#fff" d="M30-248c87 1 191-15 191 75 0 78-77 80-158 76V0H30v-248zm33 125c57 0 124 11 124-50 0-59-68-47-124-48v98" id="bg"/><path fill="#fff" d="M101-234c-31-9-42 10-38 44h38v23H63V0H32v-167H5v-23h27c-7-52 17-82 69-68v24" id="bh"/><g id="l"><use transform="matrix(0.06172839506172839,0,0,0.06172839506172839,0,0)" xlink:href="#bg"/><use transform="matrix(0.06172839506172839,0,0,0.06172839506172839,14.814814814814813,0)" xlink:href="#bf"/><use transform="matrix(0.06172839506172839,0,0,0.06172839506172839,22.160493827160494,0)" xlink:href="#be"/><use transform="matrix(0.06172839506172839,0,0,0.06172839506172839,34.50617283950617,0)" xlink:href="#bh"/><use transform="matrix(0.06172839506172839,0,0,0.06172839506172839,40.67901234567901,0)" xlink:href="#aZ"/><use transform="matrix(0.06172839506172839,0,0,0.06172839506172839,45.55555555555556,0)" xlink:href="#aU"/><use transform="matrix(0.06172839506172839,0,0,0.06172839506172839,50.4320987654321,0)" xlink:href="#aW"/></g><path fill="#7f0000" d="M185-189c-5-48-123-54-124 2 14 75 158 14 163 119 3 78-121 87-175 55-17-10-28-26-33-46l33-7c5 56 141 63 141-1 0-78-155-14-162-118-5-82 145-84 179-34 5 7 8 16 11 25" id="bi"/><path fill="#7f0000" d="M100-194c63 0 86 42 84 106H49c0 40 14 67 53 68 26 1 43-12 49-29l28 8c-11 28-37 45-77 45C44 4 14-33 15-96c1-61 26-98 85-98zm52 81c6-60-76-77-97-28-3 7-6 17-6 28h103" id="bj"/><path fill="#7f0000" d="M177-190C167-65 218 103 67 71c-23-6-38-20-44-43l32-5c15 47 100 32 89-28v-30C133-14 115 1 83 1 29 1 15-40 15-95c0-56 16-97 71-98 29-1 48 16 59 35 1-10 0-23 2-32h30zM94-22c36 0 50-32 50-73 0-42-14-75-50-75-39 0-46 34-46 75s6 73 46 73" id="bk"/><path fill="#7f0000" d="M210-169c-67 3-38 105-44 169h-31v-121c0-29-5-50-35-48C34-165 62-65 56 0H25l-1-190h30c1 10-1 24 2 32 10-44 99-50 107 0 11-21 27-35 58-36 85-2 47 119 55 194h-31v-121c0-29-5-49-35-48" id="bl"/><path fill="#7f0000" d="M117-194c89-4 53 116 60 194h-32v-121c0-31-8-49-39-48C34-167 62-67 57 0H25l-1-190h30c1 10-1 24 2 32 11-22 29-35 61-36" id="bm"/><path fill="#7f0000" d="M59-47c-2 24 18 29 38 22v24C64 9 27 4 27-40v-127H5v-23h24l9-43h21v43h35v23H59v120" id="bn"/><path fill="#7f0000" d="M141-36C126-15 110 5 73 4 37 3 15-17 15-53c-1-64 63-63 125-63 3-35-9-54-41-54-24 1-41 7-42 31l-33-3c5-37 33-52 76-52 45 0 72 20 72 64v82c-1 20 7 32 28 27v20c-31 9-61-2-59-35zM48-53c0 20 12 33 32 33 41-3 63-29 60-74-43 2-92-5-92 41" id="bo"/><path fill="#7f0000" d="M24-231v-30h32v30H24zM24 0v-190h32V0H24" id="bp"/><path fill="#7f0000" d="M100-194c62-1 85 37 85 99 1 63-27 99-86 99S16-35 15-95c0-66 28-99 85-99zM99-20c44 1 53-31 53-75 0-43-8-75-51-75s-53 32-53 75 10 74 51 75" id="bq"/><g id="m"><use transform="matrix(0.06172839506172839,0,0,0.06172839506172839,0,0)" xlink:href="#bi"/><use transform="matrix(0.06172839506172839,0,0,0.06172839506172839,14.814814814814813,0)" xlink:href="#bj"/><use transform="matrix(0.06172839506172839,0,0,0.06172839506172839,27.160493827160494,0)" xlink:href="#bk"/><use transform="matrix(0.06172839506172839,0,0,0.06172839506172839,39.50617283950617,0)" xlink:href="#bl"/><use transform="matrix(0.06172839506172839,0,0,0.06172839506172839,57.96296296296296,0)" xlink:href="#bj"/><use transform="matrix(0.06172839506172839,0,0,0.06172839506172839,70.30864197530865,0)" xlink:href="#bm"/><use transform="matrix(0.06172839506172839,0,0,0.06172839506172839,82.65432098765433,0)" xlink:href="#bn"/><use transform="matrix(0.06172839506172839,0,0,0.06172839506172839,88.82716049382717,0)" xlink:href="#bo"/><use transform="matrix(0.06172839506172839,0,0,0.06172839506172839,101.17283950617285,0)" xlink:href="#bn"/><use transform="matrix(0.06172839506172839,0,0,0.06172839506172839,107.34567901234568,0)" xlink:href="#bp"/><use transform="matrix(0.06172839506172839,0,0,0.06172839506172839,112.22222222222223,0)" xlink:href="#bq"/><use transform="matrix(0.06172839506172839,0,0,0.06172839506172839,124.56790123456791,0)" xlink:href="#bm"/></g><path fill="#fff" d="M127-220V0H93v-220H8v-28h204v28h-85" id="br"/><path fill="#fff" d="M177-190C167-65 218 103 67 71c-23-6-38-20-44-43l32-5c15 47 100 32 89-28v-30C133-14 115 1 83 1 29 1 15-40 15-95c0-56 16-97 71-98 29-1 48 16 59 35 1-10 0-23 2-32h30zM94-22c36 0 50-32 50-73 0-42-14-75-50-75-39 0-46 34-46 75s6 73 46 73" id="bs"/><g id="n"><use transform="matrix(0.06172839506172839,0,0,0.06172839506172839,0,0)" xlink:href="#br"/><use transform="matrix(0.06172839506172839,0,0,0.06172839506172839,11.049382716049381,0)" xlink:href="#aS"/><use transform="matrix(0.06172839506172839,0,0,0.06172839506172839,23.39506172839506,0)" xlink:href="#bs"/><use transform="matrix(0.06172839506172839,0,0,0.06172839506172839,35.74074074074074,0)" xlink:href="#aW"/><use transform="matrix(0.06172839506172839,0,0,0.06172839506172839,48.08641975308642,0)" xlink:href="#aT"/></g><path fill="#0c7cba" d="M205 0l-28-72H64L36 0H1l101-248h38L239 0h-34zm-38-99l-47-123c-12 45-31 82-46 123h93" id="bt"/><path fill="#0c7cba" d="M108 0H70L1-190h34L89-25l56-165h34" id="bu"/><path fill="#0c7cba" d="M177-190C167-65 218 103 67 71c-23-6-38-20-44-43l32-5c15 47 100 32 89-28v-30C133-14 115 1 83 1 29 1 15-40 15-95c0-56 16-97 71-98 29-1 48 16 59 35 1-10 0-23 2-32h30zM94-22c36 0 50-32 50-73 0-42-14-75-50-75-39 0-46 34-46 75s6 73 46 73" id="bv"/><path fill="#0c7cba" d="M33-154v-36h34v36H33zM33 0v-36h34V0H33" id="bw"/><g id="o"><use transform="matrix(0.049382716049382706,0,0,0.049382716049382706,0,0)" xlink:href="#bt"/><use transform="matrix(0.049382716049382706,0,0,0.049382716049382706,11.50617283950617,0)" xlink:href="#bu"/><use transform="matrix(0.049382716049382706,0,0,0.049382716049382706,20.395061728395056,0)" xlink:href="#bv"/><use transform="matrix(0.049382716049382706,0,0,0.049382716049382706,30.271604938271597,0)" xlink:href="#bw"/></g><path fill="#0c7cba" d="M16-127c37-31 93-2 135 6 18-1 32-8 43-16v26c-50 42-130-35-178 9v-25" id="bx"/><use transform="matrix(0.049382716049382706,0,0,0.049382716049382706,0,0)" xlink:href="#bx" id="p"/><path fill="#0c7cba" d="M27 0v-27h64v-190l-56 39v-29l58-41h29v221h61V0H27" id="by"/><path fill="#0c7cba" d="M101-251c68 0 85 55 85 127S166 4 100 4C33 4 14-52 14-124c0-73 17-127 87-127zm-1 229c47 0 54-49 54-102s-4-102-53-102c-51 0-55 48-55 102 0 53 5 102 54 102" id="bz"/><g id="q"><use transform="matrix(0.049382716049382706,0,0,0.049382716049382706,0,0)" xlink:href="#by"/><use transform="matrix(0.049382716049382706,0,0,0.049382716049382706,9.87654320987654,0)" xlink:href="#bz"/></g><path fill="#0c7cba" d="M210-169c-67 3-38 105-44 169h-31v-121c0-29-5-50-35-48C34-165 62-65 56 0H25l-1-190h30c1 10-1 24 2 32 10-44 99-50 107 0 11-21 27-35 58-36 85-2 47 119 55 194h-31v-121c0-29-5-49-35-48" id="bA"/><path fill="#0c7cba" d="M24-231v-30h32v30H24zM24 0v-190h32V0H24" id="bB"/><path fill="#0c7cba" d="M117-194c89-4 53 116 60 194h-32v-121c0-31-8-49-39-48C34-167 62-67 57 0H25l-1-190h30c1 10-1 24 2 32 11-22 29-35 61-36" id="bC"/><path fill="#0c7cba" d="M84 4C-5 8 30-112 23-190h32v120c0 31 7 50 39 49 72-2 45-101 50-169h31l1 190h-30c-1-10 1-25-2-33-11 22-28 36-60 37" id="bD"/><path fill="#0c7cba" d="M59-47c-2 24 18 29 38 22v24C64 9 27 4 27-40v-127H5v-23h24l9-43h21v43h35v23H59v120" id="bE"/><path fill="#0c7cba" d="M100-194c63 0 86 42 84 106H49c0 40 14 67 53 68 26 1 43-12 49-29l28 8c-11 28-37 45-77 45C44 4 14-33 15-96c1-61 26-98 85-98zm52 81c6-60-76-77-97-28-3 7-6 17-6 28h103" id="bF"/><path fill="#0c7cba" d="M135-143c-3-34-86-38-87 0 15 53 115 12 119 90S17 21 10-45l28-5c4 36 97 45 98 0-10-56-113-15-118-90-4-57 82-63 122-42 12 7 21 19 24 35" id="bG"/><g id="r"><use transform="matrix(0.049382716049382706,0,0,0.049382716049382706,0,0)" xlink:href="#bA"/><use transform="matrix(0.049382716049382706,0,0,0.049382716049382706,14.765432098765428,0)" xlink:href="#bB"/><use transform="matrix(0.049382716049382706,0,0,0.049382716049382706,18.66666666666666,0)" xlink:href="#bC"/><use transform="matrix(0.049382716049382706,0,0,0.049382716049382706,28.543209876543205,0)" xlink:href="#bD"/><use transform="matrix(0.049382716049382706,0,0,0.049382716049382706,38.419753086419746,0)" xlink:href="#bE"/><use transform="matrix(0.049382716049382706,0,0,0.049382716049382706,43.35802469135802,0)" xlink:href="#bF"/><use transform="matrix(0.049382716049382706,0,0,0.049382716049382706,53.234567901234556,0)" xlink:href="#bG"/></g><path fill="#0c7cba" d="M115-194c55 1 70 41 70 98S169 2 115 4C84 4 66-9 55-30l1 105H24l-1-265h31l2 30c10-21 28-34 59-34zm-8 174c40 0 45-34 45-75s-6-73-45-74c-42 0-51 32-51 76 0 43 10 73 51 73" id="bH"/><path fill="#0c7cba" d="M114-163C36-179 61-72 57 0H25l-1-190h30c1 12-1 29 2 39 6-27 23-49 58-41v29" id="bI"/><g id="s"><use transform="matrix(0.049382716049382706,0,0,0.049382716049382706,0,0)" xlink:href="#bH"/><use transform="matrix(0.049382716049382706,0,0,0.049382716049382706,9.87654320987654,0)" xlink:href="#bF"/><use transform="matrix(0.049382716049382706,0,0,0.049382716049382706,19.75308641975308,0)" xlink:href="#bI"/></g><path fill="#0c7cba" d="M143 4C61 4 22-44 18-125c-5-107 100-154 193-111 17 8 29 25 37 43l-32 9c-13-25-37-40-76-40-61 0-88 39-88 99 0 61 29 100 91 101 35 0 62-11 79-27v-45h-74v-28h105v86C228-13 192 4 143 4" id="bJ"/><path fill="#0c7cba" d="M160-131c35 5 61 23 61 61C221 17 115-2 30 0v-248c76 3 177-17 177 60 0 33-19 50-47 57zm-97-11c50-1 110 9 110-42 0-47-63-36-110-37v79zm0 115c55-2 124 14 124-45 0-56-70-42-124-44v89" id="bK"/><g id="t"><use transform="matrix(0.049382716049382706,0,0,0.049382716049382706,0,0)" xlink:href="#bJ"/><use transform="matrix(0.049382716049382706,0,0,0.049382716049382706,13.827160493827158,0)" xlink:href="#bK"/></g><path fill="#0c7cba" d="M185-189c-5-48-123-54-124 2 14 75 158 14 163 119 3 78-121 87-175 55-17-10-28-26-33-46l33-7c5 56 141 63 141-1 0-78-155-14-162-118-5-82 145-84 179-34 5 7 8 16 11 25" id="bL"/><path fill="#0c7cba" d="M141-36C126-15 110 5 73 4 37 3 15-17 15-53c-1-64 63-63 125-63 3-35-9-54-41-54-24 1-41 7-42 31l-33-3c5-37 33-52 76-52 45 0 72 20 72 64v82c-1 20 7 32 28 27v20c-31 9-61-2-59-35zM48-53c0 20 12 33 32 33 41-3 63-29 60-74-43 2-92-5-92 41" id="bM"/><g id="u"><use transform="matrix(0.049382716049382706,0,0,0.049382716049382706,0,0)" xlink:href="#bL"/><use transform="matrix(0.049382716049382706,0,0,0.049382716049382706,11.85185185185185,0)" xlink:href="#bE"/><use transform="matrix(0.049382716049382706,0,0,0.049382716049382706,16.79012345679012,0)" xlink:href="#bI"/><use transform="matrix(0.049382716049382706,0,0,0.049382716049382706,22.66666666666666,0)" xlink:href="#bF"/><use transform="matrix(0.049382716049382706,0,0,0.049382716049382706,32.5432098765432,0)" xlink:href="#bM"/><use transform="matrix(0.049382716049382706,0,0,0.049382716049382706,42.419753086419746,0)" xlink:href="#bA"/><use transform="matrix(0.049382716049382706,0,0,0.049382716049382706,57.185185185185176,0)" xlink:href="#bB"/><use transform="matrix(0.049382716049382706,0,0,0.049382716049382706,61.08641975308641,0)" xlink:href="#bC"/><use transform="matrix(0.049382716049382706,0,0,0.049382716049382706,70.96296296296295,0)" xlink:href="#bv"/><use transform="matrix(0.049382716049382706,0,0,0.049382716049382706,80.83950617283949,0)" xlink:href="#bw"/></g><g id="v"><use transform="matrix(0.049382716049382706,0,0,0.049382716049382706,0,0)" xlink:href="#bt"/><use transform="matrix(0.049382716049382706,0,0,0.049382716049382706,11.50617283950617,0)" xlink:href="#bu"/><use transform="matrix(0.049382716049382706,0,0,0.049382716049382706,20.395061728395056,0)" xlink:href="#bv"/><use transform="matrix(0.049382716049382706,0,0,0.049382716049382706,30.271604938271597,0)" xlink:href="#bw"/></g><use transform="matrix(0.049382716049382706,0,0,0.049382716049382706,0,0)" xlink:href="#by" id="w"/><g id="x"><use transform="matrix(0.049382716049382706,0,0,0.049382716049382706,0,0)" xlink:href="#bA"/><use transform="matrix(0.049382716049382706,0,0,0.049382716049382706,14.765432098765428,0)" xlink:href="#bB"/><use transform="matrix(0.049382716049382706,0,0,0.049382716049382706,18.66666666666666,0)" xlink:href="#bC"/><use transform="matrix(0.049382716049382706,0,0,0.049382716049382706,28.543209876543205,0)" xlink:href="#bD"/><use transform="matrix(0.049382716049382706,0,0,0.049382716049382706,38.419753086419746,0)" xlink:href="#bE"/><use transform="matrix(0.049382716049382706,0,0,0.049382716049382706,43.35802469135802,0)" xlink:href="#bF"/></g><path fill="#0c7cba" d="M232-93c-1 65-40 97-104 97C67 4 28-28 28-90v-158h33c8 89-33 224 67 224 102 0 64-133 71-224h33v155" id="bN"/><g id="y"><use transform="matrix(0.049382716049382706,0,0,0.049382716049382706,0,0)" xlink:href="#bN"/><use transform="matrix(0.049382716049382706,0,0,0.049382716049382706,12.790123456790122,0)" xlink:href="#bH"/><use transform="matrix(0.049382716049382706,0,0,0.049382716049382706,22.666666666666664,0)" xlink:href="#bH"/><use transform="matrix(0.049382716049382706,0,0,0.049382716049382706,32.5432098765432,0)" xlink:href="#bF"/><use transform="matrix(0.049382716049382706,0,0,0.049382716049382706,42.419753086419746,0)" xlink:href="#bI"/></g><path fill="#0c7cba" d="M24 0v-261h32V0H24" id="bO"/><g id="z"><use transform="matrix(0.049382716049382706,0,0,0.049382716049382706,0,0)" xlink:href="#bO"/><use transform="matrix(0.049382716049382706,0,0,0.049382716049382706,3.9012345679012337,0)" xlink:href="#bB"/><use transform="matrix(0.049382716049382706,0,0,0.049382716049382706,7.802469135802467,0)" xlink:href="#bA"/><use transform="matrix(0.049382716049382706,0,0,0.049382716049382706,22.567901234567895,0)" xlink:href="#bB"/><use transform="matrix(0.049382716049382706,0,0,0.049382716049382706,26.46913580246913,0)" xlink:href="#bE"/><use transform="matrix(0.049382716049382706,0,0,0.049382716049382706,31.407407407407394,0)" xlink:href="#bw"/></g><path fill="#0c7cba" d="M54-142c48-35 137-8 131 61C196 18 31 33 14-55l32-4c7 23 22 37 52 37 35-1 51-22 54-58 4-55-73-65-99-34H22l8-134h141v27H59" id="bP"/><use transform="matrix(0.049382716049382706,0,0,0.049382716049382706,0,0)" xlink:href="#bP" id="A"/><g id="B"><use transform="matrix(0.049382716049382706,0,0,0.049382716049382706,0,0)" xlink:href="#bA"/><use transform="matrix(0.049382716049382706,0,0,0.049382716049382706,14.765432098765428,0)" xlink:href="#bB"/><use transform="matrix(0.049382716049382706,0,0,0.049382716049382706,18.66666666666666,0)" xlink:href="#bC"/><use transform="matrix(0.049382716049382706,0,0,0.049382716049382706,28.543209876543205,0)" xlink:href="#bD"/><use transform="matrix(0.049382716049382706,0,0,0.049382716049382706,38.419753086419746,0)" xlink:href="#bE"/><use transform="matrix(0.049382716049382706,0,0,0.049382716049382706,43.35802469135802,0)" xlink:href="#bF"/><use transform="matrix(0.049382716049382706,0,0,0.049382716049382706,53.234567901234556,0)" xlink:href="#bG"/></g><path fill="#0c7cba" d="M33 0v-248h34V0H33" id="bQ"/><path fill="#0c7cba" d="M96-169c-40 0-48 33-48 73s9 75 48 75c24 0 41-14 43-38l32 2c-6 37-31 61-74 61-59 0-76-41-82-99-10-93 101-131 147-64 4 7 5 14 7 22l-32 3c-4-21-16-35-41-35" id="bR"/><g id="C"><use transform="matrix(0.049382716049382706,0,0,0.049382716049382706,0,0)" xlink:href="#bQ"/><use transform="matrix(0.049382716049382706,0,0,0.049382716049382706,4.93827160493827,0)" xlink:href="#bC"/><use transform="matrix(0.049382716049382706,0,0,0.049382716049382706,14.814814814814811,0)" xlink:href="#bR"/><use transform="matrix(0.049382716049382706,0,0,0.049382716049382706,23.7037037037037,0)" xlink:href="#bI"/><use transform="matrix(0.049382716049382706,0,0,0.049382716049382706,29.58024691358024,0)" xlink:href="#bF"/><use transform="matrix(0.049382716049382706,0,0,0.049382716049382706,39.456790123456784,0)" xlink:href="#bA"/><use transform="matrix(0.049382716049382706,0,0,0.049382716049382706,54.222222222222214,0)" xlink:href="#bF"/><use transform="matrix(0.049382716049382706,0,0,0.049382716049382706,64.09876543209876,0)" xlink:href="#bC"/><use transform="matrix(0.049382716049382706,0,0,0.049382716049382706,73.9753086419753,0)" xlink:href="#bE"/><use transform="matrix(0.049382716049382706,0,0,0.049382716049382706,78.91358024691357,0)" xlink:href="#bM"/><use transform="matrix(0.049382716049382706,0,0,0.049382716049382706,88.79012345679011,0)" xlink:href="#bO"/><use transform="matrix(0.049382716049382706,0,0,0.049382716049382706,92.69135802469134,0)" xlink:href="#bw"/></g><path fill="#0c7cba" d="M140-251c81 0 123 46 123 126C263-46 219 4 140 4 59 4 17-45 17-125s42-126 123-126zm0 227c63 0 89-41 89-101s-29-99-89-99c-61 0-89 39-89 99S79-25 140-24" id="bS"/><g id="D"><use transform="matrix(0.049382716049382706,0,0,0.049382716049382706,0,0)" xlink:href="#bS"/><use transform="matrix(0.049382716049382706,0,0,0.049382716049382706,13.827160493827158,0)" xlink:href="#bC"/><use transform="matrix(0.049382716049382706,0,0,0.049382716049382706,23.7037037037037,0)" xlink:href="#bR"/><use transform="matrix(0.049382716049382706,0,0,0.049382716049382706,32.59259259259259,0)" xlink:href="#bF"/></g><path fill="#0c7cba" d="M106-169C34-169 62-67 57 0H25v-261h32l-1 103c12-21 28-36 61-36 89 0 53 116 60 194h-32v-121c2-32-8-49-39-48" id="bT"/><path fill="#0c7cba" d="M100-194c62-1 85 37 85 99 1 63-27 99-86 99S16-35 15-95c0-66 28-99 85-99zM99-20c44 1 53-31 53-75 0-43-8-75-51-75s-53 32-53 75 10 74 51 75" id="bU"/><g id="E"><use transform="matrix(0.049382716049382706,0,0,0.049382716049382706,0,0)" xlink:href="#bT"/><use transform="matrix(0.049382716049382706,0,0,0.049382716049382706,9.87654320987654,0)" xlink:href="#bU"/><use transform="matrix(0.049382716049382706,0,0,0.049382716049382706,19.75308641975308,0)" xlink:href="#bD"/><use transform="matrix(0.049382716049382706,0,0,0.049382716049382706,29.629629629629623,0)" xlink:href="#bI"/></g><path fill="#0c7cba" d="M30-248c118-7 216 8 213 122C240-48 200 0 122 0H30v-248zM63-27c89 8 146-16 146-99s-60-101-146-95v194" id="bV"/><path fill="#0c7cba" d="M179-190L93 31C79 59 56 82 12 73V49c39 6 53-20 64-50L1-190h34L92-34l54-156h33" id="bW"/><g id="F"><use transform="matrix(0.049382716049382706,0,0,0.049382716049382706,0,0)" xlink:href="#bV"/><use transform="matrix(0.049382716049382706,0,0,0.049382716049382706,12.790123456790122,0)" xlink:href="#bM"/><use transform="matrix(0.049382716049382706,0,0,0.049382716049382706,22.666666666666664,0)" xlink:href="#bB"/><use transform="matrix(0.049382716049382706,0,0,0.049382716049382706,26.567901234567895,0)" xlink:href="#bO"/><use transform="matrix(0.049382716049382706,0,0,0.049382716049382706,30.46913580246913,0)" xlink:href="#bW"/></g><g id="G"><use transform="matrix(0.049382716049382706,0,0,0.049382716049382706,0,0)" xlink:href="#bK"/><use transform="matrix(0.049382716049382706,0,0,0.049382716049382706,11.85185185185185,0)" xlink:href="#bM"/><use transform="matrix(0.049382716049382706,0,0,0.049382716049382706,21.728395061728392,0)" xlink:href="#bE"/><use transform="matrix(0.049382716049382706,0,0,0.049382716049382706,26.666666666666668,0)" xlink:href="#bR"/><use transform="matrix(0.049382716049382706,0,0,0.049382716049382706,35.55555555555555,0)" xlink:href="#bT"/><use transform="matrix(0.049382716049382706,0,0,0.049382716049382706,45.43209876543209,0)" xlink:href="#bw"/></g><path fill="#0c7cba" d="M85-194c31 0 48 13 60 33l-1-100h32l1 261h-30c-2-10 0-23-3-31C134-8 116 4 85 4 32 4 16-35 15-94c0-66 23-100 70-100zm9 24c-40 0-46 34-46 75 0 40 6 74 45 74 42 0 51-32 51-76 0-42-9-74-50-73" id="bX"/><g id="H"><use transform="matrix(0.049382716049382706,0,0,0.049382716049382706,0,0)" xlink:href="#bX"/><use transform="matrix(0.049382716049382706,0,0,0.049382716049382706,9.87654320987654,0)" xlink:href="#bM"/><use transform="matrix(0.049382716049382706,0,0,0.049382716049382706,19.75308641975308,0)" xlink:href="#bW"/></g><path fill="#333" d="M160-131c35 5 61 23 61 61C221 17 115-2 30 0v-248c76 3 177-17 177 60 0 33-19 50-47 57zm-97-11c50-1 110 9 110-42 0-47-63-36-110-37v79zm0 115c55-2 124 14 124-45 0-56-70-42-124-44v89" id="bY"/><path fill="#333" d="M106-169C34-169 62-67 57 0H25v-261h32l-1 103c12-21 28-36 61-36 89 0 53 116 60 194h-32v-121c2-32-8-49-39-48" id="bZ"/><g id="I"><use transform="matrix(0.049382716049382706,0,0,0.049382716049382706,0,0)" xlink:href="#bY"/><use transform="matrix(0.049382716049382706,0,0,0.049382716049382706,11.85185185185185,0)" xlink:href="#aF"/><use transform="matrix(0.049382716049382706,0,0,0.049382716049382706,21.728395061728392,0)" xlink:href="#aG"/><use transform="matrix(0.049382716049382706,0,0,0.049382716049382706,26.666666666666668,0)" xlink:href="#aC"/><use transform="matrix(0.049382716049382706,0,0,0.049382716049382706,35.55555555555555,0)" xlink:href="#bZ"/></g><path fill="#333" d="M30-248c118-7 216 8 213 122C240-48 200 0 122 0H30v-248zM63-27c89 8 146-16 146-99s-60-101-146-95v194" id="ca"/><g id="J"><use transform="matrix(0.049382716049382706,0,0,0.049382716049382706,0,0)" xlink:href="#ca"/><use transform="matrix(0.049382716049382706,0,0,0.049382716049382706,12.790123456790122,0)" xlink:href="#aF"/><use transform="matrix(0.049382716049382706,0,0,0.049382716049382706,22.666666666666664,0)" xlink:href="#aG"/><use transform="matrix(0.049382716049382706,0,0,0.049382716049382706,27.60493827160494,0)" xlink:href="#aF"/></g><path fill="#333" d="M185-189c-5-48-123-54-124 2 14 75 158 14 163 119 3 78-121 87-175 55-17-10-28-26-33-46l33-7c5 56 141 63 141-1 0-78-155-14-162-118-5-82 145-84 179-34 5 7 8 16 11 25" id="cb"/><path fill="#333" d="M177-190C167-65 218 103 67 71c-23-6-38-20-44-43l32-5c15 47 100 32 89-28v-30C133-14 115 1 83 1 29 1 15-40 15-95c0-56 16-97 71-98 29-1 48 16 59 35 1-10 0-23 2-32h30zM94-22c36 0 50-32 50-73 0-42-14-75-50-75-39 0-46 34-46 75s6 73 46 73" id="cc"/><g id="K"><use transform="matrix(0.049382716049382706,0,0,0.049382716049382706,0,0)" xlink:href="#cb"/><use transform="matrix(0.049382716049382706,0,0,0.049382716049382706,11.85185185185185,0)" xlink:href="#aG"/><use transform="matrix(0.049382716049382706,0,0,0.049382716049382706,16.79012345679012,0)" xlink:href="#az"/><use transform="matrix(0.049382716049382706,0,0,0.049382716049382706,22.66666666666666,0)" xlink:href="#av"/><use transform="matrix(0.049382716049382706,0,0,0.049382716049382706,32.5432098765432,0)" xlink:href="#aF"/><use transform="matrix(0.049382716049382706,0,0,0.049382716049382706,42.419753086419746,0)" xlink:href="#aI"/><use transform="matrix(0.049382716049382706,0,0,0.049382716049382706,57.185185185185176,0)" xlink:href="#aA"/><use transform="matrix(0.049382716049382706,0,0,0.049382716049382706,61.08641975308641,0)" xlink:href="#aB"/><use transform="matrix(0.049382716049382706,0,0,0.049382716049382706,70.96296296296295,0)" xlink:href="#cc"/></g><g id="L"><use transform="matrix(0.049382716049382706,0,0,0.049382716049382706,0,0)" xlink:href="#ca"/><use transform="matrix(0.049382716049382706,0,0,0.049382716049382706,12.790123456790122,0)" xlink:href="#aF"/><use transform="matrix(0.049382716049382706,0,0,0.049382716049382706,22.666666666666664,0)" xlink:href="#aG"/><use transform="matrix(0.049382716049382706,0,0,0.049382716049382706,27.60493827160494,0)" xlink:href="#aF"/></g><path fill="#333" d="M234-2c-28 10-62 0-77-18C117 19 8 12 13-65c3-43 29-61 60-76-25-40-17-114 47-108 35 3 59 15 59 50 0 44-40 53-71 69 14 26 32 50 51 72 14-21 24-43 30-72l26 8c-9 33-21 57-38 82 13 13 33 22 57 15v23zM97-151c25-10 52-18 56-48-1-18-13-29-33-29-42 0-39 50-23 77zM42-66c-3 51 71 58 98 28-20-24-41-51-56-80-23 10-40 24-42 52" id="cd"/><use transform="matrix(0.049382716049382706,0,0,0.049382716049382706,0,0)" xlink:href="#cd" id="M"/><path fill="#333" d="M233-177c-1 41-23 64-60 70L243 0h-38l-65-103H63V0H30v-248c88 3 205-21 203 71zM63-129c60-2 137 13 137-47 0-61-80-42-137-45v92" id="ce"/><path fill="#333" d="M145-31C134-9 116 4 85 4 32 4 16-35 15-94c0-59 17-99 70-100 32-1 48 14 60 33 0-11-1-24 2-32h30l-1 268h-32zM93-21c41 0 51-33 51-76s-8-73-50-73c-40 0-46 35-46 75s5 74 45 74" id="cf"/><g id="N"><use transform="matrix(0.049382716049382706,0,0,0.049382716049382706,0,0)" xlink:href="#ce"/><use transform="matrix(0.049382716049382706,0,0,0.049382716049382706,12.790123456790122,0)" xlink:href="#av"/><use transform="matrix(0.049382716049382706,0,0,0.049382716049382706,22.666666666666664,0)" xlink:href="#cf"/><use transform="matrix(0.049382716049382706,0,0,0.049382716049382706,32.5432098765432,0)" xlink:href="#aQ"/><use transform="matrix(0.049382716049382706,0,0,0.049382716049382706,42.419753086419746,0)" xlink:href="#av"/><use transform="matrix(0.049382716049382706,0,0,0.049382716049382706,52.29629629629628,0)" xlink:href="#aN"/><use transform="matrix(0.049382716049382706,0,0,0.049382716049382706,61.185185185185176,0)" xlink:href="#aG"/><use transform="matrix(0.049382716049382706,0,0,0.049382716049382706,66.12345679012344,0)" xlink:href="#aN"/></g><g id="O"><use transform="matrix(0.049382716049382706,0,0,0.049382716049382706,0,0)" xlink:href="#bx"/><use transform="matrix(0.049382716049382706,0,0,0.049382716049382706,10.370370370370368,0)" xlink:href="#by"/></g><g id="P"><use transform="matrix(0.049382716049382706,0,0,0.049382716049382706,0,0)" xlink:href="#bA"/><use transform="matrix(0.049382716049382706,0,0,0.049382716049382706,14.765432098765428,0)" xlink:href="#bB"/><use transform="matrix(0.049382716049382706,0,0,0.049382716049382706,18.66666666666666,0)" xlink:href="#bC"/><use transform="matrix(0.049382716049382706,0,0,0.049382716049382706,28.543209876543205,0)" xlink:href="#bD"/><use transform="matrix(0.049382716049382706,0,0,0.049382716049382706,38.419753086419746,0)" xlink:href="#bE"/><use transform="matrix(0.049382716049382706,0,0,0.049382716049382706,43.35802469135802,0)" xlink:href="#bF"/></g><path fill="#333" d="M416-208H162L90-6c-1 4-3 6-8 6H14C9 0 7-3 8-8l218-607c3-8 6-15 7-41 0-3 2-5 5-5h98c4 0 5 1 6 5L577-7c2 4 1 7-4 7h-76c-4 0-6-2-8-5zm-231-77h208c-23-65-84-242-105-308-17 64-65 198-103 308" id="cg"/><path fill="#333" d="M451-27C262 61 35-3 35-239c0-166 143-285 335-251v-221c0-5 2-6 6-6h72c5 0 6 2 6 5 1 225-3 456 2 678 0 4-1 5-5 7zm-81-49v-338c-134-40-254 46-250 171C125-80 243-39 370-76" id="ch"/><path fill="#333" d="M265-496c141 0 228 108 228 252 0 152-94 254-228 254C104 10 35-120 35-243c0-141 90-253 230-253zm-4 72c-84 0-142 72-142 179 0 102 53 183 148 183 71 0 141-56 141-180 0-93-43-182-147-182" id="ci"/><path fill="#333" d="M77-717h70c5 0 7 0 7 6v235c170-67 342 39 336 214C482-30 279 53 76-10c-4-1-6-5-6-9v-692c0-5 2-6 7-6zm328 462c0-102-60-168-156-168-43 0-70 7-95 17v336c132 31 251-31 251-185" id="cj"/><path fill="#333" d="M440-237c-86 8-224 2-321 4-1 95 54 170 167 170 44 0 86-8 125-27 3-2 5 0 5 4-2 21 5 54-5 67-34 17-78 29-141 29C97 10 35-117 35-239c0-140 82-257 221-257 163 0 209 131 191 253 0 3-3 6-7 6zm-134-58c58-5 64 10 65-13 0-36-24-119-118-119-83 0-124 65-133 132h186" id="ck"/><g id="Q"><use transform="matrix(0.024444444444444432,0,0,0.024444444444444432,0,0)" xlink:href="#cg"/><use transform="matrix(0.024444444444444432,0,0,0.024444444444444432,14.39777777777777,0)" xlink:href="#ch"/><use transform="matrix(0.024444444444444432,0,0,0.024444444444444432,27.206666666666653,0)" xlink:href="#ci"/><use transform="matrix(0.024444444444444432,0,0,0.024444444444444432,40.08888888888887,0)" xlink:href="#cj"/><use transform="matrix(0.024444444444444432,0,0,0.024444444444444432,53.117777777777754,0)" xlink:href="#ck"/></g><path fill="#333" d="M486-70L475-6c-1 5-3 6-7 6H88c-7 0-8-2-8-8v-646c0-5 2-7 7-7h365c5 0 6 1 7 6l8 63c1 4 0 7-5 7H163v209h270c4 0 6 2 6 6v64c0 5-3 6-6 6H163v224h318c5 0 6 2 5 6" id="cl"/><path fill="#333" d="M158-243L3-478c-3-4-1-8 3-8h82c6 0 8 2 10 6 40 62 77 127 118 188l122-189c2-4 4-5 8-5h74c4 0 6 3 3 7-39 58-115 172-159 232C304-187 395-55 430-7c3 3 1 7-4 7h-84c-5 0-8-2-10-6-42-64-81-129-124-192L84-5c-2 4-3 5-8 5H2c-5 0-7-3-4-7 46-66 114-171 160-236" id="cm"/><path fill="#333" d="M256-496c148 0 234 102 234 236C490-61 327 28 153 6v200c0 4 0 6-5 7-23 2-69 7-73 8-4 0-5-1-5-6v-671c35-13 101-40 186-40zm-10 73c-35 0-65 6-93 16v339c131 25 252-33 252-187 0-102-58-168-159-168" id="cn"/><path fill="#333" d="M70-486h64c6 0 7 2 9 7 4 12 7 47 8 69 35-48 97-86 161-86 5 0 7 1 7 7v72c0 5-1 6-7 6-69-1-132 33-157 73L154-6c0 5-2 6-6 6H77c-5 0-7-2-7-7-2-155 5-327-5-473 0-4 1-6 5-6" id="co"/><path fill="#333" d="M70-8v-471c0-5 2-7 7-7h71c4 0 6 1 6 6V-7c0 5-1 7-7 7H78c-5 0-8-2-8-8zm42-574c-31 0-50-21-50-51s21-51 51-51c32 0 50 22 50 51 0 30-20 51-51 51" id="cp"/><path fill="#333" d="M134-486c18 5 10 28 15 56 44-44 95-66 153-66 71 0 163 35 163 193V-7c0 5-2 7-7 7h-70c-5 0-7-2-7-8v-287c0-76-33-127-103-127-51 0-93 23-125 61V-7c0 5-1 7-6 7H76c-4 0-6-2-6-7-2-155 4-326-4-473 0-4 1-6 6-6h62" id="cq"/><path fill="#333" d="M395-75v62c0 4 0 6-4 7-33 13-72 16-109 16C119 10 35-106 35-241c0-178 167-297 356-242 9 17 2 49 4 72 0 5-3 5-7 4-129-48-272 19-268 163C124-87 258-37 389-79c5-1 6 1 6 4" id="cr"/><g id="R"><use transform="matrix(0.024444444444444432,0,0,0.024444444444444432,0,0)" xlink:href="#cl"/><use transform="matrix(0.024444444444444432,0,0,0.024444444444444432,13.297777777777767,0)" xlink:href="#cm"/><use transform="matrix(0.024444444444444432,0,0,0.024444444444444432,23.882222222222207,0)" xlink:href="#cn"/><use transform="matrix(0.024444444444444432,0,0,0.024444444444444432,36.91111111111109,0)" xlink:href="#ck"/><use transform="matrix(0.024444444444444432,0,0,0.024444444444444432,48.69333333333331,0)" xlink:href="#co"/><use transform="matrix(0.024444444444444432,0,0,0.024444444444444432,56.637777777777735,0)" xlink:href="#cp"/><use transform="matrix(0.024444444444444432,0,0,0.024444444444444432,62.13777777777774,0)" xlink:href="#ck"/><use transform="matrix(0.024444444444444432,0,0,0.024444444444444432,73.91999999999996,0)" xlink:href="#cq"/><use transform="matrix(0.024444444444444432,0,0,0.024444444444444432,86.99777777777773,0)" xlink:href="#cr"/><use transform="matrix(0.024444444444444432,0,0,0.024444444444444432,97.2644444444444,0)" xlink:href="#ck"/></g><path fill="#333" d="M80-6v-647c0-4 1-7 5-7 32-1 98-3 165-3 177 0 255 100 255 212-1 179-157 238-342 222V-7c0 5-1 7-6 7H86c-4 0-6-2-6-6zm83-581v283c129 9 259-8 259-145 0-91-70-140-171-140-41 0-72 1-88 2" id="cs"/><path fill="#333" d="M217-5c-5 16-25 15-51 15-49 0-96-17-96-111v-610c0-5 2-6 7-6h70c5 0 6 2 6 6v603c0 48 26 52 60 45 3 0 4 2 4 6v52" id="ct"/><path fill="#333" d="M323-75v-157c-14-2-36-4-66-4-97 0-144 33-144 89 0 45 31 89 119 89 32 0 62-5 91-17zm81-233c0 91 1 191 0 275C258 41 36 32 31-147c-4-128 147-165 292-151 2-57-3-124-113-124-48 0-92 11-127 30-3 1-7 0-7-5 3-22-6-55 5-69 39-19 89-30 142-30 128 0 181 84 181 188" id="cu"/><path fill="#333" d="M279-65c-3 20 7 50-6 61C177 29 81 9 81-121v-293H13c-6-1-7-3-7-8v-57c0-5 2-7 7-7h68c1-37 5-106 9-128 1-4 3-6 7-7l68-11c4-1 6 0 6 4-3 35-6 93-6 142h106c4 0 6 2 6 7v59c0 4-2 6-6 6H165v281c-7 67 51 85 108 64 3-1 6-1 6 4" id="cv"/><path fill="#333" d="M79-486c-13-159 53-266 200-234 5 1 5 4 5 8v59c0 4-2 6-6 5-74-15-114 3-116 117v45h96c4 0 6 2 6 5v60c0 5-2 6-6 7h-96V-7c0 4-1 7-6 7H85c-4 0-6-2-6-7v-407H14c-4 0-6-2-6-7v-59c0-4 2-6 6-6h65" id="cw"/><path fill="#333" d="M135-486c16 4 10 33 14 53 78-81 227-91 283 10 42-41 94-73 167-73 74 0 162 39 162 191V-6c0 4-2 6-7 6h-69c-5 0-7-2-7-7v-292c0-68-31-123-102-123-50 0-91 22-123 58 11 108 2 241 5 357 0 5-2 7-7 7h-70c-5 0-7-2-7-7v-295c0-76-35-120-100-120-47 0-83 18-121 56V-6c0 4-1 6-6 6H76c-5 0-6-2-6-7-2-154 4-327-4-473 0-4 1-6 6-6h63" id="cx"/><g id="S"><use transform="matrix(0.024444444444444432,0,0,0.024444444444444432,0,0)" xlink:href="#cs"/><use transform="matrix(0.024444444444444432,0,0,0.024444444444444432,13.151111111111101,0)" xlink:href="#ct"/><use transform="matrix(0.024444444444444432,0,0,0.024444444444444432,19.139999999999986,0)" xlink:href="#cu"/><use transform="matrix(0.024444444444444432,0,0,0.024444444444444432,30.726666666666645,0)" xlink:href="#cv"/><use transform="matrix(0.024444444444444432,0,0,0.024444444444444432,37.962222222222195,0)" xlink:href="#cw"/><use transform="matrix(0.024444444444444432,0,0,0.024444444444444432,44.48888888888886,0)" xlink:href="#ci"/><use transform="matrix(0.024444444444444432,0,0,0.024444444444444432,57.371111111111084,0)" xlink:href="#co"/><use transform="matrix(0.024444444444444432,0,0,0.024444444444444432,65.31555555555552,0)" xlink:href="#cx"/></g><path fill="#7f0000" d="M30 0v-248h187v28H63v79h144v27H63v87h162V0H30" id="cy"/><path fill="#7f0000" d="M85-194c31 0 48 13 60 33l-1-100h32l1 261h-30c-2-10 0-23-3-31C134-8 116 4 85 4 32 4 16-35 15-94c0-66 23-100 70-100zm9 24c-40 0-46 34-46 75 0 40 6 74 45 74 42 0 51-32 51-76 0-42-9-74-50-73" id="cz"/><g id="T"><use transform="matrix(0.06172839506172839,0,0,0.06172839506172839,0,0)" xlink:href="#cy"/><use transform="matrix(0.06172839506172839,0,0,0.06172839506172839,14.814814814814813,0)" xlink:href="#cz"/><use transform="matrix(0.06172839506172839,0,0,0.06172839506172839,27.160493827160494,0)" xlink:href="#bk"/><use transform="matrix(0.06172839506172839,0,0,0.06172839506172839,39.50617283950617,0)" xlink:href="#bj"/></g><path fill="#7f0000" d="M190 0L58-211 59 0H30v-248h39L202-35l-2-213h31V0h-41" id="cA"/><path fill="#7f0000" d="M206 0h-36l-40-164L89 0H53L-1-190h32L70-26l43-164h34l41 164 42-164h31" id="cB"/><path fill="#7f0000" d="M114-163C36-179 61-72 57 0H25l-1-190h30c1 12-1 29 2 39 6-27 23-49 58-41v29" id="cC"/><path fill="#7f0000" d="M143 0L79-87 56-68V0H24v-261h32v163l83-92h37l-77 82L181 0h-38" id="cD"/><g id="U"><use transform="matrix(0.06172839506172839,0,0,0.06172839506172839,0,0)" xlink:href="#cA"/><use transform="matrix(0.06172839506172839,0,0,0.06172839506172839,15.987654320987653,0)" xlink:href="#bj"/><use transform="matrix(0.06172839506172839,0,0,0.06172839506172839,28.333333333333332,0)" xlink:href="#bn"/><use transform="matrix(0.06172839506172839,0,0,0.06172839506172839,34.50617283950617,0)" xlink:href="#cB"/><use transform="matrix(0.06172839506172839,0,0,0.06172839506172839,50.49382716049382,0)" xlink:href="#bq"/><use transform="matrix(0.06172839506172839,0,0,0.06172839506172839,62.8395061728395,0)" xlink:href="#cC"/><use transform="matrix(0.06172839506172839,0,0,0.06172839506172839,70.18518518518518,0)" xlink:href="#cD"/></g><path fill="#7f0000" d="M234-2c-28 10-62 0-77-18C117 19 8 12 13-65c3-43 29-61 60-76-25-40-17-114 47-108 35 3 59 15 59 50 0 44-40 53-71 69 14 26 32 50 51 72 14-21 24-43 30-72l26 8c-9 33-21 57-38 82 13 13 33 22 57 15v23zM97-151c25-10 52-18 56-48-1-18-13-29-33-29-42 0-39 50-23 77zM42-66c-3 51 71 58 98 28-20-24-41-51-56-80-23 10-40 24-42 52" id="cE"/><use transform="matrix(0.06172839506172839,0,0,0.06172839506172839,0,0)" xlink:href="#cE" id="V"/><path fill="#7f0000" d="M30-248c87 1 191-15 191 75 0 78-77 80-158 76V0H30v-248zm33 125c57 0 124 11 124-50 0-59-68-47-124-48v98" id="cF"/><path fill="#7f0000" d="M101-234c-31-9-42 10-38 44h38v23H63V0H32v-167H5v-23h27c-7-52 17-82 69-68v24" id="cG"/><path fill="#7f0000" d="M24 0v-261h32V0H24" id="cH"/><g id="W"><use transform="matrix(0.06172839506172839,0,0,0.06172839506172839,0,0)" xlink:href="#cF"/><use transform="matrix(0.06172839506172839,0,0,0.06172839506172839,14.814814814814813,0)" xlink:href="#cC"/><use transform="matrix(0.06172839506172839,0,0,0.06172839506172839,22.160493827160494,0)" xlink:href="#bq"/><use transform="matrix(0.06172839506172839,0,0,0.06172839506172839,34.50617283950617,0)" xlink:href="#cG"/><use transform="matrix(0.06172839506172839,0,0,0.06172839506172839,40.67901234567901,0)" xlink:href="#bp"/><use transform="matrix(0.06172839506172839,0,0,0.06172839506172839,45.55555555555556,0)" xlink:href="#cH"/><use transform="matrix(0.06172839506172839,0,0,0.06172839506172839,50.4320987654321,0)" xlink:href="#bj"/></g><use transform="matrix(0.049382716049382706,0,0,0.049382716049382706,0,0)" xlink:href="#bx" id="X"/><g id="Y"><use transform="matrix(0.049382716049382706,0,0,0.049382716049382706,0,0)" xlink:href="#by"/><use transform="matrix(0.049382716049382706,0,0,0.049382716049382706,9.87654320987654,0)" xlink:href="#bz"/><use transform="matrix(0.049382716049382706,0,0,0.049382716049382706,19.75308641975308,0)" xlink:href="#bz"/></g><g id="Z"><use transform="matrix(0.049382716049382706,0,0,0.049382716049382706,0,0)" xlink:href="#bA"/><use transform="matrix(0.049382716049382706,0,0,0.049382716049382706,14.765432098765428,0)" xlink:href="#bG"/></g><g id="aa"><use transform="matrix(0.049382716049382706,0,0,0.049382716049382706,0,0)" xlink:href="#bx"/><use transform="matrix(0.049382716049382706,0,0,0.049382716049382706,10.370370370370368,0)" xlink:href="#by"/><use transform="matrix(0.049382716049382706,0,0,0.049382716049382706,20.24691358024691,0)" xlink:href="#bz"/><use transform="matrix(0.049382716049382706,0,0,0.049382716049382706,30.123456790123452,0)" xlink:href="#bz"/></g><path fill="#333" d="M317-398c-28-17-74-29-116-29-66 0-88 32-88 62s18 51 93 81c101 39 142 80 142 151 0 92-75 143-179 143C114 10 64-2 35-19c-11-16-2-52-5-76 0-5 3-7 6-5 59 51 230 63 230-25 0-37-22-59-91-86C75-249 33-290 33-361c0-72 61-135 170-135 55 0 96 10 117 22 11 15 2 48 5 71 0 5-3 8-8 5" id="cI"/><path fill="#333" d="M374 0H15c-8-10-4-40-2-55 68-99 233-314 265-360-59 2-183 1-254 1-6 0-7-2-6-8l11-58c1-4 3-6 7-6h337c4 0 5 2 5 6-2 19 4 41-4 54C273-279 142-109 114-71c76-1 190 0 274 0 5 0 7 1 5 6L381-6c-1 5-4 6-7 6" id="cJ"/><g id="ab"><use transform="matrix(0.01555555555555555,0,0,0.01555555555555555,0,0)" xlink:href="#cs"/><use transform="matrix(0.01555555555555555,0,0,0.01555555555555555,8.275555555555552,0)" xlink:href="#ck"/><use transform="matrix(0.01555555555555555,0,0,0.01555555555555555,15.773333333333326,0)" xlink:href="#co"/><use transform="matrix(0.01555555555555555,0,0,0.01555555555555555,21.10888888888888,0)" xlink:href="#cI"/><use transform="matrix(0.01555555555555555,0,0,0.01555555555555555,27.082222222222214,0)" xlink:href="#ci"/><use transform="matrix(0.01555555555555555,0,0,0.01555555555555555,35.27999999999999,0)" xlink:href="#cq"/><use transform="matrix(0.01555555555555555,0,0,0.01555555555555555,43.60222222222221,0)" xlink:href="#cu"/><use transform="matrix(0.01555555555555555,0,0,0.01555555555555555,50.97555555555554,0)" xlink:href="#ct"/><use transform="matrix(0.01555555555555555,0,0,0.01555555555555555,54.72444444444442,0)" xlink:href="#cp"/><use transform="matrix(0.01555555555555555,0,0,0.01555555555555555,58.473333333333315,0)" xlink:href="#cJ"/><use transform="matrix(0.01555555555555555,0,0,0.01555555555555555,64.81999999999998,0)" xlink:href="#ck"/><use transform="matrix(0.01555555555555555,0,0,0.01555555555555555,72.45777777777775,0)" xlink:href="#ch"/></g><g id="ac"><use transform="matrix(0.01555555555555555,0,0,0.01555555555555555,0,0)" xlink:href="#cl"/><use transform="matrix(0.01555555555555555,0,0,0.01555555555555555,8.46222222222222,0)" xlink:href="#cm"/><use transform="matrix(0.01555555555555555,0,0,0.01555555555555555,15.197777777777773,0)" xlink:href="#cn"/><use transform="matrix(0.01555555555555555,0,0,0.01555555555555555,23.48888888888888,0)" xlink:href="#ck"/><use transform="matrix(0.01555555555555555,0,0,0.01555555555555555,30.986666666666654,0)" xlink:href="#co"/><use transform="matrix(0.01555555555555555,0,0,0.01555555555555555,36.04222222222221,0)" xlink:href="#cp"/><use transform="matrix(0.01555555555555555,0,0,0.01555555555555555,39.54222222222221,0)" xlink:href="#ck"/><use transform="matrix(0.01555555555555555,0,0,0.01555555555555555,47.039999999999985,0)" xlink:href="#cq"/><use transform="matrix(0.01555555555555555,0,0,0.01555555555555555,55.3622222222222,0)" xlink:href="#cr"/><use transform="matrix(0.01555555555555555,0,0,0.01555555555555555,61.89555555555553,0)" xlink:href="#ck"/></g><path fill="#333" d="M112-655c1-6 3-6 7-6h111c5 0 6 2 8 6 35 103 154 463 177 549 23-83 156-447 190-549 1-4 2-6 7-6h108c5 0 5 1 6 5L760-6c1 4-2 6-6 6h-74c-5 0-7-1-7-5-10-230-18-538-20-597-24 90-158 468-200 596-1 5-4 6-8 6h-70c-6 0-8-1-9-6-54-166-156-499-187-597-1 87-19 387-30 597 0 5-2 6-7 6H74c-5 0-6-1-6-6" id="cK"/><g id="ad"><use transform="matrix(0.013333333333333329,0,0,0.013333333333333329,0,0)" xlink:href="#cK"/><use transform="matrix(0.013333333333333329,0,0,0.013333333333333329,10.946666666666662,0)" xlink:href="#ci"/><use transform="matrix(0.013333333333333329,0,0,0.013333333333333329,17.973333333333326,0)" xlink:href="#cj"/><use transform="matrix(0.013333333333333329,0,0,0.013333333333333329,24.973333333333322,0)" xlink:href="#cp"/><use transform="matrix(0.013333333333333329,0,0,0.013333333333333329,27.973333333333326,0)" xlink:href="#ct"/><use transform="matrix(0.013333333333333329,0,0,0.013333333333333329,31.18666666666665,0)" xlink:href="#ck"/></g><path fill="#333" d="M80-8v-644c0-5 1-7 6-8 25-1 76-3 175-3 226 0 348 131 348 321C609-89 419 2 251 2 195 2 120 1 85 0c-4 0-5-3-5-8zm83-579v513c210 22 361-54 361-267 0-166-114-248-265-248-35 0-67 1-96 2" id="cL"/><path fill="#333" d="M364-481c21-11 61-2 90-5 5 0 7 4 3 8-28 31-179 177-216 213-1 1 0 3 0 4C306-193 415-80 488-7c3 3 1 7-4 7h-95c-5 0-7-2-10-5-52-53-178-185-226-237V-7c0 5-1 7-6 7H77c-6 0-7-2-7-7v-704c0-4 1-6 7-6h70c4 0 6 2 6 6v448c47-47 185-190 211-218" id="cM"/><g id="ae"><use transform="matrix(0.013333333333333329,0,0,0.013333333333333329,0,0)" xlink:href="#cL"/><use transform="matrix(0.013333333333333329,0,0,0.013333333333333329,8.77333333333333,0)" xlink:href="#ck"/><use transform="matrix(0.013333333333333329,0,0,0.013333333333333329,15.439999999999994,0)" xlink:href="#cI"/><use transform="matrix(0.013333333333333329,0,0,0.013333333333333329,20.42666666666666,0)" xlink:href="#cM"/><use transform="matrix(0.013333333333333329,0,0,0.013333333333333329,26.933333333333323,0)" xlink:href="#cv"/><use transform="matrix(0.013333333333333329,0,0,0.013333333333333329,30.83999999999999,0)" xlink:href="#ci"/><use transform="matrix(0.013333333333333329,0,0,0.013333333333333329,37.86666666666665,0)" xlink:href="#cn"/></g><path fill="#0c7cba" d="M110-160c48 1 74 30 74 79 0 53-28 85-80 85-65 0-83-55-86-122-5-90 50-162 133-122 14 7 22 21 27 39l-31 6c-5-40-67-38-82-6-9 19-15 44-15 74 11-20 30-34 60-33zm-7 138c34 0 49-23 49-58s-16-56-50-56c-29 0-50 16-49 49 1 36 15 65 50 65" id="cN"/><g id="af"><use transform="matrix(0.049382716049382706,0,0,0.049382716049382706,0,0)" xlink:href="#bx"/><use transform="matrix(0.049382716049382706,0,0,0.049382716049382706,10.370370370370368,0)" xlink:href="#cN"/><use transform="matrix(0.049382716049382706,0,0,0.049382716049382706,20.24691358024691,0)" xlink:href="#bz"/></g><path fill="#0c7cba" d="M198-261c85 0 136 45 136 128 0 61-22 111-78 115-29 2-39-18-37-44-12 23-32 44-66 44-41 0-58-28-58-68 0-60 30-105 88-108 29-1 43 15 54 32l7-28h28c-9 45-23 84-27 134-1 11 6 17 14 16 39-4 51-48 51-92 0-69-42-107-112-107-93 0-145 59-145 153C53-15 94 26 168 27c43 0 78-13 106-28l9 19c-30 18-67 32-115 32C79 50 28-1 28-86c0-107 62-175 170-175zM158-41c46 0 70-43 70-90 0-26-17-40-43-40-44 0-59 41-61 85-1 26 9 45 34 45" id="cO"/><path fill="#0c7cba" d="M101-251c82-7 93 87 43 132L82-64C71-53 59-42 53-27h129V0H18c2-99 128-94 128-182 0-28-16-43-45-43s-46 15-49 41l-32-3c6-41 34-60 81-64" id="cP"/><g id="ag"><use transform="matrix(0.049382716049382706,0,0,0.049382716049382706,0,0)" xlink:href="#cO"/><use transform="matrix(0.049382716049382706,0,0,0.049382716049382706,18.024691358024686,0)" xlink:href="#cP"/><use transform="matrix(0.049382716049382706,0,0,0.049382716049382706,27.90123456790123,0)" xlink:href="#bz"/><use transform="matrix(0.049382716049382706,0,0,0.049382716049382706,37.77777777777777,0)" xlink:href="#bz"/><use transform="matrix(0.049382716049382706,0,0,0.049382716049382706,47.654320987654316,0)" xlink:href="#bJ"/><use transform="matrix(0.049382716049382706,0,0,0.049382716049382706,61.48148148148147,0)" xlink:href="#bK"/></g><g id="ah"><use transform="matrix(0.049382716049382706,0,0,0.049382716049382706,0,0)" xlink:href="#bT"/><use transform="matrix(0.049382716049382706,0,0,0.049382716049382706,9.87654320987654,0)" xlink:href="#bU"/><use transform="matrix(0.049382716049382706,0,0,0.049382716049382706,19.75308641975308,0)" xlink:href="#bD"/><use transform="matrix(0.049382716049382706,0,0,0.049382716049382706,29.629629629629623,0)" xlink:href="#bI"/></g><g id="ai"><use transform="matrix(0.049382716049382706,0,0,0.049382716049382706,0,0)" xlink:href="#bx"/><use transform="matrix(0.049382716049382706,0,0,0.049382716049382706,10.370370370370368,0)" xlink:href="#cP"/></g><g id="aj"><use transform="matrix(0.049382716049382706,0,0,0.049382716049382706,0,0)" xlink:href="#bG"/><use transform="matrix(0.049382716049382706,0,0,0.049382716049382706,8.888888888888888,0)" xlink:href="#bF"/><use transform="matrix(0.049382716049382706,0,0,0.049382716049382706,18.76543209876543,0)" xlink:href="#bR"/><use transform="matrix(0.049382716049382706,0,0,0.049382716049382706,27.654320987654316,0)" xlink:href="#bU"/><use transform="matrix(0.049382716049382706,0,0,0.049382716049382706,37.53086419753086,0)" xlink:href="#bC"/><use transform="matrix(0.049382716049382706,0,0,0.049382716049382706,47.407407407407405,0)" xlink:href="#bX"/><use transform="matrix(0.049382716049382706,0,0,0.049382716049382706,57.28395061728395,0)" xlink:href="#bG"/></g><g id="ak"><use transform="matrix(0.049382716049382706,0,0,0.049382716049382706,0,0)" xlink:href="#bN"/><use transform="matrix(0.049382716049382706,0,0,0.049382716049382706,12.790123456790122,0)" xlink:href="#bH"/><use transform="matrix(0.049382716049382706,0,0,0.049382716049382706,22.666666666666664,0)" xlink:href="#bH"/><use transform="matrix(0.049382716049382706,0,0,0.049382716049382706,32.5432098765432,0)" xlink:href="#bF"/><use transform="matrix(0.049382716049382706,0,0,0.049382716049382706,42.419753086419746,0)" xlink:href="#bI"/></g><path fill="#0c7cba" d="M18-100v-36l175-74v27L42-118l151 64v27" id="cQ"/><path fill="#0c7cba" d="M115-194c53 0 69 39 70 98 0 66-23 100-70 100C84 3 66-7 56-30L54 0H23l1-261h32v101c10-23 28-34 59-34zm-8 174c40 0 45-34 45-75 0-40-5-75-45-74-42 0-51 32-51 76 0 43 10 73 51 73" id="cR"/><g id="al"><use transform="matrix(0.049382716049382706,0,0,0.049382716049382706,0,0)" xlink:href="#cQ"/><use transform="matrix(0.049382716049382706,0,0,0.049382716049382706,10.370370370370368,0)" xlink:href="#by"/><use transform="matrix(0.049382716049382706,0,0,0.049382716049382706,20.24691358024691,0)" xlink:href="#bA"/><use transform="matrix(0.049382716049382706,0,0,0.049382716049382706,35.01234567901234,0)" xlink:href="#cR"/></g><g id="am"><use transform="matrix(0.049382716049382706,0,0,0.049382716049382706,0,0)" xlink:href="#bI"/><use transform="matrix(0.049382716049382706,0,0,0.049382716049382706,5.876543209876542,0)" xlink:href="#bF"/><use transform="matrix(0.049382716049382706,0,0,0.049382716049382706,15.75308641975308,0)" xlink:href="#bR"/><use transform="matrix(0.049382716049382706,0,0,0.049382716049382706,24.641975308641968,0)" xlink:href="#bU"/><use transform="matrix(0.049382716049382706,0,0,0.049382716049382706,34.518518518518505,0)" xlink:href="#bI"/><use transform="matrix(0.049382716049382706,0,0,0.049382716049382706,40.39506172839505,0)" xlink:href="#bX"/></g><g id="an"><use transform="matrix(0.049382716049382706,0,0,0.049382716049382706,0,0)" xlink:href="#bx"/><use transform="matrix(0.049382716049382706,0,0,0.049382716049382706,10.370370370370368,0)" xlink:href="#by"/><use transform="matrix(0.049382716049382706,0,0,0.049382716049382706,20.24691358024691,0)" xlink:href="#bz"/><use transform="matrix(0.049382716049382706,0,0,0.049382716049382706,30.123456790123452,0)" xlink:href="#bz"/></g><g id="ao"><use transform="matrix(0.049382716049382706,0,0,0.049382716049382706,0,0)" xlink:href="#bA"/><use transform="matrix(0.049382716049382706,0,0,0.049382716049382706,14.765432098765428,0)" xlink:href="#bG"/></g><g id="ap"><use transform="matrix(0.049382716049382706,0,0,0.049382716049382706,0,0)" xlink:href="#bx"/><use transform="matrix(0.049382716049382706,0,0,0.049382716049382706,10.370370370370368,0)" xlink:href="#by"/><use transform="matrix(0.049382716049382706,0,0,0.049382716049382706,20.24691358024691,0)" xlink:href="#bP"/></g><g id="aq"><use transform="matrix(0.049382716049382706,0,0,0.049382716049382706,0,0)" xlink:href="#bA"/><use transform="matrix(0.049382716049382706,0,0,0.049382716049382706,14.765432098765428,0)" xlink:href="#bB"/><use transform="matrix(0.049382716049382706,0,0,0.049382716049382706,18.66666666666666,0)" xlink:href="#bC"/><use transform="matrix(0.049382716049382706,0,0,0.049382716049382706,28.543209876543205,0)" xlink:href="#bD"/><use transform="matrix(0.049382716049382706,0,0,0.049382716049382706,38.419753086419746,0)" xlink:href="#bE"/><use transform="matrix(0.049382716049382706,0,0,0.049382716049382706,43.35802469135802,0)" xlink:href="#bF"/><use transform="matrix(0.049382716049382706,0,0,0.049382716049382706,53.234567901234556,0)" xlink:href="#bG"/></g></defs></g></svg>