<svg xmlns="http://www.w3.org/2000/svg" xmlns:xlink="http://www.w3.org/1999/xlink" xmlns:lucid="lucid" width="1403.63" height="878.8"><g transform="translate(-9.706275745116827 -7.105427357601002e-15)" lucid:page-tab-id="_J0Igd.gFvQU"><path d="M324.33 628.9a6 6 0 0 1 6-6h383.24a6 6 0 0 1 6 6v223.9a6 6 0 0 1-6 6H330.33a6 6 0 0 1-6-6z" stroke="#7f0000" fill="#dab7b5" fill-opacity=".11"/><path d="M377.44 581.62a6 6 0 0 1 6-6h308.84a6 6 0 0 1 6 6v37.05a6 6 0 0 1-6 6H383.44a6 6 0 0 1-6-6z" stroke="#000" stroke-opacity="0" stroke-width="3" fill="#fff" fill-opacity="0"/><use xlink:href="#a" transform="matrix(1,0,0,1,382.4446490034644,580.6243819320044) translate(0 27.759999999999994)"/><use xlink:href="#b" transform="matrix(1,0,0,1,382.4446490034644,580.6243819320044) translate(93.83999999999999 27.759999999999994)"/><path d="M336.85 644.73a6 6 0 0 1 6-6h358.2a6 6 0 0 1 6 6V773.1a6 6 0 0 1-6 6h-358.2a6 6 0 0 1-6-6z" stroke="#000" stroke-opacity="0" stroke-width="3" fill="#d21002"/><use xlink:href="#c" transform="matrix(1,0,0,1,337.85382055073245,639.7266686637846) translate(45.33500000000004 20.25999999999999)"/><use xlink:href="#d" transform="matrix(1,0,0,1,337.85382055073245,639.7266686637846) translate(128.11500000000004 20.25999999999999)"/><use xlink:href="#e" transform="matrix(1,0,0,1,337.85382055073245,639.7266686637846) translate(210.91500000000002 20.25999999999999)"/><use xlink:href="#f" transform="matrix(1,0,0,1,337.85382055073245,639.7266686637846) translate(253.595 20.25999999999999)"/><path d="M359.17 687.27a6 6 0 0 1 6-6h145.68a6 6 0 0 1 6 6v70.27a6 6 0 0 1-6 6H365.17a6 6 0 0 1-6-6z" stroke="#000" stroke-opacity="0" stroke-width="3" fill="#fff"/><use xlink:href="#g" transform="matrix(1,0,0,1,360.1670576563999,682.2666866060905) translate(6.462222222222238 35.727638888888876)"/><use xlink:href="#h" transform="matrix(1,0,0,1,360.1670576563999,682.2666866060905) translate(80.04444444444444 35.727638888888876)"/><use xlink:href="#i" transform="matrix(1,0,0,1,360.1670576563999,682.2666866060905) translate(54.85333333333334 57.98541666666665)"/><path d="M526.47 687.57a6 6 0 0 1 6-6h145.68a6 6 0 0 1 6 6v25.6a6 6 0 0 1-6 6H532.47a6 6 0 0 1-6-6z" stroke="#000" stroke-opacity="0" stroke-width="3" fill="#fff"/><use xlink:href="#j" transform="matrix(1,0,0,1,527.4669007654259,682.5726322200438) translate(26.31111111111113 24.75888888888888)"/><use xlink:href="#k" transform="matrix(1,0,0,1,527.4669007654259,682.5726322200438) translate(85.33333333333334 24.75888888888888)"/><path d="M526.47 731.93a6 6 0 0 1 6-6h145.68a6 6 0 0 1 6 6v25.6a6 6 0 0 1-6 6H532.47a6 6 0 0 1-6-6z" stroke="#000" stroke-opacity="0" stroke-width="3" fill="#fff"/><use xlink:href="#l" transform="matrix(1,0,0,1,527.4669007654259,726.9310759917115) translate(27.573333333333345 24.75888888888888)"/><path d="M336.85 789.15a6 6 0 0 1 6-6h358.2a6 6 0 0 1 6 6v45.44a6 6 0 0 1-6 6h-358.2a6 6 0 0 1-6-6z" stroke="#000" stroke-opacity="0" stroke-width="3" fill="#d21002"/><use xlink:href="#m" transform="matrix(1,0,0,1,337.8538205507324,784.1538903210214) translate(83.35000000000004 34.25999999999999)"/><use xlink:href="#n" transform="matrix(1,0,0,1,337.8538205507324,784.1538903210214) translate(123.61000000000001 34.25999999999999)"/><use xlink:href="#o" transform="matrix(1,0,0,1,337.8538205507324,784.1538903210214) translate(164.97000000000003 34.25999999999999)"/><use xlink:href="#p" transform="matrix(1,0,0,1,337.8538205507324,784.1538903210214) translate(219.34999999999997 34.25999999999999)"/><path d="M325.75 419.92a6 6 0 0 1 6-6H1174a6 6 0 0 1 6 6v91.45a6 6 0 0 1-6 6H331.75a6 6 0 0 1-6-6z" stroke="#000" stroke-opacity="0" stroke-width="3" fill="#d21002"/><use xlink:href="#q" transform="matrix(1,0,0,1,330.74767939777655,418.9219684528144) translate(365.22 20.259999999999998)"/><use xlink:href="#r" transform="matrix(1,0,0,1,330.74767939777655,418.9219684528144) translate(409.44000000000005 20.259999999999998)"/><path d="M894.57 467.14a6 6 0 0 1 6-6h243.34a6 6 0 0 1 6 6v29.3a6 6 0 0 1-6 6H900.58a6 6 0 0 1-6-6z" stroke="#000" stroke-opacity="0" stroke-width="3" fill="#fff"/><use xlink:href="#s" transform="matrix(1,0,0,1,899.5733845253293,466.14197099159526) translate(27.86419753086423 20.222222222222218)"/><use xlink:href="#t" transform="matrix(1,0,0,1,899.5733845253293,466.14197099159526) translate(108.60493827160495 20.222222222222218)"/><path d="M624.63 467.14a6 6 0 0 1 6-6h243.33a6 6 0 0 1 6 6v29.3a6 6 0 0 1-6 6H630.63a6 6 0 0 1-6-6z" stroke="#000" stroke-opacity="0" stroke-width="3" fill="#fff"/><use xlink:href="#u" transform="matrix(1,0,0,1,629.6252954104108,466.14197099159526) translate(74.67901234567903 20.222222222222218)"/><use xlink:href="#v" transform="matrix(1,0,0,1,629.6252954104108,466.14197099159526) translate(121.09876543209876 20.222222222222218)"/><path d="M827.3 301.66H678" stroke="#000" stroke-opacity=".67" stroke-width="3" fill="none"/><path d="M99.22 801.62c-11.1 0-19.96 3.8-19.96 8.12 0 4.5 8.86 8.12 19.96 8.12 11.1 0 19.97-3.6 19.97-8.12 0-4.33-8.88-8.12-19.98-8.12zm-19.96 13.9v8.85c0 3.45 8.86 7.4 19.96 7.4 11.1 0 19.97-4.06 19.97-7.57l-.13-8.67c-2.52 4.6-9.87 6.5-19.85 6.5-9.98 0-17.05-1.9-19.68-6.5zm0 13.9v20.42c0 3.5 8.86 7.4 19.96 7.4 11.1 0 19.97-4.06 19.97-7.5l-.13-20.3c-2.64 4.6-9.87 6.5-19.85 6.5-9.98 0-17.2-1.9-19.68-6.5zM808.7 224.5c.97 0 1.53.85 1.53 1.63 0 1.02-.56 1.64-1.52 1.64h-3.1c-.8 0-1.53-.62-1.53-1.64 0-.78.73-1.64 1.52-1.64zm13.4 6.55c.38 0 .55.4.55 1v47.15c0 .4-.17.62-.56.62h-29.5c-.56 0-.95-.23-.95-.62v-47.14c0-.62.4-1 .95-1zm-14.95 51.2c2.34 0 4.08 1.8 4.08 4.05 0 2.42-1.74 4.3-4.08 4.3-2.13 0-3.86-1.88-3.86-4.3 0-2.26 1.72-4.06 3.85-4.06zM788.52 218s-3.08 0-3.08 3.27v71.48c0 3.28 3.08 3.28 3.08 3.28h37.26s3.08 0 3.08-3.28v-71.5c0-3.26-3.08-3.26-3.08-3.26zM735.23 231c.38 0 .6.4.6 1.02v30.9c0 .35-.22.96-.82.96h-41.67c-.52-.4-.96-.6-.96-.96v-30.9c0-.6.44-1.02.96-1.02zm-12.43 45.5c.38 0 .97.4.97.82l1.2 4.84c0 .6-.23.82-.6.82H704.2c-.15 0-.6-.2-.6-.6l1.2-4.86c0-.6.37-1.02.96-1.02zm-32-51.98c-2.3 0-4.6 2.46-4.6 4.84v35.75l-9.3 22.8v1.56s0 3.27 3.1 3.27h68.18c3.13 0 3.13-3.27 3.13-3.27v-1.57l-9.3-22.8v-35.74c0-2.38-2.15-4.84-4.6-4.84z" fill="#333" fill-opacity=".8"/><path d="M721.36 160h64.08v37.53h-64.08z" fill-opacity="0"/><use xlink:href="#w" transform="matrix(1,0,0,1,721.3561055399691,160) translate(-7.300324444444442 28.04978)"/><path d="M45.62 740.68h105.62v26.83H45.62z" fill-opacity="0"/><use xlink:href="#x" transform="matrix(1,0,0,1,45.619235826705115,740.6768558948937) translate(13.538583984374995 18.235)"/><path d="M57.1 768.2h79.16v26.83H57.1z" fill-opacity="0"/><use xlink:href="#y" transform="matrix(1,0,0,1,57.10045846782926,768.1907708741777) translate(10.096440429687494 18.235)"/><path d="M40 613.98h123.26v26.84H40z" fill-opacity="0"/><use xlink:href="#z" transform="matrix(1,0,0,1,39.999999999999986,613.9800228490278) translate(14.945937499999992 18.235)"/><use xlink:href="#A" transform="matrix(1,0,0,1,39.999999999999986,613.9800228490278) translate(63.562919921875 18.235)"/><path d="M54.76 641.5h17.17v26.83H54.76z" fill-opacity="0"/><use xlink:href="#B" transform="matrix(1,0,0,1,54.76173251675461,641.493937828312) translate(4.200263671875 18.235)"/><path d="M68.1 640.63h15.5v16.52H68.1z" fill-opacity="0"/><use xlink:href="#C" transform="matrix(1,0,0,1,68.09617913352605,640.6345337821067) translate(2.9884521484375 11.412500000000001)"/><path d="M81 641.5h53.66v26.83H81z" fill-opacity="0"/><use xlink:href="#D" transform="matrix(1,0,0,1,81.00468767463319,641.493937828312) translate(6.728281249999998 18.235)"/><path d="M125.5 695.3h-.82c0-4.16-1.98-8-5.13-10.36-3.2-2.37-7.4-2.98-11.08-1.63-3.08-6.28-9.92-9.5-16.4-7.9-6.5 1.62-11.16 7.74-11.16 14.8v.17c-4.5-.74-8.95 1.18-11.75 4.93-2.67 3.84-3.15 8.86-1.23 13.1 1.9 4.25 5.95 7.07 10.4 7.35v.04h47.1c5.35 0 9.72-4.58 9.72-10.2 0-5.6-4.3-10.3-9.64-10.3z" fill="#333" fill-opacity=".8"/><path d="M354.68 467.14a6 6 0 0 1 6-6h243.34a6 6 0 0 1 6 6v29.3a6 6 0 0 1-6 6H360.68a6 6 0 0 1-6-6z" stroke="#000" stroke-opacity="0" stroke-width="3" fill="#fff"/><use xlink:href="#E" transform="matrix(1,0,0,1,359.67720629549217,466.14197099159526) translate(62.87654320987656 20.222222222222218)"/><use xlink:href="#F" transform="matrix(1,0,0,1,359.67720629549217,466.14197099159526) translate(105.2962962962963 20.222222222222218)"/><path d="M828.86 625.85a6 6 0 0 1 6-6H1174a6 6 0 0 1 6 6v98.62a6 6 0 0 1-6 6H834.86a6 6 0 0 1-6-6z" stroke="#000" stroke-opacity="0" stroke-width="3" fill="#d21002"/><use xlink:href="#G" transform="matrix(1,0,0,1,829.8597239633974,620.8464724222986) translate(148.41000000000003 61.13499999999999)"/><path d="M170.94 609.18V855.8M170.94 609.22v-1.54M170.94 855.76v1.54" stroke="#5e5e5e" stroke-width="3" fill="none"/><path d="M230.5 738.5h-58.56v-2h58.55zm74.86 0h-41.04v-2h41.04z" stroke="#5e5e5e" stroke-width=".05" fill="#5e5e5e"/><path d="M320.63 737.5l-14.27 4.64v-9.27z" fill="#5e5e5e"/><path d="M323.86 737.5l-18.5 6.02V731.5zm-16.5 3.27l10.03-3.26-10.04-3.25zM171.97 738.5h-1.03v-2h1.03z" stroke="#5e5e5e" stroke-width=".05" fill="#5e5e5e"/><use xlink:href="#H" transform="matrix(1,0,0,1,230.48704382648333,726.3801011313747) translate(0 18.008888888888887)"/><path d="M334.15 570h30.65c5.6 0 8.4 3.04 8.4 9.07v31.7c0 6.04-2.8 9.08-8.4 9.08h-30.65c-5.6 0-8.4-3.04-8.4-9.08v-31.7c0-6.03 2.8-9.07 8.4-9.07z" stroke="#000" stroke-opacity="0" stroke-width=".64" fill="#000b1d"/><path d="M362.66 607.5h-5.64c-.52 0-.95-.3-1.2-.8l-6.1-15.4c0-.1-.06-.2-.15-.2-.14-.06-.3 0-.33.14l-3.85 9.82v.1c0 .2.13.34.32.34h4.18c.24 0 .47.2.57.45l1.85 4.4c.14.44 0 .9-.38 1.1-.1.04-.2.04-.33.04H336.4c-.38 0-.7-.36-.7-.76 0-.1.03-.2.08-.3l9.68-24.92c.2-.55.66-.85 1.23-.85h5.6c.57 0 1.05.3 1.24.85l9.78 24.92c.14.4 0 .8-.38 1-.1.05-.14.05-.24.05z" stroke="#000" stroke-opacity="0" stroke-width=".64" fill="#fa0f00"/><path d="M830.6 597.1h30.65c5.6 0 8.4 3.05 8.4 9.08v31.7c0 6.03-2.8 9.07-8.4 9.07H830.6c-5.6 0-8.4-3.04-8.4-9.07v-31.7c0-6.03 2.8-9.07 8.4-9.07z" stroke="#000" stroke-opacity="0" stroke-width=".64" fill="#e5e5e5"/><path d="M859.1 634.6h-5.63c-.52 0-.95-.3-1.2-.8l-6.1-15.4c0-.1-.06-.2-.15-.2-.14-.06-.3.04-.33.2l-3.86 9.76v.1c0 .2.14.35.33.35h4.18c.24.06.47.2.57.46l1.85 4.38c.14.45 0 .9-.38 1.1-.15.05-.2.05-.34.05h-15.23c-.38 0-.72-.36-.72-.76 0-.1.06-.2.1-.3l9.7-24.92c.18-.55.65-.85 1.22-.85h5.6c.57 0 1.05.3 1.24.85l9.77 24.92c.14.4 0 .8-.33 1-.1.05-.2.05-.3.05z" stroke="#000" stroke-opacity="0" stroke-width=".64" fill="#fa0f00"/><path d="M320.4 396.1h30.66c5.6 0 8.4 3.04 8.4 9.07v31.7c0 6.03-2.8 9.07-8.4 9.07H320.4c-5.6 0-8.4-3.04-8.4-9.07v-31.7c0-6.03 2.8-9.07 8.4-9.07z" stroke="#000" stroke-opacity="0" stroke-width=".64" fill="#000b1d"/><path d="M348.92 433.58h-5.64c-.53 0-.95-.3-1.2-.8l-6.1-15.4c0-.1-.06-.2-.15-.2-.15-.05-.3 0-.34.15l-3.85 9.82v.1c0 .2.14.35.33.35h4.18c.24 0 .47.2.57.45l1.85 4.4c.14.43 0 .88-.38 1.08-.1.05-.2.05-.33.05h-15.23c-.38 0-.72-.35-.72-.75 0-.1.05-.2.1-.3l9.68-24.92c.2-.53.66-.83 1.23-.83h5.6c.57 0 1.05.3 1.24.84l9.77 24.94c.14.4 0 .8-.38 1-.1.04-.14.04-.24.04z" stroke="#000" stroke-opacity="0" stroke-width=".64" fill="#fa0f00"/><path d="M615.47 606.1l-2 .02-.02-36.12h2zm-.03-58.35h-2v-29.4h2z" stroke="#5e5e5e" stroke-width=".05" fill="#5e5e5e"/><path d="M615.43 518.37h-2v-1.03h2z" fill="#5e5e5e"/><path d="M615.46 518.4h-2.05v-1.08h2.06zm-2-1.03v.97h1.95v-.97z" stroke="#5e5e5e" stroke-width=".05" fill="#5e5e5e"/><path d="M614.47 621.38l-4.64-14.26h9.27z" fill="#5e5e5e"/><path d="M614.48 624.62l-6.02-18.5h12.02zm-3.27-16.5l3.27 10.03 3.26-10.04z" stroke="#5e5e5e" stroke-width=".05" fill="#5e5e5e"/><use xlink:href="#H" transform="matrix(1,0,0,1,597.5335206847816,547.7461812435258) translate(0 18.008888888888887)"/><path d="M690.2 621.42h-2v-13h2zm.1-85.58l-.04 28.06h-2l.03-28.06z" stroke="#5e5e5e" stroke-width=".05" fill="#5e5e5e"/><path d="M693.92 534.84h-9.27l4.65-14.27z" fill="#5e5e5e"/><path d="M695.3 535.84h-12.02l6.03-18.5zm-9.27-2h6.52l-3.25-10.03z" stroke="#5e5e5e" stroke-width=".05" fill="#5e5e5e"/><path d="M690.2 621.4v1.02h-2v-1.03z" fill="#5e5e5e"/><path d="M690.2 621.37v1.07h-2.04v-1.07zm-2 1.02h1.96v-.98h-1.95z" stroke="#5e5e5e" stroke-width=".05" fill="#5e5e5e"/><use xlink:href="#I" transform="matrix(1,0,0,1,652.2075586260005,563.8984957922066) translate(0 18.008888888888887)"/><use xlink:href="#J" transform="matrix(1,0,0,1,652.2075586260005,563.8984957922066) translate(57.44 18.008888888888887)"/><use xlink:href="#K" transform="matrix(1,0,0,1,652.2075586260005,563.8984957922066) translate(0 40.266666666666666)"/><path d="M895.65 518.32V633.2a6 6 0 0 0 6 6h22.47a6 6 0 0 0 6-6V535.8" stroke="#5e5e5e" stroke-width="2" fill="none"/><path d="M896.65 518.34h-2v-1.02h2z" stroke="#5e5e5e" stroke-width=".05" fill="#5e5e5e"/><path d="M930.12 520.55l4.63 14.27h-9.27z" stroke="#5e5e5e" stroke-width="2" fill="#5e5e5e"/><g><use xlink:href="#L" transform="matrix(1,0,0,1,942.7534995774789,545.5066593924295) translate(0 18.008888888888887)"/><use xlink:href="#M" transform="matrix(1,0,0,1,942.7534995774789,545.5066593924295) translate(0 40.266666666666666)"/></g><path d="M735.45 395.46v-91.03" stroke="#5e5e5e" stroke-width="2" fill="none"/><path d="M735.45 410.72l-4.64-14.26h9.28z" stroke="#5e5e5e" stroke-width="2" fill="#5e5e5e"/><path d="M736.45 304.46h-2v-1.3h2z" stroke="#5e5e5e" stroke-width=".05" fill="#5e5e5e"/><g><use xlink:href="#N" transform="matrix(1,0,0,1,642.8073381536917,326.5630532835577) translate(34.658888888888875 18.008888888888887)"/><use xlink:href="#O" transform="matrix(1,0,0,1,642.8073381536917,326.5630532835577) translate(72.59666666666666 18.008888888888887)"/><use xlink:href="#P" transform="matrix(1,0,0,1,642.8073381536917,326.5630532835577) translate(0.010000000000005116 40.266666666666666)"/></g><path d="M773.58 412.96v-91.03" stroke="#5e5e5e" stroke-width="2" fill="none"/><path d="M774.58 413.96h-2v-1.03h2z" stroke="#5e5e5e" stroke-width=".05" fill="#5e5e5e"/><path d="M773.58 306.67l4.63 14.26h-9.26z" stroke="#5e5e5e" stroke-width="2" fill="#5e5e5e"/><g><use xlink:href="#Q" transform="matrix(1,0,0,1,781.579837767575,330.2913751307094) translate(0 18.008888888888887)"/><use xlink:href="#O" transform="matrix(1,0,0,1,781.579837767575,330.2913751307094) translate(61.20888888888889 18.008888888888887)"/><use xlink:href="#M" transform="matrix(1,0,0,1,781.579837767575,330.2913751307094) translate(0 40.266666666666666)"/></g><path d="M116.15 26a6 6 0 0 1 6-6h1265.18a6 6 0 0 1 6 6v104.67a6 6 0 0 1-6 6H122.15a6 6 0 0 1-6-6z" stroke="#000" stroke-opacity="0" stroke-width="3" fill="#fff" fill-opacity="0"/><g><use xlink:href="#R" transform="matrix(1,0,0,1,116.15223625263695,20.000000000000007) translate(0 65.00694444444443)"/><use xlink:href="#S" transform="matrix(1,0,0,1,116.15223625263695,20.000000000000007) translate(224.09876543209865 65.00694444444443)"/><use xlink:href="#T" transform="matrix(1,0,0,1,116.15223625263695,20.000000000000007) translate(476.54320987654296 65.00694444444443)"/><use xlink:href="#U" transform="matrix(1,0,0,1,116.15223625263695,20.000000000000007) translate(498.1728395061726 65.00694444444443)"/><use xlink:href="#V" transform="matrix(1,0,0,1,116.15223625263695,20.000000000000007) translate(659.654320987654 65.00694444444443)"/><use xlink:href="#W" transform="matrix(1,0,0,1,116.15223625263695,20.000000000000007) translate(743.7037037037034 65.00694444444443)"/><use xlink:href="#X" transform="matrix(1,0,0,1,116.15223625263695,20.000000000000007) translate(777.2839506172836 65.00694444444443)"/></g><path d="M42.15 30h45.4c8.3 0 12.45 4.3 12.45 12.8v44.7c0 8.5-4.15 12.8-12.44 12.8h-45.4c-8.3 0-12.45-4.3-12.45-12.8V42.8c0-8.5 4.15-12.8 12.45-12.8z" stroke="#000" stroke-opacity="0" stroke-width=".64" fill="#000b1d"/><path d="M84.4 82.86h-8.37c-.77 0-1.4-.42-1.76-1.12L65.2 60.02c0-.15-.07-.3-.2-.3-.22-.06-.43 0-.5.23L58.8 73.8v.13c0 .28.22.5.5.5h6.2c.34 0 .7.28.83.63l2.74 6.18c.2.64 0 1.27-.56 1.55-.13.06-.27.06-.48.06H45.45c-.56 0-1.05-.5-1.05-1.05 0-.13.07-.27.14-.42l14.34-35.14c.28-.78.98-1.2 1.83-1.2H69c.84 0 1.55.42 1.83 1.2L85.3 81.38c.22.57 0 1.13-.55 1.4-.14.08-.2.08-.36.08z" stroke="#000" stroke-opacity="0" stroke-width=".64" fill="#fa0f00"/><defs><path fill="#333" d="M486-70L475-6c-1 5-3 6-7 6H88c-7 0-8-2-8-8v-646c0-5 2-7 7-7h365c5 0 6 1 7 6l8 63c1 4 0 7-5 7H163v209h270c4 0 6 2 6 6v64c0 5-3 6-6 6H163v224h318c5 0 6 2 5 6" id="Y"/><path fill="#333" d="M158-243L3-478c-3-4-1-8 3-8h82c6 0 8 2 10 6 40 62 77 127 118 188l122-189c2-4 4-5 8-5h74c4 0 6 3 3 7-39 58-115 172-159 232C304-187 395-55 430-7c3 3 1 7-4 7h-84c-5 0-8-2-10-6-42-64-81-129-124-192L84-5c-2 4-3 5-8 5H2c-5 0-7-3-4-7 46-66 114-171 160-236" id="Z"/><path fill="#333" d="M256-496c148 0 234 102 234 236C490-61 327 28 153 6v200c0 4 0 6-5 7-23 2-69 7-73 8-4 0-5-1-5-6v-671c35-13 101-40 186-40zm-10 73c-35 0-65 6-93 16v339c131 25 252-33 252-187 0-102-58-168-159-168" id="aa"/><path fill="#333" d="M440-237c-86 8-224 2-321 4-1 95 54 170 167 170 44 0 86-8 125-27 3-2 5 0 5 4-2 21 5 54-5 67-34 17-78 29-141 29C97 10 35-117 35-239c0-140 82-257 221-257 163 0 209 131 191 253 0 3-3 6-7 6zm-134-58c58-5 64 10 65-13 0-36-24-119-118-119-83 0-124 65-133 132h186" id="ab"/><path fill="#333" d="M70-486h64c6 0 7 2 9 7 4 12 7 47 8 69 35-48 97-86 161-86 5 0 7 1 7 7v72c0 5-1 6-7 6-69-1-132 33-157 73L154-6c0 5-2 6-6 6H77c-5 0-7-2-7-7-2-155 5-327-5-473 0-4 1-6 5-6" id="ac"/><path fill="#333" d="M70-8v-471c0-5 2-7 7-7h71c4 0 6 1 6 6V-7c0 5-1 7-7 7H78c-5 0-8-2-8-8zm42-574c-31 0-50-21-50-51s21-51 51-51c32 0 50 22 50 51 0 30-20 51-51 51" id="ad"/><path fill="#333" d="M134-486c18 5 10 28 15 56 44-44 95-66 153-66 71 0 163 35 163 193V-7c0 5-2 7-7 7h-70c-5 0-7-2-7-8v-287c0-76-33-127-103-127-51 0-93 23-125 61V-7c0 5-1 7-6 7H76c-4 0-6-2-6-7-2-155 4-326-4-473 0-4 1-6 6-6h62" id="ae"/><path fill="#333" d="M395-75v62c0 4 0 6-4 7-33 13-72 16-109 16C119 10 35-106 35-241c0-178 167-297 356-242 9 17 2 49 4 72 0 5-3 5-7 4-129-48-272 19-268 163C124-87 258-37 389-79c5-1 6 1 6 4" id="af"/><g id="a"><use transform="matrix(0.019999999999999997,0,0,0.019999999999999997,0,0)" xlink:href="#Y"/><use transform="matrix(0.019999999999999997,0,0,0.019999999999999997,10.879999999999999,0)" xlink:href="#Z"/><use transform="matrix(0.019999999999999997,0,0,0.019999999999999997,19.539999999999996,0)" xlink:href="#aa"/><use transform="matrix(0.019999999999999997,0,0,0.019999999999999997,30.199999999999996,0)" xlink:href="#ab"/><use transform="matrix(0.019999999999999997,0,0,0.019999999999999997,39.839999999999996,0)" xlink:href="#ac"/><use transform="matrix(0.019999999999999997,0,0,0.019999999999999997,46.339999999999996,0)" xlink:href="#ad"/><use transform="matrix(0.019999999999999997,0,0,0.019999999999999997,50.83999999999999,0)" xlink:href="#ab"/><use transform="matrix(0.019999999999999997,0,0,0.019999999999999997,60.48,0)" xlink:href="#ae"/><use transform="matrix(0.019999999999999997,0,0,0.019999999999999997,71.17999999999999,0)" xlink:href="#af"/><use transform="matrix(0.019999999999999997,0,0,0.019999999999999997,79.57999999999998,0)" xlink:href="#ab"/></g><path fill="#333" d="M80-6v-647c0-4 1-7 5-7 32-1 98-3 165-3 177 0 255 100 255 212-1 179-157 238-342 222V-7c0 5-1 7-6 7H86c-4 0-6-2-6-6zm83-581v283c129 9 259-8 259-145 0-91-70-140-171-140-41 0-72 1-88 2" id="ag"/><path fill="#333" d="M217-5c-5 16-25 15-51 15-49 0-96-17-96-111v-610c0-5 2-6 7-6h70c5 0 6 2 6 6v603c0 48 26 52 60 45 3 0 4 2 4 6v52" id="ah"/><path fill="#333" d="M323-75v-157c-14-2-36-4-66-4-97 0-144 33-144 89 0 45 31 89 119 89 32 0 62-5 91-17zm81-233c0 91 1 191 0 275C258 41 36 32 31-147c-4-128 147-165 292-151 2-57-3-124-113-124-48 0-92 11-127 30-3 1-7 0-7-5 3-22-6-55 5-69 39-19 89-30 142-30 128 0 181 84 181 188" id="ai"/><path fill="#333" d="M279-65c-3 20 7 50-6 61C177 29 81 9 81-121v-293H13c-6-1-7-3-7-8v-57c0-5 2-7 7-7h68c1-37 5-106 9-128 1-4 3-6 7-7l68-11c4-1 6 0 6 4-3 35-6 93-6 142h106c4 0 6 2 6 7v59c0 4-2 6-6 6H165v281c-7 67 51 85 108 64 3-1 6-1 6 4" id="aj"/><path fill="#333" d="M79-486c-13-159 53-266 200-234 5 1 5 4 5 8v59c0 4-2 6-6 5-74-15-114 3-116 117v45h96c4 0 6 2 6 5v60c0 5-2 6-6 7h-96V-7c0 4-1 7-6 7H85c-4 0-6-2-6-7v-407H14c-4 0-6-2-6-7v-59c0-4 2-6 6-6h65" id="ak"/><path fill="#333" d="M265-496c141 0 228 108 228 252 0 152-94 254-228 254C104 10 35-120 35-243c0-141 90-253 230-253zm-4 72c-84 0-142 72-142 179 0 102 53 183 148 183 71 0 141-56 141-180 0-93-43-182-147-182" id="al"/><path fill="#333" d="M135-486c16 4 10 33 14 53 78-81 227-91 283 10 42-41 94-73 167-73 74 0 162 39 162 191V-6c0 4-2 6-7 6h-69c-5 0-7-2-7-7v-292c0-68-31-123-102-123-50 0-91 22-123 58 11 108 2 241 5 357 0 5-2 7-7 7h-70c-5 0-7-2-7-7v-295c0-76-35-120-100-120-47 0-83 18-121 56V-6c0 4-1 6-6 6H76c-5 0-6-2-6-7-2-154 4-327-4-473 0-4 1-6 6-6h63" id="am"/><g id="b"><use transform="matrix(0.019999999999999997,0,0,0.019999999999999997,0,0)" xlink:href="#ag"/><use transform="matrix(0.019999999999999997,0,0,0.019999999999999997,10.759999999999998,0)" xlink:href="#ah"/><use transform="matrix(0.019999999999999997,0,0,0.019999999999999997,15.659999999999998,0)" xlink:href="#ai"/><use transform="matrix(0.019999999999999997,0,0,0.019999999999999997,25.13999999999999,0)" xlink:href="#aj"/><use transform="matrix(0.019999999999999997,0,0,0.019999999999999997,31.05999999999999,0)" xlink:href="#ak"/><use transform="matrix(0.019999999999999997,0,0,0.019999999999999997,36.39999999999999,0)" xlink:href="#al"/><use transform="matrix(0.019999999999999997,0,0,0.019999999999999997,46.93999999999999,0)" xlink:href="#ac"/><use transform="matrix(0.019999999999999997,0,0,0.019999999999999997,53.43999999999999,0)" xlink:href="#am"/></g><path fill="#fff" d="M156 0H86c-4 0-6-1-6-6v-646c0-5 1-8 6-8 56-2 107-3 174-3 147 0 245 63 245 191 0 94-64 152-138 177C401-248 535-51 561-8c2 4 2 8-3 8-31-2-71 5-95-4-31-47-114-175-164-252-8-12-13-16-23-16H162V-6c0 4-2 6-6 6zm6-345h107c95 0 153-49 153-123 0-76-58-121-165-121-38 0-75 1-95 2v242" id="an"/><path fill="#fff" d="M440-237c-86 8-224 2-321 4-1 95 54 170 167 170 44 0 86-8 125-27 3-2 5 0 5 4-2 21 5 54-5 67-34 17-78 29-141 29C97 10 35-117 35-239c0-140 82-257 221-257 163 0 209 131 191 253 0 3-3 6-7 6zm-134-58c58-5 64 10 65-13 0-36-24-119-118-119-83 0-124 65-133 132h186" id="ao"/><path fill="#fff" d="M323-75v-157c-14-2-36-4-66-4-97 0-144 33-144 89 0 45 31 89 119 89 32 0 62-5 91-17zm81-233c0 91 1 191 0 275C258 41 36 32 31-147c-4-128 147-165 292-151 2-57-3-124-113-124-48 0-92 11-127 30-3 1-7 0-7-5 3-22-6-55 5-69 39-19 89-30 142-30 128 0 181 84 181 188" id="ap"/><path fill="#fff" d="M217-5c-5 16-25 15-51 15-49 0-96-17-96-111v-610c0-5 2-6 7-6h70c5 0 6 2 6 6v603c0 48 26 52 60 45 3 0 4 2 4 6v52" id="aq"/><path fill="#fff" d="M267-216H43c-4 0-5-1-5-5v-63c0-3 1-5 5-5h224c3 0 5 1 5 5v63c0 4-1 5-5 5" id="ar"/><path fill="#fff" d="M279-65c-3 20 7 50-6 61C177 29 81 9 81-121v-293H13c-6-1-7-3-7-8v-57c0-5 2-7 7-7h68c1-37 5-106 9-128 1-4 3-6 7-7l68-11c4-1 6 0 6 4-3 35-6 93-6 142h106c4 0 6 2 6 7v59c0 4-2 6-6 6H165v281c-7 67 51 85 108 64 3-1 6-1 6 4" id="as"/><path fill="#fff" d="M70-8v-471c0-5 2-7 7-7h71c4 0 6 1 6 6V-7c0 5-1 7-7 7H78c-5 0-8-2-8-8zm42-574c-31 0-50-21-50-51s21-51 51-51c32 0 50 22 50 51 0 30-20 51-51 51" id="at"/><path fill="#fff" d="M135-486c16 4 10 33 14 53 78-81 227-91 283 10 42-41 94-73 167-73 74 0 162 39 162 191V-6c0 4-2 6-7 6h-69c-5 0-7-2-7-7v-292c0-68-31-123-102-123-50 0-91 22-123 58 11 108 2 241 5 357 0 5-2 7-7 7h-70c-5 0-7-2-7-7v-295c0-76-35-120-100-120-47 0-83 18-121 56V-6c0 4-1 6-6 6H76c-5 0-6-2-6-7-2-154 4-327-4-473 0-4 1-6 6-6h63" id="au"/><g id="c"><use transform="matrix(0.019999999999999993,0,0,0.019999999999999993,0,0)" xlink:href="#an"/><use transform="matrix(0.019999999999999993,0,0,0.019999999999999993,11.179999999999996,0)" xlink:href="#ao"/><use transform="matrix(0.019999999999999993,0,0,0.019999999999999993,20.879999999999992,0)" xlink:href="#ap"/><use transform="matrix(0.019999999999999993,0,0,0.019999999999999993,30.35999999999999,0)" xlink:href="#aq"/><use transform="matrix(0.019999999999999993,0,0,0.019999999999999993,35.17999999999999,0)" xlink:href="#ar"/><use transform="matrix(0.019999999999999993,0,0,0.019999999999999993,41.37999999999999,0)" xlink:href="#as"/><use transform="matrix(0.019999999999999993,0,0,0.019999999999999993,47.37999999999998,0)" xlink:href="#at"/><use transform="matrix(0.019999999999999993,0,0,0.019999999999999993,51.879999999999995,0)" xlink:href="#au"/><use transform="matrix(0.019999999999999993,0,0,0.019999999999999993,68.51999999999998,0)" xlink:href="#ao"/></g><path fill="#fff" d="M518-80c-3 23 6 56-5 71-33 14-79 19-135 19C211 10 40-87 40-332c0-200 138-339 351-339 67 0 106 7 128 18 3 1 5 4 5 8v67c0 6-4 6-7 5-28-15-73-23-128-23-157 0-264 102-264 262 0 209 157 268 262 268 51 0 88-4 125-18 4-1 6-1 6 4" id="av"/><path fill="#fff" d="M393 0c-16-3-10-32-14-48-42 43-95 58-145 58-85 0-165-43-165-188v-302c0-5 2-6 7-6h71c4 0 5 2 5 6v292c0 77 36 124 106 124 48 0 86-18 116-51v-365c0-4 2-6 7-6h70c6 0 6 2 6 6 3 153-6 333 6 474 0 4-1 6-6 6h-64" id="aw"/><path fill="#fff" d="M317-398c-28-17-74-29-116-29-66 0-88 32-88 62s18 51 93 81c101 39 142 80 142 151 0 92-75 143-179 143C114 10 64-2 35-19c-11-16-2-52-5-76 0-5 3-7 6-5 59 51 230 63 230-25 0-37-22-59-91-86C75-249 33-290 33-361c0-72 61-135 170-135 55 0 96 10 117 22 11 15 2 48 5 71 0 5-3 8-8 5" id="ax"/><path fill="#fff" d="M265-496c141 0 228 108 228 252 0 152-94 254-228 254C104 10 35-120 35-243c0-141 90-253 230-253zm-4 72c-84 0-142 72-142 179 0 102 53 183 148 183 71 0 141-56 141-180 0-93-43-182-147-182" id="ay"/><path fill="#fff" d="M70-486h64c6 0 7 2 9 7 4 12 7 47 8 69 35-48 97-86 161-86 5 0 7 1 7 7v72c0 5-1 6-7 6-69-1-132 33-157 73L154-6c0 5-2 6-6 6H77c-5 0-7-2-7-7-2-155 5-327-5-473 0-4 1-6 5-6" id="az"/><g id="d"><use transform="matrix(0.019999999999999993,0,0,0.019999999999999993,0,0)" xlink:href="#av"/><use transform="matrix(0.019999999999999993,0,0,0.019999999999999993,10.619999999999996,0)" xlink:href="#aw"/><use transform="matrix(0.019999999999999993,0,0,0.019999999999999993,21.419999999999995,0)" xlink:href="#ax"/><use transform="matrix(0.019999999999999993,0,0,0.019999999999999993,29.139999999999993,0)" xlink:href="#as"/><use transform="matrix(0.019999999999999993,0,0,0.019999999999999993,34.99999999999999,0)" xlink:href="#ay"/><use transform="matrix(0.019999999999999993,0,0,0.019999999999999993,45.53999999999999,0)" xlink:href="#au"/><use transform="matrix(0.019999999999999993,0,0,0.019999999999999993,62.179999999999986,0)" xlink:href="#ao"/><use transform="matrix(0.019999999999999993,0,0,0.019999999999999993,71.81999999999998,0)" xlink:href="#az"/></g><path fill="#fff" d="M80-8v-644c0-5 1-7 6-8 25-1 76-3 175-3 226 0 348 131 348 321C609-89 419 2 251 2 195 2 120 1 85 0c-4 0-5-3-5-8zm83-579v513c210 22 361-54 361-267 0-166-114-248-265-248-35 0-67 1-96 2" id="aA"/><g id="e"><use transform="matrix(0.019999999999999993,0,0,0.019999999999999993,0,0)" xlink:href="#aA"/><use transform="matrix(0.019999999999999993,0,0,0.019999999999999993,12.979999999999995,0)" xlink:href="#ap"/><use transform="matrix(0.019999999999999993,0,0,0.019999999999999993,22.459999999999994,0)" xlink:href="#as"/><use transform="matrix(0.019999999999999993,0,0,0.019999999999999993,28.57999999999999,0)" xlink:href="#ap"/></g><path fill="#fff" d="M80-6v-647c0-4 1-7 5-7 32-1 98-3 165-3 177 0 255 100 255 212-1 179-157 238-342 222V-7c0 5-1 7-6 7H86c-4 0-6-2-6-6zm83-581v283c129 9 259-8 259-145 0-91-70-140-171-140-41 0-72 1-88 2" id="aB"/><path fill="#fff" d="M79-486c-13-159 53-266 200-234 5 1 5 4 5 8v59c0 4-2 6-6 5-74-15-114 3-116 117v45h96c4 0 6 2 6 5v60c0 5-2 6-6 7h-96V-7c0 4-1 7-6 7H85c-4 0-6-2-6-7v-407H14c-4 0-6-2-6-7v-59c0-4 2-6 6-6h65" id="aC"/><g id="f"><use transform="matrix(0.019999999999999993,0,0,0.019999999999999993,0,0)" xlink:href="#aB"/><use transform="matrix(0.019999999999999993,0,0,0.019999999999999993,10.759999999999996,0)" xlink:href="#aq"/><use transform="matrix(0.019999999999999993,0,0,0.019999999999999993,15.659999999999995,0)" xlink:href="#ap"/><use transform="matrix(0.019999999999999993,0,0,0.019999999999999993,25.139999999999993,0)" xlink:href="#as"/><use transform="matrix(0.019999999999999993,0,0,0.019999999999999993,31.05999999999999,0)" xlink:href="#aC"/><use transform="matrix(0.019999999999999993,0,0,0.019999999999999993,36.399999999999984,0)" xlink:href="#ay"/><use transform="matrix(0.019999999999999993,0,0,0.019999999999999993,46.93999999999998,0)" xlink:href="#az"/><use transform="matrix(0.019999999999999993,0,0,0.019999999999999993,53.43999999999998,0)" xlink:href="#au"/></g><path fill="#000b1d" d="M156 0H86c-4 0-6-1-6-6v-646c0-5 1-8 6-8 56-2 107-3 174-3 147 0 245 63 245 191 0 94-64 152-138 177C401-248 535-51 561-8c2 4 2 8-3 8-31-2-71 5-95-4-31-47-114-175-164-252-8-12-13-16-23-16H162V-6c0 4-2 6-6 6zm6-345h107c95 0 153-49 153-123 0-76-58-121-165-121-38 0-75 1-95 2v242" id="aD"/><path fill="#000b1d" d="M440-237c-86 8-224 2-321 4-1 95 54 170 167 170 44 0 86-8 125-27 3-2 5 0 5 4-2 21 5 54-5 67-34 17-78 29-141 29C97 10 35-117 35-239c0-140 82-257 221-257 163 0 209 131 191 253 0 3-3 6-7 6zm-134-58c58-5 64 10 65-13 0-36-24-119-118-119-83 0-124 65-133 132h186" id="aE"/><path fill="#000b1d" d="M323-75v-157c-14-2-36-4-66-4-97 0-144 33-144 89 0 45 31 89 119 89 32 0 62-5 91-17zm81-233c0 91 1 191 0 275C258 41 36 32 31-147c-4-128 147-165 292-151 2-57-3-124-113-124-48 0-92 11-127 30-3 1-7 0-7-5 3-22-6-55 5-69 39-19 89-30 142-30 128 0 181 84 181 188" id="aF"/><path fill="#000b1d" d="M217-5c-5 16-25 15-51 15-49 0-96-17-96-111v-610c0-5 2-6 7-6h70c5 0 6 2 6 6v603c0 48 26 52 60 45 3 0 4 2 4 6v52" id="aG"/><path fill="#000b1d" d="M267-216H43c-4 0-5-1-5-5v-63c0-3 1-5 5-5h224c3 0 5 1 5 5v63c0 4-1 5-5 5" id="aH"/><path fill="#000b1d" d="M279-65c-3 20 7 50-6 61C177 29 81 9 81-121v-293H13c-6-1-7-3-7-8v-57c0-5 2-7 7-7h68c1-37 5-106 9-128 1-4 3-6 7-7l68-11c4-1 6 0 6 4-3 35-6 93-6 142h106c4 0 6 2 6 7v59c0 4-2 6-6 6H165v281c-7 67 51 85 108 64 3-1 6-1 6 4" id="aI"/><path fill="#000b1d" d="M70-8v-471c0-5 2-7 7-7h71c4 0 6 1 6 6V-7c0 5-1 7-7 7H78c-5 0-8-2-8-8zm42-574c-31 0-50-21-50-51s21-51 51-51c32 0 50 22 50 51 0 30-20 51-51 51" id="aJ"/><path fill="#000b1d" d="M135-486c16 4 10 33 14 53 78-81 227-91 283 10 42-41 94-73 167-73 74 0 162 39 162 191V-6c0 4-2 6-7 6h-69c-5 0-7-2-7-7v-292c0-68-31-123-102-123-50 0-91 22-123 58 11 108 2 241 5 357 0 5-2 7-7 7h-70c-5 0-7-2-7-7v-295c0-76-35-120-100-120-47 0-83 18-121 56V-6c0 4-1 6-6 6H76c-5 0-6-2-6-7-2-154 4-327-4-473 0-4 1-6 6-6h63" id="aK"/><g id="g"><use transform="matrix(0.01777777777777777,0,0,0.01777777777777777,0,0)" xlink:href="#aD"/><use transform="matrix(0.01777777777777777,0,0,0.01777777777777777,9.937777777777773,0)" xlink:href="#aE"/><use transform="matrix(0.01777777777777777,0,0,0.01777777777777777,18.55999999999999,0)" xlink:href="#aF"/><use transform="matrix(0.01777777777777777,0,0,0.01777777777777777,26.986666666666657,0)" xlink:href="#aG"/><use transform="matrix(0.01777777777777777,0,0,0.01777777777777777,31.2711111111111,0)" xlink:href="#aH"/><use transform="matrix(0.01777777777777777,0,0,0.01777777777777777,36.78222222222221,0)" xlink:href="#aI"/><use transform="matrix(0.01777777777777777,0,0,0.01777777777777777,42.11555555555554,0)" xlink:href="#aJ"/><use transform="matrix(0.01777777777777777,0,0,0.01777777777777777,46.11555555555554,0)" xlink:href="#aK"/><use transform="matrix(0.01777777777777777,0,0,0.01777777777777777,60.906666666666645,0)" xlink:href="#aE"/></g><path fill="#000b1d" d="M518-80c-3 23 6 56-5 71-33 14-79 19-135 19C211 10 40-87 40-332c0-200 138-339 351-339 67 0 106 7 128 18 3 1 5 4 5 8v67c0 6-4 6-7 5-28-15-73-23-128-23-157 0-264 102-264 262 0 209 157 268 262 268 51 0 88-4 125-18 4-1 6-1 6 4" id="aL"/><path fill="#000b1d" d="M393 0c-16-3-10-32-14-48-42 43-95 58-145 58-85 0-165-43-165-188v-302c0-5 2-6 7-6h71c4 0 5 2 5 6v292c0 77 36 124 106 124 48 0 86-18 116-51v-365c0-4 2-6 7-6h70c6 0 6 2 6 6 3 153-6 333 6 474 0 4-1 6-6 6h-64" id="aM"/><path fill="#000b1d" d="M317-398c-28-17-74-29-116-29-66 0-88 32-88 62s18 51 93 81c101 39 142 80 142 151 0 92-75 143-179 143C114 10 64-2 35-19c-11-16-2-52-5-76 0-5 3-7 6-5 59 51 230 63 230-25 0-37-22-59-91-86C75-249 33-290 33-361c0-72 61-135 170-135 55 0 96 10 117 22 11 15 2 48 5 71 0 5-3 8-8 5" id="aN"/><path fill="#000b1d" d="M265-496c141 0 228 108 228 252 0 152-94 254-228 254C104 10 35-120 35-243c0-141 90-253 230-253zm-4 72c-84 0-142 72-142 179 0 102 53 183 148 183 71 0 141-56 141-180 0-93-43-182-147-182" id="aO"/><path fill="#000b1d" d="M70-486h64c6 0 7 2 9 7 4 12 7 47 8 69 35-48 97-86 161-86 5 0 7 1 7 7v72c0 5-1 6-7 6-69-1-132 33-157 73L154-6c0 5-2 6-6 6H77c-5 0-7-2-7-7-2-155 5-327-5-473 0-4 1-6 5-6" id="aP"/><g id="h"><use transform="matrix(0.01777777777777777,0,0,0.01777777777777777,0,0)" xlink:href="#aL"/><use transform="matrix(0.01777777777777777,0,0,0.01777777777777777,9.439999999999996,0)" xlink:href="#aM"/><use transform="matrix(0.01777777777777777,0,0,0.01777777777777777,19.039999999999992,0)" xlink:href="#aN"/><use transform="matrix(0.01777777777777777,0,0,0.01777777777777777,25.90222222222221,0)" xlink:href="#aI"/><use transform="matrix(0.01777777777777777,0,0,0.01777777777777777,31.1111111111111,0)" xlink:href="#aO"/><use transform="matrix(0.01777777777777777,0,0,0.01777777777777777,40.47999999999998,0)" xlink:href="#aK"/><use transform="matrix(0.01777777777777777,0,0,0.01777777777777777,55.27111111111109,0)" xlink:href="#aE"/><use transform="matrix(0.01777777777777777,0,0,0.01777777777777777,63.839999999999975,0)" xlink:href="#aP"/></g><path fill="#000b1d" d="M80-6v-647c0-4 1-7 5-7 32-1 98-3 165-3 177 0 255 100 255 212-1 179-157 238-342 222V-7c0 5-1 7-6 7H86c-4 0-6-2-6-6zm83-581v283c129 9 259-8 259-145 0-91-70-140-171-140-41 0-72 1-88 2" id="aQ"/><path fill="#000b1d" d="M79-486c-13-159 53-266 200-234 5 1 5 4 5 8v59c0 4-2 6-6 5-74-15-114 3-116 117v45h96c4 0 6 2 6 5v60c0 5-2 6-6 7h-96V-7c0 4-1 7-6 7H85c-4 0-6-2-6-7v-407H14c-4 0-6-2-6-7v-59c0-4 2-6 6-6h65" id="aR"/><g id="i"><use transform="matrix(0.01777777777777777,0,0,0.01777777777777777,0,0)" xlink:href="#aQ"/><use transform="matrix(0.01777777777777777,0,0,0.01777777777777777,9.422222222222219,0)" xlink:href="#aP"/><use transform="matrix(0.01777777777777777,0,0,0.01777777777777777,15.217777777777771,0)" xlink:href="#aO"/><use transform="matrix(0.01777777777777777,0,0,0.01777777777777777,24.586666666666655,0)" xlink:href="#aR"/><use transform="matrix(0.01777777777777777,0,0,0.01777777777777777,29.439999999999994,0)" xlink:href="#aJ"/><use transform="matrix(0.01777777777777777,0,0,0.01777777777777777,33.43999999999999,0)" xlink:href="#aG"/><use transform="matrix(0.01777777777777777,0,0,0.01777777777777777,37.72444444444443,0)" xlink:href="#aE"/></g><path fill="#000b1d" d="M163-655V-7c0 5-1 7-6 7H87c-5 0-7-2-7-7v-647c0-5 2-7 6-7h71c4 0 6 2 6 6" id="aS"/><path fill="#000b1d" d="M451-27C262 61 35-3 35-239c0-166 143-285 335-251v-221c0-5 2-6 6-6h72c5 0 6 2 6 5 1 225-3 456 2 678 0 4-1 5-5 7zm-81-49v-338c-134-40-254 46-250 171C125-80 243-39 370-76" id="aT"/><path fill="#000b1d" d="M134-486c18 5 10 28 15 56 44-44 95-66 153-66 71 0 163 35 163 193V-7c0 5-2 7-7 7h-70c-5 0-7-2-7-8v-287c0-76-33-127-103-127-51 0-93 23-125 61V-7c0 5-1 7-6 7H76c-4 0-6-2-6-7-2-155 4-326-4-473 0-4 1-6 6-6h62" id="aU"/><path fill="#000b1d" d="M11-486h79c4 0 6 2 7 5 83 220 124 334 138 379 32-92 74-207 135-379 2-3 4-5 8-5h71c5 0 6 3 4 7C379-262 276-6 181 208c-18 15-59 7-86 13-5 0-5-3-3-8 29-61 66-142 99-221 2-4 2-7 0-13C167-81 67-324 6-480c-2-4 1-6 5-6" id="aV"/><g id="j"><use transform="matrix(0.01777777777777777,0,0,0.01777777777777777,0,0)" xlink:href="#aS"/><use transform="matrix(0.01777777777777777,0,0,0.01777777777777777,4.266666666666666,0)" xlink:href="#aT"/><use transform="matrix(0.01777777777777777,0,0,0.01777777777777777,13.582222222222217,0)" xlink:href="#aE"/><use transform="matrix(0.01777777777777777,0,0,0.01777777777777777,22.151111111111103,0)" xlink:href="#aU"/><use transform="matrix(0.01777777777777777,0,0,0.01777777777777777,31.662222222222216,0)" xlink:href="#aI"/><use transform="matrix(0.01777777777777777,0,0,0.01777777777777777,36.99555555555555,0)" xlink:href="#aJ"/><use transform="matrix(0.01777777777777777,0,0,0.01777777777777777,41.13777777777777,0)" xlink:href="#aI"/><use transform="matrix(0.01777777777777777,0,0,0.01777777777777777,46.755555555555546,0)" xlink:href="#aV"/></g><path fill="#000b1d" d="M494-279l-139-2c-5-1-7-2-7-7v-61c0-4 3-5 6-5h217c6 0 7 2 7 6v317c1 4-1 6-5 8-65 26-131 33-186 33C160 10 40-137 40-327c0-210 147-344 360-344 68 0 123 8 159 25 11 16 2 52 5 76 0 5-3 6-6 4-45-23-100-29-156-29-170-2-276 99-276 265 0 147 91 266 265 266 45 0 77-5 103-16v-199" id="aW"/><path fill="#000b1d" d="M256-496c148 0 234 102 234 236C490-61 327 28 153 6v200c0 4 0 6-5 7-23 2-69 7-73 8-4 0-5-1-5-6v-671c35-13 101-40 186-40zm-10 73c-35 0-65 6-93 16v339c131 25 252-33 252-187 0-102-58-168-159-168" id="aX"/><path fill="#000b1d" d="M153-367V-6c0 5-1 6-6 6H77c-5 0-7-2-7-7v-704c0-4 1-6 6-6h72c4 0 5 1 5 5l1 274c41-38 89-58 148-58 71 0 163 35 163 193V-7c0 5-2 7-7 7h-70c-5 0-7-2-7-8v-286c0-77-33-128-103-128-49 0-93 20-125 55" id="aY"/><g id="k"><use transform="matrix(0.01777777777777777,0,0,0.01777777777777777,0,0)" xlink:href="#aW"/><use transform="matrix(0.01777777777777777,0,0,0.01777777777777777,11.41333333333333,0)" xlink:href="#aP"/><use transform="matrix(0.01777777777777777,0,0,0.01777777777777777,17.066666666666663,0)" xlink:href="#aF"/><use transform="matrix(0.01777777777777777,0,0,0.01777777777777777,25.49333333333332,0)" xlink:href="#aX"/><use transform="matrix(0.01777777777777777,0,0,0.01777777777777777,34.826666666666654,0)" xlink:href="#aY"/></g><path fill="#000b1d" d="M212 10C143 10 82-5 43-28c-5-2-6-6-6-12v-72c0-4 3-6 7-3 52 35 116 49 171 49 96 0 140-43 140-103 0-47-27-82-118-123l-44-18C69-363 41-426 41-493c0-104 80-178 215-178 63 0 117 10 148 27 11 16 2 52 5 77 0 4-3 7-8 4-35-22-90-33-147-33-104 0-132 54-132 96 0 45 26 79 115 117l43 18c123 52 159 114 159 189 0 108-81 186-227 186" id="aZ"/><path fill="#000b1d" d="M412 69c-1-91-145-77-239-84-41 29-67 71-67 93 0 46 55 93 147 93 110 0 159-52 159-102zM236-432c-63 0-104 41-104 105 0 61 36 105 103 105 63 0 102-38 102-103 0-58-31-107-101-107zm1-64c80 0 148 12 237 10 5 0 6 2 6 6v57c0 4-1 6-6 6-26 0-68-2-92-4 18 19 35 51 35 97-1 129-112 184-236 159-12 30-4 58 13 78l102 5c124 6 194 51 194 139 0 100-95 179-242 179-148 0-221-78-221-152 0-34 29-79 98-137-29-39-32-95-7-138-41-27-68-72-68-135 0-93 69-170 187-170" id="ba"/><g id="l"><use transform="matrix(0.01777777777777777,0,0,0.01777777777777777,0,0)" xlink:href="#aZ"/><use transform="matrix(0.01777777777777777,0,0,0.01777777777777777,8.657777777777774,0)" xlink:href="#aE"/><use transform="matrix(0.01777777777777777,0,0,0.01777777777777777,17.11999999999999,0)" xlink:href="#ba"/><use transform="matrix(0.01777777777777777,0,0,0.01777777777777777,25.90222222222221,0)" xlink:href="#aK"/><use transform="matrix(0.01777777777777777,0,0,0.01777777777777777,40.69333333333332,0)" xlink:href="#aE"/><use transform="matrix(0.01777777777777777,0,0,0.01777777777777777,49.262222222222206,0)" xlink:href="#aU"/><use transform="matrix(0.01777777777777777,0,0,0.01777777777777777,58.773333333333305,0)" xlink:href="#aI"/><use transform="matrix(0.01777777777777777,0,0,0.01777777777777777,64.21333333333331,0)" xlink:href="#aF"/><use transform="matrix(0.01777777777777777,0,0,0.01777777777777777,72.63999999999997,0)" xlink:href="#aI"/><use transform="matrix(0.01777777777777777,0,0,0.01777777777777777,77.97333333333331,0)" xlink:href="#aJ"/><use transform="matrix(0.01777777777777777,0,0,0.01777777777777777,81.97333333333331,0)" xlink:href="#aO"/><use transform="matrix(0.01777777777777777,0,0,0.01777777777777777,91.3422222222222,0)" xlink:href="#aU"/></g><path fill="#fff" d="M451-27C262 61 35-3 35-239c0-166 143-285 335-251v-221c0-5 2-6 6-6h72c5 0 6 2 6 5 1 225-3 456 2 678 0 4-1 5-5 7zm-81-49v-338c-134-40-254 46-250 171C125-80 243-39 370-76" id="bb"/><g id="m"><use transform="matrix(0.019999999999999993,0,0,0.019999999999999993,0,0)" xlink:href="#bb"/><use transform="matrix(0.019999999999999993,0,0,0.019999999999999993,10.559999999999997,0)" xlink:href="#ap"/><use transform="matrix(0.019999999999999993,0,0,0.019999999999999993,20.039999999999992,0)" xlink:href="#as"/><use transform="matrix(0.019999999999999993,0,0,0.019999999999999993,26.159999999999993,0)" xlink:href="#ap"/></g><path fill="#fff" d="M364-481c21-11 61-2 90-5 5 0 7 4 3 8-28 31-179 177-216 213-1 1 0 3 0 4C306-193 415-80 488-7c3 3 1 7-4 7h-95c-5 0-7-2-10-5-52-53-178-185-226-237V-7c0 5-1 7-6 7H77c-6 0-7-2-7-7v-704c0-4 1-6 7-6h70c4 0 6 2 6 6v448c47-47 185-190 211-218" id="bc"/><path fill="#fff" d="M74 141c-13 11-46 2-67 5-5 0-7-2-5-6C47 48 58-28 53-116c0-3 2-5 4-5h67c5 0 6 2 7 7 6 92-13 185-57 255" id="bd"/><g id="n"><use transform="matrix(0.019999999999999993,0,0,0.019999999999999993,0,0)" xlink:href="#aq"/><use transform="matrix(0.019999999999999993,0,0,0.019999999999999993,4.899999999999999,0)" xlink:href="#ap"/><use transform="matrix(0.019999999999999993,0,0,0.019999999999999993,14.379999999999995,0)" xlink:href="#bc"/><use transform="matrix(0.019999999999999993,0,0,0.019999999999999993,23.679999999999993,0)" xlink:href="#ao"/><use transform="matrix(0.019999999999999993,0,0,0.019999999999999993,33.31999999999999,0)" xlink:href="#bd"/></g><path fill="#fff" d="M416-208H162L90-6c-1 4-3 6-8 6H14C9 0 7-3 8-8l218-607c3-8 6-15 7-41 0-3 2-5 5-5h98c4 0 5 1 6 5L577-7c2 4 1 7-4 7h-76c-4 0-6-2-8-5zm-231-77h208c-23-65-84-242-105-308-17 64-65 198-103 308" id="be"/><path fill="#fff" d="M163-655V-7c0 5-1 7-6 7H87c-5 0-7-2-7-7v-647c0-5 2-7 6-7h71c4 0 6 2 6 6" id="bf"/><path fill="#fff" d="M311-698L108 38c-15 7-44 1-64 3-4 0-5-1-4-5l203-736c14-9 44-2 64-4 4 0 5 2 4 6" id="bg"/><path fill="#fff" d="M112-655c1-6 3-6 7-6h111c5 0 6 2 8 6 35 103 154 463 177 549 23-83 156-447 190-549 1-4 2-6 7-6h108c5 0 5 1 6 5L760-6c1 4-2 6-6 6h-74c-5 0-7-1-7-5-10-230-18-538-20-597-24 90-158 468-200 596-1 5-4 6-8 6h-70c-6 0-8-1-9-6-54-166-156-499-187-597-1 87-19 387-30 597 0 5-2 6-7 6H74c-5 0-6-1-6-6" id="bh"/><path fill="#fff" d="M458 0H88c-6 0-8-3-8-8v-646c0-4 1-7 6-7h72c4 0 5 2 5 6v579h310c5 0 6 3 5 6L466-6c-1 5-4 6-8 6" id="bi"/><g id="o"><use transform="matrix(0.019999999999999993,0,0,0.019999999999999993,0,0)" xlink:href="#be"/><use transform="matrix(0.019999999999999993,0,0,0.019999999999999993,11.719999999999995,0)" xlink:href="#bf"/><use transform="matrix(0.019999999999999993,0,0,0.019999999999999993,16.599999999999994,0)" xlink:href="#bg"/><use transform="matrix(0.019999999999999993,0,0,0.019999999999999993,23.619999999999994,0)" xlink:href="#bh"/><use transform="matrix(0.019999999999999993,0,0,0.019999999999999993,40.179999999999986,0)" xlink:href="#bi"/></g><path fill="#fff" d="M212 10C143 10 82-5 43-28c-5-2-6-6-6-12v-72c0-4 3-6 7-3 52 35 116 49 171 49 96 0 140-43 140-103 0-47-27-82-118-123l-44-18C69-363 41-426 41-493c0-104 80-178 215-178 63 0 117 10 148 27 11 16 2 52 5 77 0 4-3 7-8 4-35-22-90-33-147-33-104 0-132 54-132 96 0 45 26 79 115 117l43 18c123 52 159 114 159 189 0 108-81 186-227 186" id="bj"/><path fill="#fff" d="M267 0h-81c-6 0-7-2-9-5C156-66 33-412 9-479c-1-4-1-7 4-7h77c5 0 6 2 8 6 84 253 120 362 131 403h2c12-41 49-148 137-404 2-4 4-5 8-5h69c3 0 6 2 4 7C420-401 298-66 276-6c-2 4-4 6-9 6" id="bk"/><path fill="#fff" d="M395-75v62c0 4 0 6-4 7-33 13-72 16-109 16C119 10 35-106 35-241c0-178 167-297 356-242 9 17 2 49 4 72 0 5-3 5-7 4-129-48-272 19-268 163C124-87 258-37 389-79c5-1 6 1 6 4" id="bl"/><g id="p"><use transform="matrix(0.019999999999999993,0,0,0.019999999999999993,0,0)" xlink:href="#bj"/><use transform="matrix(0.019999999999999993,0,0,0.019999999999999993,9.739999999999997,0)" xlink:href="#ao"/><use transform="matrix(0.019999999999999993,0,0,0.019999999999999993,19.379999999999995,0)" xlink:href="#az"/><use transform="matrix(0.019999999999999993,0,0,0.019999999999999993,26.61999999999999,0)" xlink:href="#bk"/><use transform="matrix(0.019999999999999993,0,0,0.019999999999999993,35.83999999999999,0)" xlink:href="#at"/><use transform="matrix(0.019999999999999993,0,0,0.019999999999999993,40.33999999999999,0)" xlink:href="#bl"/><use transform="matrix(0.019999999999999993,0,0,0.019999999999999993,48.73999999999998,0)" xlink:href="#ao"/><use transform="matrix(0.019999999999999993,0,0,0.019999999999999993,58.73999999999998,0)" xlink:href="#ax"/></g><path fill="#fff" d="M486-70L475-6c-1 5-3 6-7 6H88c-7 0-8-2-8-8v-646c0-5 2-7 7-7h365c5 0 6 1 7 6l8 63c1 4 0 7-5 7H163v209h270c4 0 6 2 6 6v64c0 5-3 6-6 6H163v224h318c5 0 6 2 5 6" id="bm"/><path fill="#fff" d="M412 69c-1-91-145-77-239-84-41 29-67 71-67 93 0 46 55 93 147 93 110 0 159-52 159-102zM236-432c-63 0-104 41-104 105 0 61 36 105 103 105 63 0 102-38 102-103 0-58-31-107-101-107zm1-64c80 0 148 12 237 10 5 0 6 2 6 6v57c0 4-1 6-6 6-26 0-68-2-92-4 18 19 35 51 35 97-1 129-112 184-236 159-12 30-4 58 13 78l102 5c124 6 194 51 194 139 0 100-95 179-242 179-148 0-221-78-221-152 0-34 29-79 98-137-29-39-32-95-7-138-41-27-68-72-68-135 0-93 69-170 187-170" id="bn"/><g id="q"><use transform="matrix(0.02,0,0,0.02,0,0)" xlink:href="#bm"/><use transform="matrix(0.02,0,0,0.02,9.92,0)" xlink:href="#bb"/><use transform="matrix(0.02,0,0,0.02,20.16,0)" xlink:href="#bn"/><use transform="matrix(0.02,0,0,0.02,29.96,0)" xlink:href="#ao"/></g><path fill="#fff" d="M153 0H87c-4 0-7-1-7-7v-648c0-4 1-6 6-6h99c5 0 6 2 9 6 88 147 278 473 320 550-6-149-2-385-3-549 0-5 2-7 7-7h66c5 0 7 3 7 8V-7c0 5-2 7-9 7h-89c-6 0-9-1-11-6-46-84-293-498-327-571 7 159 3 396 4 570 0 5-2 7-6 7" id="bo"/><path fill="#fff" d="M548 0h-79c-6 0-8-2-9-7-75-265-92-349-105-395-18 80-54 202-111 395-2 6-5 7-10 7h-77c-8 0-10-2-11-7L16-479c-2-4 0-7 5-7h75c3 0 6 1 7 5 74 275 91 367 98 402h2c8-34 26-117 111-400 1-5 2-7 7-7h81c4 0 6 2 7 6 81 290 95 363 103 402h2c11-47 26-132 104-403 1-3 3-5 7-5h70c4 0 6 2 5 6L557-6c-2 4-3 6-9 6" id="bp"/><g id="r"><use transform="matrix(0.02,0,0,0.02,0,0)" xlink:href="#bo"/><use transform="matrix(0.02,0,0,0.02,13.34,0)" xlink:href="#ao"/><use transform="matrix(0.02,0,0,0.02,23.22,0)" xlink:href="#as"/><use transform="matrix(0.02,0,0,0.02,29.479999999999997,0)" xlink:href="#bp"/><use transform="matrix(0.02,0,0,0.02,43.9,0)" xlink:href="#ay"/><use transform="matrix(0.02,0,0,0.02,54.44,0)" xlink:href="#az"/><use transform="matrix(0.02,0,0,0.02,61.04,0)" xlink:href="#bc"/></g><path fill="#000b1d" d="M233-177c-1 41-23 64-60 70L243 0h-38l-65-103H63V0H30v-248c88 3 205-21 203 71zM63-129c60-2 137 13 137-47 0-61-80-42-137-45v92" id="bq"/><path fill="#000b1d" d="M100-194c63 0 86 42 84 106H49c0 40 14 67 53 68 26 1 43-12 49-29l28 8c-11 28-37 45-77 45C44 4 14-33 15-96c1-61 26-98 85-98zm52 81c6-60-76-77-97-28-3 7-6 17-6 28h103" id="br"/><path fill="#000b1d" d="M141-36C126-15 110 5 73 4 37 3 15-17 15-53c-1-64 63-63 125-63 3-35-9-54-41-54-24 1-41 7-42 31l-33-3c5-37 33-52 76-52 45 0 72 20 72 64v82c-1 20 7 32 28 27v20c-31 9-61-2-59-35zM48-53c0 20 12 33 32 33 41-3 63-29 60-74-43 2-92-5-92 41" id="bs"/><path fill="#000b1d" d="M24 0v-261h32V0H24" id="bt"/><path fill="#000b1d" d="M16-82v-28h88v28H16" id="bu"/><path fill="#000b1d" d="M59-47c-2 24 18 29 38 22v24C64 9 27 4 27-40v-127H5v-23h24l9-43h21v43h35v23H59v120" id="bv"/><path fill="#000b1d" d="M24-231v-30h32v30H24zM24 0v-190h32V0H24" id="bw"/><path fill="#000b1d" d="M210-169c-67 3-38 105-44 169h-31v-121c0-29-5-50-35-48C34-165 62-65 56 0H25l-1-190h30c1 10-1 24 2 32 10-44 99-50 107 0 11-21 27-35 58-36 85-2 47 119 55 194h-31v-121c0-29-5-49-35-48" id="bx"/><g id="s"><use transform="matrix(0.0493827160493827,0,0,0.0493827160493827,0,0)" xlink:href="#bq"/><use transform="matrix(0.0493827160493827,0,0,0.0493827160493827,12.79012345679012,0)" xlink:href="#br"/><use transform="matrix(0.0493827160493827,0,0,0.0493827160493827,22.666666666666657,0)" xlink:href="#bs"/><use transform="matrix(0.0493827160493827,0,0,0.0493827160493827,32.543209876543195,0)" xlink:href="#bt"/><use transform="matrix(0.0493827160493827,0,0,0.0493827160493827,36.44444444444443,0)" xlink:href="#bu"/><use transform="matrix(0.0493827160493827,0,0,0.0493827160493827,42.32098765432097,0)" xlink:href="#bv"/><use transform="matrix(0.0493827160493827,0,0,0.0493827160493827,47.259259259259245,0)" xlink:href="#bw"/><use transform="matrix(0.0493827160493827,0,0,0.0493827160493827,51.16049382716048,0)" xlink:href="#bx"/><use transform="matrix(0.0493827160493827,0,0,0.0493827160493827,65.92592592592591,0)" xlink:href="#br"/></g><path fill="#000b1d" d="M185-189c-5-48-123-54-124 2 14 75 158 14 163 119 3 78-121 87-175 55-17-10-28-26-33-46l33-7c5 56 141 63 141-1 0-78-155-14-162-118-5-82 145-84 179-34 5 7 8 16 11 25" id="by"/><path fill="#000b1d" d="M177-190C167-65 218 103 67 71c-23-6-38-20-44-43l32-5c15 47 100 32 89-28v-30C133-14 115 1 83 1 29 1 15-40 15-95c0-56 16-97 71-98 29-1 48 16 59 35 1-10 0-23 2-32h30zM94-22c36 0 50-32 50-73 0-42-14-75-50-75-39 0-46 34-46 75s6 73 46 73" id="bz"/><path fill="#000b1d" d="M117-194c89-4 53 116 60 194h-32v-121c0-31-8-49-39-48C34-167 62-67 57 0H25l-1-190h30c1 10-1 24 2 32 11-22 29-35 61-36" id="bA"/><path fill="#000b1d" d="M100-194c62-1 85 37 85 99 1 63-27 99-86 99S16-35 15-95c0-66 28-99 85-99zM99-20c44 1 53-31 53-75 0-43-8-75-51-75s-53 32-53 75 10 74 51 75" id="bB"/><g id="t"><use transform="matrix(0.0493827160493827,0,0,0.0493827160493827,0,0)" xlink:href="#by"/><use transform="matrix(0.0493827160493827,0,0,0.0493827160493827,11.851851851851848,0)" xlink:href="#br"/><use transform="matrix(0.0493827160493827,0,0,0.0493827160493827,21.728395061728385,0)" xlink:href="#bz"/><use transform="matrix(0.0493827160493827,0,0,0.0493827160493827,31.604938271604922,0)" xlink:href="#bx"/><use transform="matrix(0.0493827160493827,0,0,0.0493827160493827,46.37037037037035,0)" xlink:href="#br"/><use transform="matrix(0.0493827160493827,0,0,0.0493827160493827,56.2469135802469,0)" xlink:href="#bA"/><use transform="matrix(0.0493827160493827,0,0,0.0493827160493827,66.12345679012343,0)" xlink:href="#bv"/><use transform="matrix(0.0493827160493827,0,0,0.0493827160493827,71.06172839506169,0)" xlink:href="#bs"/><use transform="matrix(0.0493827160493827,0,0,0.0493827160493827,80.93827160493824,0)" xlink:href="#bv"/><use transform="matrix(0.0493827160493827,0,0,0.0493827160493827,85.8765432098765,0)" xlink:href="#bw"/><use transform="matrix(0.0493827160493827,0,0,0.0493827160493827,89.77777777777773,0)" xlink:href="#bB"/><use transform="matrix(0.0493827160493827,0,0,0.0493827160493827,99.65432098765427,0)" xlink:href="#bA"/></g><path fill="#000b1d" d="M30 0v-248h187v28H63v79h144v27H63v87h162V0H30" id="bC"/><path fill="#000b1d" d="M85-194c31 0 48 13 60 33l-1-100h32l1 261h-30c-2-10 0-23-3-31C134-8 116 4 85 4 32 4 16-35 15-94c0-66 23-100 70-100zm9 24c-40 0-46 34-46 75 0 40 6 74 45 74 42 0 51-32 51-76 0-42-9-74-50-73" id="bD"/><g id="u"><use transform="matrix(0.0493827160493827,0,0,0.0493827160493827,0,0)" xlink:href="#bC"/><use transform="matrix(0.0493827160493827,0,0,0.0493827160493827,11.851851851851848,0)" xlink:href="#bD"/><use transform="matrix(0.0493827160493827,0,0,0.0493827160493827,21.728395061728385,0)" xlink:href="#bz"/><use transform="matrix(0.0493827160493827,0,0,0.0493827160493827,31.604938271604922,0)" xlink:href="#br"/></g><path fill="#000b1d" d="M30-248c87 1 191-15 191 75 0 78-77 80-158 76V0H30v-248zm33 125c57 0 124 11 124-50 0-59-68-47-124-48v98" id="bE"/><path fill="#000b1d" d="M114-163C36-179 61-72 57 0H25l-1-190h30c1 12-1 29 2 39 6-27 23-49 58-41v29" id="bF"/><path fill="#000b1d" d="M101-234c-31-9-42 10-38 44h38v23H63V0H32v-167H5v-23h27c-7-52 17-82 69-68v24" id="bG"/><g id="v"><use transform="matrix(0.0493827160493827,0,0,0.0493827160493827,0,0)" xlink:href="#bE"/><use transform="matrix(0.0493827160493827,0,0,0.0493827160493827,11.851851851851848,0)" xlink:href="#bF"/><use transform="matrix(0.0493827160493827,0,0,0.0493827160493827,17.72839506172839,0)" xlink:href="#bB"/><use transform="matrix(0.0493827160493827,0,0,0.0493827160493827,27.60493827160493,0)" xlink:href="#bG"/><use transform="matrix(0.0493827160493827,0,0,0.0493827160493827,32.5432098765432,0)" xlink:href="#bw"/><use transform="matrix(0.0493827160493827,0,0,0.0493827160493827,36.444444444444436,0)" xlink:href="#bt"/><use transform="matrix(0.0493827160493827,0,0,0.0493827160493827,40.34567901234567,0)" xlink:href="#br"/></g><path d="M212 10C143 10 82-5 43-28c-5-2-6-6-6-12v-72c0-4 3-6 7-3 52 35 116 49 171 49 96 0 140-43 140-103 0-47-27-82-118-123l-44-18C69-363 41-426 41-493c0-104 80-178 215-178 63 0 117 10 148 27 11 16 2 52 5 77 0 4-3 7-8 4-35-22-90-33-147-33-104 0-132 54-132 96 0 45 26 79 115 117l43 18c123 52 159 114 159 189 0 108-81 186-227 186" id="bH"/><path d="M80-8v-644c0-5 1-7 6-8 25-1 76-3 175-3 226 0 348 131 348 321C609-89 419 2 251 2 195 2 120 1 85 0c-4 0-5-3-5-8zm83-579v513c210 22 361-54 361-267 0-166-114-248-265-248-35 0-67 1-96 2" id="bI"/><path d="M463-656c21-11 60-2 89-5 7 0 8 5 5 9L264-345c-2 2-2 4 0 7L580-9c3 4 1 9-4 9-33-3-78 7-101-6L168-325c-6-6-6-10 0-15zm-300 2V-7c0 5-2 7-6 7H87c-5 0-7-2-7-8v-647c0-4 1-6 6-6h71c4 0 6 2 6 7" id="bJ"/><path d="M311-698L108 38c-15 7-44 1-64 3-4 0-5-1-4-5l203-736c14-9 44-2 64-4 4 0 5 2 4 6" id="bK"/><path d="M416-208H162L90-6c-1 4-3 6-8 6H14C9 0 7-3 8-8l218-607c3-8 6-15 7-41 0-3 2-5 5-5h98c4 0 5 1 6 5L577-7c2 4 1 7-4 7h-76c-4 0-6-2-8-5zm-231-77h208c-23-65-84-242-105-308-17 64-65 198-103 308" id="bL"/><path d="M80-6v-647c0-4 1-7 5-7 32-1 98-3 165-3 177 0 255 100 255 212-1 179-157 238-342 222V-7c0 5-1 7-6 7H86c-4 0-6-2-6-6zm83-581v283c129 9 259-8 259-145 0-91-70-140-171-140-41 0-72 1-88 2" id="bM"/><path d="M163-655V-7c0 5-1 7-6 7H87c-5 0-7-2-7-7v-647c0-5 2-7 6-7h71c4 0 6 2 6 6" id="bN"/><g id="w"><use transform="matrix(0.023384444444444444,0,0,0.023384444444444444,0,0)" xlink:href="#bH"/><use transform="matrix(0.023384444444444444,0,0,0.023384444444444444,11.177764444444444,0)" xlink:href="#bI"/><use transform="matrix(0.023384444444444444,0,0,0.023384444444444444,26.35426888888889,0)" xlink:href="#bJ"/><use transform="matrix(0.023384444444444444,0,0,0.023384444444444444,39.44955777777778,0)" xlink:href="#bK"/><use transform="matrix(0.023384444444444444,0,0,0.023384444444444444,47.65749777777778,0)" xlink:href="#bL"/><use transform="matrix(0.023384444444444444,0,0,0.023384444444444444,61.36078222222222,0)" xlink:href="#bM"/><use transform="matrix(0.023384444444444444,0,0,0.023384444444444444,73.89484444444444,0)" xlink:href="#bN"/></g><path d="M913-1314v148H328v431h471v143H328v444h586L913 0H145v-1314h768" id="bO"/><path d="M575-854c-119 2-197 63-259 134V0H140v-978c55 7 141-23 150 36l15 104c78-83 170-155 321-155 223 0 325 146 325 370V0H775v-623c0-140-61-233-200-231" id="bP"/><path d="M650-73c-53 51-136 87-233 88-153 0-235-95-235-251v-596c-55-8-148 24-148-39v-70l154-20 41-301c4-50 80-28 129-33v335h269v128H358v584c-2 72 34 118 99 120 56 2 78-32 116-46 15 0 19 7 25 17" id="bQ"/><path d="M544 14C232 14 75-190 75-509c0-226 105-376 267-447 57-25 122-37 193-37 265 0 410 167 410 437 0 47-2 68-42 68H249c7 217 94 359 310 364 110 2 183-39 248-80 70-44 93 39 123 67C847-42 716 14 544 14zm243-610c-5-164-86-266-249-269-173-3-262 113-284 269h533" id="bR"/><path d="M536-823c-141 7-187 99-229 205V0H131v-978c60 8 148-26 154 48l12 144c58-123 149-234 328-202 18 3 34 11 49 21l-14 130c-12 52-78 12-124 14" id="bS"/><path d="M581 14c-127 0-201-47-264-114v430H141V-978c55 7 141-23 150 36l17 114c76-89 171-167 326-167 271 0 368 217 368 499 0 229-91 393-245 471-52 26-111 39-176 39zm240-510c-2-202-50-358-245-358-128 0-197 66-259 146v472c53 73 114 114 225 114 198 0 281-159 279-374" id="bT"/><path d="M323-978V0H147v-978h176zm-91-431c74 0 125 50 125 125 0 74-52 123-125 123s-122-50-122-123c0-74 48-125 122-125" id="bU"/><path d="M95-709c0-188 136-281 332-284 128-2 226 47 291 114-25 33-46 112-108 74-47-29-100-60-179-58-97 2-169 47-169 140 0 121 140 131 235 168 118 46 235 94 235 255C732-91 595 11 381 15 247 17 139-38 70-104c26-39 56-126 124-80 51 35 104 76 195 74 109-2 179-54 179-159 0-126-138-136-236-173C209-488 95-543 95-709" id="bV"/><g id="x"><use transform="matrix(0.009248046875,0,0,0.009248046875,0,0)" xlink:href="#bO"/><use transform="matrix(0.009248046875,0,0,0.009248046875,9.248046875,0)" xlink:href="#bP"/><use transform="matrix(0.009248046875,0,0,0.009248046875,19.023232421875,0)" xlink:href="#bQ"/><use transform="matrix(0.009248046875,0,0,0.009248046875,25.163935546875003,0)" xlink:href="#bR"/><use transform="matrix(0.009248046875,0,0,0.009248046875,34.5876953125,0)" xlink:href="#bS"/><use transform="matrix(0.009248046875,0,0,0.009248046875,41.190800781250005,0)" xlink:href="#bT"/><use transform="matrix(0.009248046875,0,0,0.009248046875,51.141699218750006,0)" xlink:href="#bS"/><use transform="matrix(0.009248046875,0,0,0.009248046875,57.74480468750001,0)" xlink:href="#bU"/><use transform="matrix(0.009248046875,0,0,0.009248046875,62.091386718750016,0)" xlink:href="#bV"/><use transform="matrix(0.009248046875,0,0,0.009248046875,69.499072265625,0)" xlink:href="#bR"/></g><path d="M454-137c154-4 244-84 244-236 0-172-165-194-295-240-161-57-303-135-295-354 9-227 154-362 390-362 152 0 266 55 344 137l-45 85c-37 63-91-1-127-21-44-25-97-52-170-50-136 3-221 69-221 201 0 166 169 187 295 236 153 60 300 130 295 341-6 260-155 414-419 414-174 0-309-76-395-172 24-34 40-77 71-104 55-23 84 36 125 60 52 30 115 67 203 65" id="bW"/><path d="M75-490c0-310 160-503 466-503s464 194 464 503c0 310-158 504-464 504C234 14 75-180 75-490zm181 1c0 215 74 366 285 366 210 0 283-152 283-366s-74-367-283-367c-211 0-285 152-285 367" id="bX"/><path d="M450 15c-223 0-325-146-325-370v-623h176v623c0 141 61 233 200 231 119-1 195-63 259-133v-721h176V0c-55-7-141 23-150-36l-16-104C692-57 602 15 450 15" id="bY"/><path d="M69-490c0-299 140-503 438-503 143 0 234 53 308 127-20 26-37 58-61 80-40 18-64-17-93-32-37-19-81-40-143-39-201 7-269 160-269 367 0 204 66 360 261 368 96 4 149-38 198-81 21-19 50-20 67 2l51 64C751-46 640 14 479 14 199 14 69-199 69-490" id="bZ"/><g id="y"><use transform="matrix(0.009248046875,0,0,0.009248046875,0,0)" xlink:href="#bW"/><use transform="matrix(0.009248046875,0,0,0.009248046875,8.702412109375,0)" xlink:href="#bX"/><use transform="matrix(0.009248046875,0,0,0.009248046875,18.690302734375003,0)" xlink:href="#bY"/><use transform="matrix(0.009248046875,0,0,0.009248046875,28.641201171875004,0)" xlink:href="#bS"/><use transform="matrix(0.009248046875,0,0,0.009248046875,34.96686523437501,0)" xlink:href="#bZ"/><use transform="matrix(0.009248046875,0,0,0.009248046875,42.97567382812501,0)" xlink:href="#bR"/><use transform="matrix(0.009248046875,0,0,0.009248046875,52.39943359375001,0)" xlink:href="#bV"/></g><path d="M1052-184C961-66 832 17 628 14c-289-4-447-172-522-398-53-160-53-388 3-546 81-226 241-394 534-399 180-3 301 72 392 167-25 33-46 70-75 99-51 21-73-33-114-51-77-60-256-80-362-23-152 81-231 248-231 480 0 233 83 400 235 481 113 60 301 37 376-30 33-15 74-101 116-56" id="ca"/><path d="M323-1422V0H147v-1422h176" id="cb"/><path d="M492-995c127 0 201 45 264 114v-541h176V0c-55-7-141 23-150-36l-18-117C688-64 595 14 440 14 170 14 74-204 74-486c0-228 88-392 242-470 52-26 111-39 176-39zM255-486c2 201 49 359 242 359 130 0 195-67 259-146v-473c-54-73-114-114-224-114-197 0-279 159-277 374" id="cc"/><g id="z"><use transform="matrix(0.009248046875,0,0,0.009248046875,0,0)" xlink:href="#ca"/><use transform="matrix(0.009248046875,0,0,0.009248046875,10.098867187500002,0)" xlink:href="#cb"/><use transform="matrix(0.009248046875,0,0,0.009248046875,14.445449218750003,0)" xlink:href="#bX"/><use transform="matrix(0.009248046875,0,0,0.009248046875,24.433339843750005,0)" xlink:href="#bY"/><use transform="matrix(0.009248046875,0,0,0.009248046875,34.384238281250006,0)" xlink:href="#cc"/></g><path d="M1178 0c-74-7-179 24-202-42L864-358H322L211-43C194 22 84-6 8 0l493-1314h185zM368-488h450c-69-195-137-390-206-585-7-21-13-44-19-69-68 226-151 434-225 654" id="cd"/><path d="M159 20C138 82 73 94-12 87l646-1445c23-68 82-67 166-64" id="ce"/><g id="A"><use transform="matrix(0.009248046875,0,0,0.009248046875,0,0)" xlink:href="#cd"/><use transform="matrix(0.009248046875,0,0,0.009248046875,10.958935546875,0)" xlink:href="#bT"/><use transform="matrix(0.009248046875,0,0,0.009248046875,20.909833984375002,0)" xlink:href="#bT"/><use transform="matrix(0.009248046875,0,0,0.009248046875,30.768251953125002,0)" xlink:href="#bV"/><use transform="matrix(0.009248046875,0,0,0.009248046875,38.1759375,0)" xlink:href="#ce"/></g><path d="M133-957c36-227 169-372 422-372 224 0 376 114 376 336 0 173-90 260-222 302 151 40 251 135 251 313 0 198-114 310-263 365-98 37-246 34-340 1C213-61 139-178 95-327c44-18 136-74 166-8 49 106 110 211 268 207 159-4 256-94 263-245 8-191-130-240-325-240v-121c175-4 300-59 300-230 0-143-79-222-221-222-138 0-212 82-243 193-12 42-31 58-82 50" id="cf"/><use transform="matrix(0.009248046875,0,0,0.009248046875,0,0)" xlink:href="#cf" id="B"/><g id="C"><use transform="matrix(0.0056884765625,0,0,0.0056884765625,0,0)" xlink:href="#bS"/><use transform="matrix(0.0056884765625,0,0,0.0056884765625,3.9022949218750003,0)" xlink:href="#cc"/></g><path d="M514-995c228 0 341 142 341 370V0c-56-5-123 17-137-41l-22-91C610-53 522 18 358 15 189 12 84-73 84-244c0-178 154-235 319-276 76-19 169-27 280-30 12-176-30-304-190-304-107 0-171 42-231 86-34 25-81 14-98-16l-32-56c98-93 207-155 382-155zM253-253c0 98 61 145 158 145 133 0 205-61 272-130v-202c-134 6-246 19-333 58-57 26-97 59-97 129" id="cg"/><path d="M409 288c-14 65-120 35-192 42L385-58 11-978h152c30-1 46 16 53 36 86 232 175 459 256 696 80-235 169-463 250-696 20-58 122-29 191-36" id="ch"/><g id="D"><use transform="matrix(0.009248046875,0,0,0.009248046875,0,0)" xlink:href="#bT"/><use transform="matrix(0.009248046875,0,0,0.009248046875,9.950898437500001,0)" xlink:href="#cg"/><use transform="matrix(0.009248046875,0,0,0.009248046875,19.023232421875,0)" xlink:href="#bS"/><use transform="matrix(0.009248046875,0,0,0.009248046875,25.626337890625003,0)" xlink:href="#bQ"/><use transform="matrix(0.009248046875,0,0,0.009248046875,31.970498046875,0)" xlink:href="#ch"/></g><path fill="#000b1d" d="M30-248c118-7 216 8 213 122C240-48 200 0 122 0H30v-248zM63-27c89 8 146-16 146-99s-60-101-146-95v194" id="ci"/><g id="E"><use transform="matrix(0.0493827160493827,0,0,0.0493827160493827,0,0)" xlink:href="#ci"/><use transform="matrix(0.0493827160493827,0,0,0.0493827160493827,12.79012345679012,0)" xlink:href="#bs"/><use transform="matrix(0.0493827160493827,0,0,0.0493827160493827,22.666666666666657,0)" xlink:href="#bv"/><use transform="matrix(0.0493827160493827,0,0,0.0493827160493827,27.604938271604922,0)" xlink:href="#bs"/></g><path fill="#000b1d" d="M212-179c-10-28-35-45-73-45-59 0-87 40-87 99 0 60 29 101 89 101 43 0 62-24 78-52l27 14C228-24 195 4 139 4 59 4 22-46 18-125c-6-104 99-153 187-111 19 9 31 26 39 46" id="cj"/><path fill="#000b1d" d="M96-169c-40 0-48 33-48 73s9 75 48 75c24 0 41-14 43-38l32 2c-6 37-31 61-74 61-59 0-76-41-82-99-10-93 101-131 147-64 4 7 5 14 7 22l-32 3c-4-21-16-35-41-35" id="ck"/><g id="F"><use transform="matrix(0.0493827160493827,0,0,0.0493827160493827,0,0)" xlink:href="#cj"/><use transform="matrix(0.0493827160493827,0,0,0.0493827160493827,12.79012345679012,0)" xlink:href="#bB"/><use transform="matrix(0.0493827160493827,0,0,0.0493827160493827,22.666666666666657,0)" xlink:href="#bt"/><use transform="matrix(0.0493827160493827,0,0,0.0493827160493827,26.56790123456789,0)" xlink:href="#bt"/><use transform="matrix(0.0493827160493827,0,0,0.0493827160493827,30.469135802469125,0)" xlink:href="#br"/><use transform="matrix(0.0493827160493827,0,0,0.0493827160493827,40.34567901234566,0)" xlink:href="#ck"/><use transform="matrix(0.0493827160493827,0,0,0.0493827160493827,49.23456790123455,0)" xlink:href="#bv"/><use transform="matrix(0.0493827160493827,0,0,0.0493827160493827,54.17283950617282,0)" xlink:href="#bw"/><use transform="matrix(0.0493827160493827,0,0,0.0493827160493827,58.074074074074055,0)" xlink:href="#bB"/><use transform="matrix(0.0493827160493827,0,0,0.0493827160493827,67.95061728395059,0)" xlink:href="#bA"/></g><path fill="#fff" d="M210-9v-539H7c-5 0-7-3-6-8l13-93c1-6 3-8 9-8h497c6 0 9 2 10 9l9 91c1 6-2 9-7 9H330V-9c0 6-3 9-8 9H219c-7 1-9-2-9-9" id="cl"/><path fill="#fff" d="M316-97v-123c-15-2-32-3-55-3-79 0-114 26-114 69 0 37 26 69 98 69 26 0 49-3 71-12zm117-208c0 89 1 187 0 270-82 35-140 45-208 45C116 10 29-41 29-154c0-125 138-172 287-157 1-38-7-87-101-87-50 0-94 10-131 28-3 1-8 0-8-6v-87c0-5 1-7 6-10 43-20 98-30 152-30 139 0 199 87 199 198" id="cm"/><path fill="#fff" d="M64-493h94c6 0 9 2 11 8 5 13 9 38 10 60 34-42 91-78 160-78 6 0 8 1 8 7v106c0 5-2 7-9 7-71-2-130 23-153 53V-8c0 6-3 8-9 8H72c-7 0-9-3-9-8-2-158 5-329-5-479 0-5 1-6 6-6" id="cn"/><path fill="#fff" d="M402 56C401-18 260 0 182-8c-89 63-48 141 83 141 95 0 137-39 137-77zM243-416c-50 0-81 31-81 82 0 46 28 80 81 80 50 0 80-29 80-78 0-47-24-84-80-84zm0-87c47-1 77 10 111 10h139c5 0 6 2 6 6v82c0 4-1 6-6 6-19 0-55-2-77-5 11 16 22 40 22 76 0 120-107 174-233 158-7 24-4 44 10 61l102 4c137 7 196 61 196 143 0 102-100 184-256 184C96 222 23 141 23 68c0-32 27-73 93-130-27-40-28-97-3-140-41-26-69-69-69-130 0-96 73-171 199-171" id="co"/><path fill="#fff" d="M460-223c-76 7-216 3-306 4 3 70 49 126 151 126 45 0 86-8 124-24 3-2 6-1 6 4v83c0 6-2 9-6 11-38 18-82 29-150 29C97 10 32-118 32-241c0-139 84-262 235-262 172 0 221 136 201 273-1 4-3 6-8 7zm-306-82c60 0 150 1 204-1 1-38-17-101-96-101-69 0-100 53-108 102" id="cp"/><path fill="#fff" d="M296-88v72c0 6-1 10-6 12C184 31 74 7 74-129v-263H11c-5-1-7-3-7-9v-84c0-6 2-8 8-8h63c1-35 5-98 10-123 1-5 3-8 8-9l101-14c5-1 7 0 7 5-3 33-5 92-5 141h97c5 0 7 2 7 7v87c0 5-2 7-7 7h-98v237c-6 61 41 73 95 61 3-1 6 0 6 6" id="cq"/><g id="G"><use transform="matrix(0.019999999999999993,0,0,0.019999999999999993,0,0)" xlink:href="#cl"/><use transform="matrix(0.019999999999999993,0,0,0.019999999999999993,9.519999999999998,0)" xlink:href="#cm"/><use transform="matrix(0.019999999999999993,0,0,0.019999999999999993,19.439999999999994,0)" xlink:href="#cn"/><use transform="matrix(0.019999999999999993,0,0,0.019999999999999993,26.45999999999999,0)" xlink:href="#co"/><use transform="matrix(0.019999999999999993,0,0,0.019999999999999993,36.579999999999984,0)" xlink:href="#cp"/><use transform="matrix(0.019999999999999993,0,0,0.019999999999999993,46.87999999999998,0)" xlink:href="#cq"/></g><path fill="#333" d="M80-8v-644c0-5 1-7 6-8 25-1 76-3 175-3 226 0 348 131 348 321C609-89 419 2 251 2 195 2 120 1 85 0c-4 0-5-3-5-8zm83-579v513c210 22 361-54 361-267 0-166-114-248-265-248-35 0-67 1-96 2" id="cr"/><path fill="#333" d="M323-75v-157c-14-2-36-4-66-4-97 0-144 33-144 89 0 45 31 89 119 89 32 0 62-5 91-17zm81-233c0 91 1 191 0 275C258 41 36 32 31-147c-4-128 147-165 292-151 2-57-3-124-113-124-48 0-92 11-127 30-3 1-7 0-7-5 3-22-6-55 5-69 39-19 89-30 142-30 128 0 181 84 181 188" id="cs"/><path fill="#333" d="M279-65c-3 20 7 50-6 61C177 29 81 9 81-121v-293H13c-6-1-7-3-7-8v-57c0-5 2-7 7-7h68c1-37 5-106 9-128 1-4 3-6 7-7l68-11c4-1 6 0 6 4-3 35-6 93-6 142h106c4 0 6 2 6 7v59c0 4-2 6-6 6H165v281c-7 67 51 85 108 64 3-1 6-1 6 4" id="ct"/><g id="H"><use transform="matrix(0.017777777777777778,0,0,0.017777777777777778,0,0)" xlink:href="#cr"/><use transform="matrix(0.017777777777777778,0,0,0.017777777777777778,11.537777777777778,0)" xlink:href="#cs"/><use transform="matrix(0.017777777777777778,0,0,0.017777777777777778,19.964444444444446,0)" xlink:href="#ct"/><use transform="matrix(0.017777777777777778,0,0,0.017777777777777778,25.404444444444447,0)" xlink:href="#cs"/></g><path fill="#333" d="M80-6v-647c0-4 1-7 5-7 32-1 98-3 165-3 177 0 255 100 255 212-1 179-157 238-342 222V-7c0 5-1 7-6 7H86c-4 0-6-2-6-6zm83-581v283c129 9 259-8 259-145 0-91-70-140-171-140-41 0-72 1-88 2" id="cu"/><path fill="#333" d="M70-486h64c6 0 7 2 9 7 4 12 7 47 8 69 35-48 97-86 161-86 5 0 7 1 7 7v72c0 5-1 6-7 6-69-1-132 33-157 73L154-6c0 5-2 6-6 6H77c-5 0-7-2-7-7-2-155 5-327-5-473 0-4 1-6 5-6" id="cv"/><path fill="#333" d="M265-496c141 0 228 108 228 252 0 152-94 254-228 254C104 10 35-120 35-243c0-141 90-253 230-253zm-4 72c-84 0-142 72-142 179 0 102 53 183 148 183 71 0 141-56 141-180 0-93-43-182-147-182" id="cw"/><path fill="#333" d="M79-486c-13-159 53-266 200-234 5 1 5 4 5 8v59c0 4-2 6-6 5-74-15-114 3-116 117v45h96c4 0 6 2 6 5v60c0 5-2 6-6 7h-96V-7c0 4-1 7-6 7H85c-4 0-6-2-6-7v-407H14c-4 0-6-2-6-7v-59c0-4 2-6 6-6h65" id="cx"/><path fill="#333" d="M70-8v-471c0-5 2-7 7-7h71c4 0 6 1 6 6V-7c0 5-1 7-7 7H78c-5 0-8-2-8-8zm42-574c-31 0-50-21-50-51s21-51 51-51c32 0 50 22 50 51 0 30-20 51-51 51" id="cy"/><path fill="#333" d="M217-5c-5 16-25 15-51 15-49 0-96-17-96-111v-610c0-5 2-6 7-6h70c5 0 6 2 6 6v603c0 48 26 52 60 45 3 0 4 2 4 6v52" id="cz"/><path fill="#333" d="M440-237c-86 8-224 2-321 4-1 95 54 170 167 170 44 0 86-8 125-27 3-2 5 0 5 4-2 21 5 54-5 67-34 17-78 29-141 29C97 10 35-117 35-239c0-140 82-257 221-257 163 0 209 131 191 253 0 3-3 6-7 6zm-134-58c58-5 64 10 65-13 0-36-24-119-118-119-83 0-124 65-133 132h186" id="cA"/><path fill="#333" d="M317-398c-28-17-74-29-116-29-66 0-88 32-88 62s18 51 93 81c101 39 142 80 142 151 0 92-75 143-179 143C114 10 64-2 35-19c-11-16-2-52-5-76 0-5 3-7 6-5 59 51 230 63 230-25 0-37-22-59-91-86C75-249 33-290 33-361c0-72 61-135 170-135 55 0 96 10 117 22 11 15 2 48 5 71 0 5-3 8-8 5" id="cB"/><g id="I"><use transform="matrix(0.017777777777777778,0,0,0.017777777777777778,0,0)" xlink:href="#cu"/><use transform="matrix(0.017777777777777778,0,0,0.017777777777777778,9.422222222222222,0)" xlink:href="#cv"/><use transform="matrix(0.017777777777777778,0,0,0.017777777777777778,15.217777777777776,0)" xlink:href="#cw"/><use transform="matrix(0.017777777777777778,0,0,0.017777777777777778,24.586666666666666,0)" xlink:href="#cx"/><use transform="matrix(0.017777777777777778,0,0,0.017777777777777778,29.44,0)" xlink:href="#cy"/><use transform="matrix(0.017777777777777778,0,0,0.017777777777777778,33.44,0)" xlink:href="#cz"/><use transform="matrix(0.017777777777777778,0,0,0.017777777777777778,37.724444444444444,0)" xlink:href="#cA"/><use transform="matrix(0.017777777777777778,0,0,0.017777777777777778,46.61333333333334,0)" xlink:href="#cB"/></g><path fill="#333" d="M655-7c-4 19-26 17-51 17-59 0-100-17-169-122-74-113-157-196-187-210-43 1-119 40-119 126 0 67 51 128 145 128 44 0 76-8 101-20 4-1 5 1 5 5v65c0 5-2 6-6 8-19 10-54 20-112 20C138 10 45-65 45-189c0-102 72-166 152-191-30-29-68-73-68-135 0-100 78-157 184-157 48 0 85 7 110 21 9 17 2 50 4 74 0 5-3 6-7 4-21-13-58-25-105-25-64 0-104 27-104 83 0 44 39 84 84 116h322c5 0 6 2 5 6l-11 62c-1 5-3 6-7 6H361c37 33 98 106 142 168 53 75 74 97 147 86 4-1 5 0 5 5v59" id="cC"/><use transform="matrix(0.017777777777777778,0,0,0.017777777777777778,0,0)" xlink:href="#cC" id="J"/><path fill="#333" d="M416-208H162L90-6c-1 4-3 6-8 6H14C9 0 7-3 8-8l218-607c3-8 6-15 7-41 0-3 2-5 5-5h98c4 0 5 1 6 5L577-7c2 4 1 7-4 7h-76c-4 0-6-2-8-5zm-231-77h208c-23-65-84-242-105-308-17 64-65 198-103 308" id="cD"/><path fill="#333" d="M393 0c-16-3-10-32-14-48-42 43-95 58-145 58-85 0-165-43-165-188v-302c0-5 2-6 7-6h71c4 0 5 2 5 6v292c0 77 36 124 106 124 48 0 86-18 116-51v-365c0-4 2-6 7-6h70c6 0 6 2 6 6 3 153-6 333 6 474 0 4-1 6-6 6h-64" id="cE"/><path fill="#333" d="M451-27C262 61 35-3 35-239c0-166 143-285 335-251v-221c0-5 2-6 6-6h72c5 0 6 2 6 5 1 225-3 456 2 678 0 4-1 5-5 7zm-81-49v-338c-134-40-254 46-250 171C125-80 243-39 370-76" id="cF"/><path fill="#333" d="M134-486c18 5 10 28 15 56 44-44 95-66 153-66 71 0 163 35 163 193V-7c0 5-2 7-7 7h-70c-5 0-7-2-7-8v-287c0-76-33-127-103-127-51 0-93 23-125 61V-7c0 5-1 7-6 7H76c-4 0-6-2-6-7-2-155 4-326-4-473 0-4 1-6 6-6h62" id="cG"/><path fill="#333" d="M395-75v62c0 4 0 6-4 7-33 13-72 16-109 16C119 10 35-106 35-241c0-178 167-297 356-242 9 17 2 49 4 72 0 5-3 5-7 4-129-48-272 19-268 163C124-87 258-37 389-79c5-1 6 1 6 4" id="cH"/><g id="K"><use transform="matrix(0.017777777777777778,0,0,0.017777777777777778,0,0)" xlink:href="#cD"/><use transform="matrix(0.017777777777777778,0,0,0.017777777777777778,10.186666666666667,0)" xlink:href="#cE"/><use transform="matrix(0.017777777777777778,0,0,0.017777777777777778,19.57333333333333,0)" xlink:href="#cF"/><use transform="matrix(0.017777777777777778,0,0,0.017777777777777778,28.888888888888886,0)" xlink:href="#cy"/><use transform="matrix(0.017777777777777778,0,0,0.017777777777777778,32.888888888888886,0)" xlink:href="#cA"/><use transform="matrix(0.017777777777777778,0,0,0.017777777777777778,41.45777777777778,0)" xlink:href="#cG"/><use transform="matrix(0.017777777777777778,0,0,0.017777777777777778,50.96888888888889,0)" xlink:href="#cH"/><use transform="matrix(0.017777777777777778,0,0,0.017777777777777778,58.43555555555557,0)" xlink:href="#cA"/><use transform="matrix(0.017777777777777778,0,0,0.017777777777777778,67.32444444444445,0)" xlink:href="#cB"/></g><path fill="#333" d="M156 0H86c-4 0-6-1-6-6v-646c0-5 1-8 6-8 56-2 107-3 174-3 147 0 245 63 245 191 0 94-64 152-138 177C401-248 535-51 561-8c2 4 2 8-3 8-31-2-71 5-95-4-31-47-114-175-164-252-8-12-13-16-23-16H162V-6c0 4-2 6-6 6zm6-345h107c95 0 153-49 153-123 0-76-58-121-165-121-38 0-75 1-95 2v242" id="cI"/><path fill="#333" d="M267-216H43c-4 0-5-1-5-5v-63c0-3 1-5 5-5h224c3 0 5 1 5 5v63c0 4-1 5-5 5" id="cJ"/><path fill="#333" d="M135-486c16 4 10 33 14 53 78-81 227-91 283 10 42-41 94-73 167-73 74 0 162 39 162 191V-6c0 4-2 6-7 6h-69c-5 0-7-2-7-7v-292c0-68-31-123-102-123-50 0-91 22-123 58 11 108 2 241 5 357 0 5-2 7-7 7h-70c-5 0-7-2-7-7v-295c0-76-35-120-100-120-47 0-83 18-121 56V-6c0 4-1 6-6 6H76c-5 0-6-2-6-7-2-154 4-327-4-473 0-4 1-6 6-6h63" id="cK"/><g id="L"><use transform="matrix(0.017777777777777778,0,0,0.017777777777777778,0,0)" xlink:href="#cI"/><use transform="matrix(0.017777777777777778,0,0,0.017777777777777778,9.937777777777777,0)" xlink:href="#cA"/><use transform="matrix(0.017777777777777778,0,0,0.017777777777777778,18.560000000000002,0)" xlink:href="#cs"/><use transform="matrix(0.017777777777777778,0,0,0.017777777777777778,26.986666666666668,0)" xlink:href="#cz"/><use transform="matrix(0.017777777777777778,0,0,0.017777777777777778,31.27111111111111,0)" xlink:href="#cJ"/><use transform="matrix(0.017777777777777778,0,0,0.017777777777777778,36.782222222222224,0)" xlink:href="#ct"/><use transform="matrix(0.017777777777777778,0,0,0.017777777777777778,42.11555555555555,0)" xlink:href="#cy"/><use transform="matrix(0.017777777777777778,0,0,0.017777777777777778,46.11555555555555,0)" xlink:href="#cK"/><use transform="matrix(0.017777777777777778,0,0,0.017777777777777778,60.906666666666666,0)" xlink:href="#cA"/></g><path fill="#333" d="M486-70L475-6c-1 5-3 6-7 6H88c-7 0-8-2-8-8v-646c0-5 2-7 7-7h365c5 0 6 1 7 6l8 63c1 4 0 7-5 7H163v209h270c4 0 6 2 6 6v64c0 5-3 6-6 6H163v224h318c5 0 6 2 5 6" id="cL"/><path fill="#333" d="M158-243L3-478c-3-4-1-8 3-8h82c6 0 8 2 10 6 40 62 77 127 118 188l122-189c2-4 4-5 8-5h74c4 0 6 3 3 7-39 58-115 172-159 232C304-187 395-55 430-7c3 3 1 7-4 7h-84c-5 0-8-2-10-6-42-64-81-129-124-192L84-5c-2 4-3 5-8 5H2c-5 0-7-3-4-7 46-66 114-171 160-236" id="cM"/><path fill="#333" d="M256-496c148 0 234 102 234 236C490-61 327 28 153 6v200c0 4 0 6-5 7-23 2-69 7-73 8-4 0-5-1-5-6v-671c35-13 101-40 186-40zm-10 73c-35 0-65 6-93 16v339c131 25 252-33 252-187 0-102-58-168-159-168" id="cN"/><g id="M"><use transform="matrix(0.017777777777777778,0,0,0.017777777777777778,0,0)" xlink:href="#cL"/><use transform="matrix(0.017777777777777778,0,0,0.017777777777777778,9.671111111111111,0)" xlink:href="#cM"/><use transform="matrix(0.017777777777777778,0,0,0.017777777777777778,17.36888888888889,0)" xlink:href="#cN"/><use transform="matrix(0.017777777777777778,0,0,0.017777777777777778,26.84444444444445,0)" xlink:href="#cA"/><use transform="matrix(0.017777777777777778,0,0,0.017777777777777778,35.41333333333334,0)" xlink:href="#cv"/><use transform="matrix(0.017777777777777778,0,0,0.017777777777777778,41.19111111111112,0)" xlink:href="#cy"/><use transform="matrix(0.017777777777777778,0,0,0.017777777777777778,45.19111111111112,0)" xlink:href="#cA"/><use transform="matrix(0.017777777777777778,0,0,0.017777777777777778,53.760000000000005,0)" xlink:href="#cG"/><use transform="matrix(0.017777777777777778,0,0,0.017777777777777778,63.27111111111112,0)" xlink:href="#cH"/><use transform="matrix(0.017777777777777778,0,0,0.017777777777777778,70.73777777777778,0)" xlink:href="#cA"/><use transform="matrix(0.017777777777777778,0,0,0.017777777777777778,79.62666666666667,0)" xlink:href="#cB"/></g><g id="N"><use transform="matrix(0.017777777777777778,0,0,0.017777777777777778,0,0)" xlink:href="#cr"/><use transform="matrix(0.017777777777777778,0,0,0.017777777777777778,11.537777777777778,0)" xlink:href="#cs"/><use transform="matrix(0.017777777777777778,0,0,0.017777777777777778,19.964444444444446,0)" xlink:href="#ct"/><use transform="matrix(0.017777777777777778,0,0,0.017777777777777778,25.404444444444447,0)" xlink:href="#cs"/></g><use transform="matrix(0.017777777777777778,0,0,0.017777777777777778,0,0)" xlink:href="#cC" id="O"/><path fill="#333" d="M163-655V-7c0 5-1 7-6 7H87c-5 0-7-2-7-7v-647c0-5 2-7 6-7h71c4 0 6 2 6 6" id="cO"/><g id="P"><use transform="matrix(0.017777777777777778,0,0,0.017777777777777778,0,0)" xlink:href="#cO"/><use transform="matrix(0.017777777777777778,0,0,0.017777777777777778,4.2666666666666675,0)" xlink:href="#cG"/><use transform="matrix(0.017777777777777778,0,0,0.017777777777777778,13.777777777777779,0)" xlink:href="#ct"/><use transform="matrix(0.017777777777777778,0,0,0.017777777777777778,18.986666666666668,0)" xlink:href="#cA"/><use transform="matrix(0.017777777777777778,0,0,0.017777777777777778,27.555555555555557,0)" xlink:href="#cv"/><use transform="matrix(0.017777777777777778,0,0,0.017777777777777778,33.20888888888889,0)" xlink:href="#cs"/><use transform="matrix(0.017777777777777778,0,0,0.017777777777777778,41.635555555555555,0)" xlink:href="#cH"/><use transform="matrix(0.017777777777777778,0,0,0.017777777777777778,49.61777777777779,0)" xlink:href="#ct"/><use transform="matrix(0.017777777777777778,0,0,0.017777777777777778,54.95111111111111,0)" xlink:href="#cy"/><use transform="matrix(0.017777777777777778,0,0,0.017777777777777778,58.95111111111111,0)" xlink:href="#cw"/><use transform="matrix(0.017777777777777778,0,0,0.017777777777777778,68.32,0)" xlink:href="#cG"/><use transform="matrix(0.017777777777777778,0,0,0.017777777777777778,77.91999999999999,0)" xlink:href="#cB"/></g><path fill="#333" d="M518-80c-3 23 6 56-5 71-33 14-79 19-135 19C211 10 40-87 40-332c0-200 138-339 351-339 67 0 106 7 128 18 3 1 5 4 5 8v67c0 6-4 6-7 5-28-15-73-23-128-23-157 0-264 102-264 262 0 209 157 268 262 268 51 0 88-4 125-18 4-1 6-1 6 4" id="cP"/><g id="Q"><use transform="matrix(0.017777777777777778,0,0,0.017777777777777778,0,0)" xlink:href="#cP"/><use transform="matrix(0.017777777777777778,0,0,0.017777777777777778,9.724444444444444,0)" xlink:href="#cw"/><use transform="matrix(0.017777777777777778,0,0,0.017777777777777778,19.093333333333334,0)" xlink:href="#cG"/><use transform="matrix(0.017777777777777778,0,0,0.017777777777777778,28.60444444444445,0)" xlink:href="#ct"/><use transform="matrix(0.017777777777777778,0,0,0.017777777777777778,33.81333333333333,0)" xlink:href="#cA"/><use transform="matrix(0.017777777777777778,0,0,0.017777777777777778,42.382222222222225,0)" xlink:href="#cG"/><use transform="matrix(0.017777777777777778,0,0,0.017777777777777778,51.89333333333334,0)" xlink:href="#ct"/></g><path fill="#333" d="M140-251c81 0 123 46 123 126C263-46 219 4 140 4 59 4 17-45 17-125s42-126 123-126zm0 227c63 0 89-41 89-101s-29-99-89-99c-61 0-89 39-89 99S79-25 140-24" id="cQ"/><path fill="#333" d="M117-194c89-4 53 116 60 194h-32v-121c0-31-8-49-39-48C34-167 62-67 57 0H25l-1-190h30c1 10-1 24 2 32 11-22 29-35 61-36" id="cR"/><path fill="#333" d="M24 0v-261h32V0H24" id="cS"/><path fill="#333" d="M24-231v-30h32v30H24zM24 0v-190h32V0H24" id="cT"/><path fill="#333" d="M100-194c63 0 86 42 84 106H49c0 40 14 67 53 68 26 1 43-12 49-29l28 8c-11 28-37 45-77 45C44 4 14-33 15-96c1-61 26-98 85-98zm52 81c6-60-76-77-97-28-3 7-6 17-6 28h103" id="cU"/><path fill="#333" d="M0 4l72-265h28L28 4H0" id="cV"/><path fill="#333" d="M101-234c-31-9-42 10-38 44h38v23H63V0H32v-167H5v-23h27c-7-52 17-82 69-68v24" id="cW"/><g id="R"><use transform="matrix(0.0987654320987654,0,0,0.0987654320987654,0,0)" xlink:href="#cQ"/><use transform="matrix(0.0987654320987654,0,0,0.0987654320987654,27.654320987654312,0)" xlink:href="#cR"/><use transform="matrix(0.0987654320987654,0,0,0.0987654320987654,47.40740740740739,0)" xlink:href="#cS"/><use transform="matrix(0.0987654320987654,0,0,0.0987654320987654,55.20987654320986,0)" xlink:href="#cT"/><use transform="matrix(0.0987654320987654,0,0,0.0987654320987654,63.01234567901233,0)" xlink:href="#cR"/><use transform="matrix(0.0987654320987654,0,0,0.0987654320987654,82.7654320987654,0)" xlink:href="#cU"/><use transform="matrix(0.0987654320987654,0,0,0.0987654320987654,102.51851851851849,0)" xlink:href="#cV"/><use transform="matrix(0.0987654320987654,0,0,0.0987654320987654,112.39506172839502,0)" xlink:href="#cQ"/><use transform="matrix(0.0987654320987654,0,0,0.0987654320987654,140.04938271604934,0)" xlink:href="#cW"/><use transform="matrix(0.0987654320987654,0,0,0.0987654320987654,149.2345679012345,0)" xlink:href="#cW"/><use transform="matrix(0.0987654320987654,0,0,0.0987654320987654,159.11111111111103,0)" xlink:href="#cS"/><use transform="matrix(0.0987654320987654,0,0,0.0987654320987654,166.91358024691348,0)" xlink:href="#cT"/><use transform="matrix(0.0987654320987654,0,0,0.0987654320987654,174.71604938271594,0)" xlink:href="#cR"/><use transform="matrix(0.0987654320987654,0,0,0.0987654320987654,194.46913580246903,0)" xlink:href="#cU"/></g><path fill="#333" d="M30-248c87 1 191-15 191 75 0 78-77 80-158 76V0H30v-248zm33 125c57 0 124 11 124-50 0-59-68-47-124-48v98" id="cX"/><path fill="#333" d="M114-163C36-179 61-72 57 0H25l-1-190h30c1 12-1 29 2 39 6-27 23-49 58-41v29" id="cY"/><path fill="#333" d="M135-143c-3-34-86-38-87 0 15 53 115 12 119 90S17 21 10-45l28-5c4 36 97 45 98 0-10-56-113-15-118-90-4-57 82-63 122-42 12 7 21 19 24 35" id="cZ"/><path fill="#333" d="M100-194c62-1 85 37 85 99 1 63-27 99-86 99S16-35 15-95c0-66 28-99 85-99zM99-20c44 1 53-31 53-75 0-43-8-75-51-75s-53 32-53 75 10 74 51 75" id="da"/><path fill="#333" d="M141-36C126-15 110 5 73 4 37 3 15-17 15-53c-1-64 63-63 125-63 3-35-9-54-41-54-24 1-41 7-42 31l-33-3c5-37 33-52 76-52 45 0 72 20 72 64v82c-1 20 7 32 28 27v20c-31 9-61-2-59-35zM48-53c0 20 12 33 32 33 41-3 63-29 60-74-43 2-92-5-92 41" id="db"/><path fill="#333" d="M9 0v-24l116-142H16v-24h144v24L44-24h123V0H9" id="dc"/><path fill="#333" d="M59-47c-2 24 18 29 38 22v24C64 9 27 4 27-40v-127H5v-23h24l9-43h21v43h35v23H59v120" id="dd"/><g id="S"><use transform="matrix(0.0987654320987654,0,0,0.0987654320987654,0,0)" xlink:href="#cX"/><use transform="matrix(0.0987654320987654,0,0,0.0987654320987654,23.703703703703695,0)" xlink:href="#cU"/><use transform="matrix(0.0987654320987654,0,0,0.0987654320987654,43.45679012345677,0)" xlink:href="#cY"/><use transform="matrix(0.0987654320987654,0,0,0.0987654320987654,55.209876543209845,0)" xlink:href="#cZ"/><use transform="matrix(0.0987654320987654,0,0,0.0987654320987654,72.98765432098762,0)" xlink:href="#da"/><use transform="matrix(0.0987654320987654,0,0,0.0987654320987654,92.74074074074069,0)" xlink:href="#cR"/><use transform="matrix(0.0987654320987654,0,0,0.0987654320987654,112.49382716049377,0)" xlink:href="#db"/><use transform="matrix(0.0987654320987654,0,0,0.0987654320987654,132.24691358024685,0)" xlink:href="#cS"/><use transform="matrix(0.0987654320987654,0,0,0.0987654320987654,140.0493827160493,0)" xlink:href="#cT"/><use transform="matrix(0.0987654320987654,0,0,0.0987654320987654,147.85185185185176,0)" xlink:href="#dc"/><use transform="matrix(0.0987654320987654,0,0,0.0987654320987654,165.62962962962953,0)" xlink:href="#db"/><use transform="matrix(0.0987654320987654,0,0,0.0987654320987654,185.38271604938262,0)" xlink:href="#dd"/><use transform="matrix(0.0987654320987654,0,0,0.0987654320987654,195.25925925925915,0)" xlink:href="#cT"/><use transform="matrix(0.0987654320987654,0,0,0.0987654320987654,203.0617283950616,0)" xlink:href="#da"/><use transform="matrix(0.0987654320987654,0,0,0.0987654320987654,222.8148148148147,0)" xlink:href="#cR"/></g><path fill="#333" d="M16-82v-28h88v28H16" id="de"/><use transform="matrix(0.0987654320987654,0,0,0.0987654320987654,0,0)" xlink:href="#de" id="T"/><path fill="#333" d="M233-177c-1 41-23 64-60 70L243 0h-38l-65-103H63V0H30v-248c88 3 205-21 203 71zM63-129c60-2 137 13 137-47 0-61-80-42-137-45v92" id="df"/><path fill="#333" d="M210-169c-67 3-38 105-44 169h-31v-121c0-29-5-50-35-48C34-165 62-65 56 0H25l-1-190h30c1 10-1 24 2 32 10-44 99-50 107 0 11-21 27-35 58-36 85-2 47 119 55 194h-31v-121c0-29-5-49-35-48" id="dg"/><g id="U"><use transform="matrix(0.0987654320987654,0,0,0.0987654320987654,0,0)" xlink:href="#df"/><use transform="matrix(0.0987654320987654,0,0,0.0987654320987654,25.58024691358024,0)" xlink:href="#cU"/><use transform="matrix(0.0987654320987654,0,0,0.0987654320987654,45.333333333333314,0)" xlink:href="#db"/><use transform="matrix(0.0987654320987654,0,0,0.0987654320987654,65.08641975308639,0)" xlink:href="#cS"/><use transform="matrix(0.0987654320987654,0,0,0.0987654320987654,72.88888888888886,0)" xlink:href="#de"/><use transform="matrix(0.0987654320987654,0,0,0.0987654320987654,84.64197530864195,0)" xlink:href="#dd"/><use transform="matrix(0.0987654320987654,0,0,0.0987654320987654,94.51851851851849,0)" xlink:href="#cT"/><use transform="matrix(0.0987654320987654,0,0,0.0987654320987654,102.32098765432096,0)" xlink:href="#dg"/><use transform="matrix(0.0987654320987654,0,0,0.0987654320987654,131.85185185185182,0)" xlink:href="#cU"/></g><path fill="#333" d="M212-179c-10-28-35-45-73-45-59 0-87 40-87 99 0 60 29 101 89 101 43 0 62-24 78-52l27 14C228-24 195 4 139 4 59 4 22-46 18-125c-6-104 99-153 187-111 19 9 31 26 39 46" id="dh"/><path fill="#333" d="M30-248c118-7 216 8 213 122C240-48 200 0 122 0H30v-248zM63-27c89 8 146-16 146-99s-60-101-146-95v194" id="di"/><g id="V"><use transform="matrix(0.0987654320987654,0,0,0.0987654320987654,0,0)" xlink:href="#dh"/><use transform="matrix(0.0987654320987654,0,0,0.0987654320987654,25.58024691358024,0)" xlink:href="#di"/><use transform="matrix(0.0987654320987654,0,0,0.0987654320987654,51.16049382716048,0)" xlink:href="#cX"/></g><path fill="#333" d="M234-2c-28 10-62 0-77-18C117 19 8 12 13-65c3-43 29-61 60-76-25-40-17-114 47-108 35 3 59 15 59 50 0 44-40 53-71 69 14 26 32 50 51 72 14-21 24-43 30-72l26 8c-9 33-21 57-38 82 13 13 33 22 57 15v23zM97-151c25-10 52-18 56-48-1-18-13-29-33-29-42 0-39 50-23 77zM42-66c-3 51 71 58 98 28-20-24-41-51-56-80-23 10-40 24-42 52" id="dj"/><use transform="matrix(0.0987654320987654,0,0,0.0987654320987654,0,0)" xlink:href="#dj" id="W"/><path fill="#333" d="M127-220V0H93v-220H8v-28h204v28h-85" id="dk"/><path fill="#333" d="M177-190C167-65 218 103 67 71c-23-6-38-20-44-43l32-5c15 47 100 32 89-28v-30C133-14 115 1 83 1 29 1 15-40 15-95c0-56 16-97 71-98 29-1 48 16 59 35 1-10 0-23 2-32h30zM94-22c36 0 50-32 50-73 0-42-14-75-50-75-39 0-46 34-46 75s6 73 46 73" id="dl"/><g id="X"><use transform="matrix(0.0987654320987654,0,0,0.0987654320987654,0,0)" xlink:href="#dk"/><use transform="matrix(0.0987654320987654,0,0,0.0987654320987654,17.679012345679006,0)" xlink:href="#db"/><use transform="matrix(0.0987654320987654,0,0,0.0987654320987654,37.43209876543209,0)" xlink:href="#cY"/><use transform="matrix(0.0987654320987654,0,0,0.0987654320987654,49.18518518518517,0)" xlink:href="#dl"/><use transform="matrix(0.0987654320987654,0,0,0.0987654320987654,68.93827160493825,0)" xlink:href="#cU"/><use transform="matrix(0.0987654320987654,0,0,0.0987654320987654,88.69135802469133,0)" xlink:href="#dd"/></g></defs></g></svg>